{"glyphs":{"0":{"ha":694,"x_min":0,"x_max":0,"o":"m 67 490 b 347 -17 67 140 199 -17 b 628 490 494 -17 628 138 b 347 997 628 832 501 997 b 67 490 201 997 67 843 z m 167 490 b 347 967 167 715 182 967 b 528 490 513 967 528 713 b 347 14 528 228 503 14 b 167 490 185 14 167 246 z "},"1":{"ha":694,"x_min":0,"x_max":0,"o":"m 524 32 l 408 42 l 411 992 l 197 972 l 197 922 l 311 919 l 310 317 b 306 42 310 278 306 85 l 185 32 l 185 -3 b 353 0 214 -3 333 0 b 524 -3 378 0 393 0 z "},"2":{"ha":694,"x_min":0,"x_max":0,"o":"m 608 172 l 572 172 l 563 97 l 168 97 b 572 793 300 292 572 600 b 324 997 572 921 464 997 b 128 956 236 997 167 971 l 110 850 b 118 842 108 843 111 842 l 118 844 b 146 860 113 842 131 851 b 314 900 185 879 249 900 b 489 756 404 900 489 858 b 78 18 489 567 164 156 l 78 -3 b 321 0 168 -1 319 0 l 597 0 z "},"3":{"ha":694,"x_min":0,"x_max":0,"o":"m 135 854 b 324 897 171 868 242 897 b 458 781 424 897 458 836 b 224 524 458 649 282 556 b 186 496 190 506 186 504 b 224 481 186 485 190 483 b 492 296 303 472 492 438 b 169 7 492 136 303 42 b 146 -6 149 1 146 0 b 157 -25 146 -11 149 -25 b 347 40 163 -25 257 0 b 583 319 546 129 583 249 b 338 557 583 482 421 532 b 536 821 471 651 536 729 b 310 997 536 917 458 997 b 144 964 233 997 182 978 z "},"4":{"ha":694,"x_min":0,"x_max":0,"o":"m 664 400 l 664 478 l 504 475 l 507 1014 l 485 1014 l 15 426 l 15 400 l 407 400 l 403 0 l 503 0 l 504 400 z m 93 471 l 410 875 l 413 872 l 408 474 z "},"5":{"ha":694,"x_min":0,"x_max":0,"o":"m 567 878 l 572 1028 l 536 1028 l 531 975 b 450 971 504 972 478 971 l 175 971 l 176 526 b 476 343 385 503 476 454 b 168 10 476 253 408 115 b 136 -11 147 0 136 -4 b 149 -25 136 -19 140 -25 b 569 371 169 -25 569 100 b 208 625 569 567 361 604 l 211 874 z "},"6":{"ha":694,"x_min":0,"x_max":0,"o":"m 608 1003 b 61 381 203 992 61 622 b 364 -17 61 71 235 -17 b 646 300 490 -17 646 75 b 379 601 646 528 494 601 b 178 540 285 601 208 557 b 611 983 229 781 375 929 z m 546 299 b 367 11 546 176 504 11 b 161 386 228 11 161 178 b 172 501 161 446 167 471 b 342 560 192 517 247 560 b 546 299 504 560 546 419 z "},"7":{"ha":694,"x_min":0,"x_max":0,"o":"m 272 -25 l 438 442 b 642 972 490 592 617 900 l 82 972 l 78 782 l 113 782 l 121 872 l 568 878 b 389 422 517 743 504 711 l 210 -25 z "},"8":{"ha":694,"x_min":0,"x_max":0,"o":"m 628 254 b 410 549 628 425 492 503 b 581 776 464 578 581 642 b 353 997 581 864 519 997 b 108 763 208 997 108 894 b 281 507 108 614 218 546 b 92 250 176 450 92 393 b 357 -17 92 106 196 -17 b 628 254 513 -17 628 104 z m 536 228 b 344 14 536 100 439 14 b 150 253 238 14 150 111 b 313 489 150 397 244 450 b 536 228 428 435 536 374 z m 528 775 b 376 564 528 658 449 604 b 194 790 303 600 194 653 b 361 967 194 901 274 967 b 528 775 461 967 528 881 z "},"9":{"ha":694,"x_min":0,"x_max":0,"o":"m 47 678 b 328 369 47 499 171 369 b 438 388 371 369 407 378 b 511 415 468 396 493 407 b 258 15 489 342 446 192 b 232 -15 254 10 232 -10 b 244 -25 232 -21 238 -25 b 418 100 251 -25 344 31 b 642 631 564 236 642 429 b 343 997 642 921 463 997 b 47 678 176 997 47 860 z m 147 692 b 333 967 147 832 204 967 b 542 629 413 967 542 914 b 522 457 542 538 532 494 b 379 414 463 414 393 414 b 147 692 278 414 147 475 z "}," ":{"ha":347,"x_min":0,"x_max":0,"o":""},"!":{"ha":386,"x_min":0,"x_max":0,"o":"m 175 200 l 207 200 l 247 897 l 133 875 z m 260 50 b 193 117 260 88 231 117 b 126 50 156 117 126 88 b 193 -17 126 14 156 -17 b 260 50 231 -17 260 14 z "},"\"":{"ha":514,"x_min":0,"x_max":0,"o":"m 164 582 l 196 878 b 200 938 199 897 200 918 b 154 997 200 974 185 997 b 110 938 124 997 110 975 b 113 878 110 918 110 897 l 144 582 z m 369 582 l 401 878 b 406 938 404 897 406 918 b 360 997 406 974 390 997 b 315 938 329 997 315 975 b 318 878 315 918 315 897 l 350 582 z "},"#":{"ha":694,"x_min":0,"x_max":0,"o":"m 163 0 l 221 315 l 410 315 l 351 0 l 413 0 l 471 315 l 611 315 l 618 349 l 478 349 l 528 624 l 668 624 l 675 657 l 535 657 l 593 972 l 532 972 l 474 657 l 285 657 l 343 972 l 282 972 l 224 657 l 83 657 l 76 624 l 217 624 l 167 349 l 26 349 l 19 315 l 160 315 l 101 0 z m 228 349 l 278 624 l 467 624 l 417 349 z "},"$":{"ha":694,"x_min":0,"x_max":0,"o":"m 358 -192 l 358 0 b 628 265 540 10 628 136 b 358 546 628 429 499 496 l 358 950 b 547 847 444 944 503 906 l 590 886 b 358 981 540 932 485 971 l 358 1088 l 326 1088 l 326 981 b 78 740 135 969 78 836 b 326 457 78 557 233 494 l 326 31 b 101 153 254 33 192 50 l 64 108 b 326 0 154 22 236 6 l 326 -192 z m 358 444 b 544 235 419 424 544 376 b 358 31 544 114 478 58 z m 326 557 b 156 765 278 576 156 625 b 326 950 156 875 225 938 z "},"%":{"ha":1081,"x_min":0,"x_max":0,"o":"m 251 -17 l 878 997 l 831 997 b 569 889 797 967 711 889 b 503 894 546 889 528 892 b 383 971 490 919 463 971 b 85 683 251 971 85 842 b 238 524 85 578 163 524 b 513 863 351 524 525 671 b 572 858 535 860 551 858 b 758 911 669 858 718 885 l 761 908 l 189 -17 z m 157 640 b 396 935 157 719 268 917 b 478 871 432 886 461 876 b 482 832 481 858 482 847 b 240 554 482 704 346 554 b 157 640 194 554 157 589 z m 715 10 b 994 317 853 10 994 175 b 861 456 994 390 957 456 b 567 167 738 456 567 332 b 715 10 567 63 646 10 z m 725 40 b 639 122 678 40 639 72 b 879 419 639 231 778 419 b 964 317 914 419 964 397 b 725 40 964 188 822 40 z "},"&":{"ha":1081,"x_min":0,"x_max":0,"o":"m 928 51 b 861 31 914 43 893 31 b 708 167 799 31 761 72 b 931 519 758 221 833 319 b 1050 564 946 551 950 556 l 1050 600 l 781 600 l 781 564 b 881 529 868 557 881 550 b 692 197 881 492 804 324 b 542 471 650 286 622 349 b 439 624 528 493 454 599 b 643 832 506 650 643 708 b 476 983 643 906 589 983 b 272 788 368 983 272 911 b 335 597 272 722 300 661 b 74 264 256 563 74 485 b 357 -25 74 108 185 -25 b 635 92 472 -25 560 29 b 807 -25 650 61 694 -25 b 953 29 883 -25 926 8 z m 179 328 b 347 574 179 432 247 521 b 490 351 368 538 471 383 b 615 125 507 324 579 199 b 424 39 590 103 518 39 b 179 328 258 39 179 214 z m 364 824 b 476 953 364 925 435 953 b 576 850 526 953 576 919 b 425 646 576 783 528 700 b 364 824 389 711 364 763 z "},"’":{"ha":308,"x_min":0,"x_max":0,"o":"m 71 906 b 161 843 108 900 161 890 b 60 672 161 794 85 701 l 78 653 b 249 906 90 665 249 835 b 108 997 249 954 172 985 z "},"(":{"ha":463,"x_min":0,"x_max":0,"o":"m 389 -303 b 168 349 239 -124 168 82 b 389 1000 168 615 239 821 l 354 1000 b 99 349 181 797 99 592 b 354 -303 99 106 181 -100 z "},")":{"ha":463,"x_min":0,"x_max":0,"o":"m 74 1000 b 294 349 224 821 294 615 b 74 -303 294 82 224 -124 l 108 -303 b 364 349 282 -100 364 106 b 108 1000 364 592 282 797 z "},"*":{"ha":694,"x_min":0,"x_max":0,"o":"m 439 765 b 464 799 439 782 454 793 l 533 839 b 554 865 544 844 554 851 b 526 894 554 879 543 894 b 411 838 501 894 435 838 b 375 882 388 838 375 856 l 375 963 b 347 997 375 986 365 997 b 319 963 329 997 319 986 l 319 882 b 283 838 319 856 307 838 b 168 894 260 838 193 894 b 140 865 151 894 140 879 b 161 839 140 851 150 844 l 231 799 b 256 765 240 793 256 782 b 231 732 256 749 240 738 l 161 692 b 140 665 150 686 140 679 b 168 636 140 651 151 636 b 283 693 193 636 260 693 b 319 649 307 693 319 675 l 319 568 b 347 533 319 544 329 533 b 375 568 365 533 375 544 l 375 649 b 411 693 375 675 388 693 b 526 636 435 693 501 636 b 554 665 543 636 554 651 b 533 692 554 679 544 686 l 464 732 b 439 765 454 738 439 749 z m 421 763 b 446 711 421 732 446 725 b 433 700 446 706 442 700 b 406 704 429 700 410 704 b 347 653 358 704 369 653 b 289 704 325 653 336 704 b 261 700 285 704 265 700 b 249 711 254 700 249 706 b 274 763 249 725 274 732 b 249 814 274 793 249 800 b 261 825 249 819 254 825 b 289 821 265 825 285 821 b 347 872 336 821 325 872 b 406 821 369 872 358 821 b 433 825 410 821 429 825 b 446 814 442 825 446 819 b 421 763 446 800 421 793 z "},"+":{"ha":833,"x_min":0,"x_max":0,"o":"m 386 0 l 446 0 l 446 313 l 758 313 l 758 372 l 446 372 l 446 685 l 386 685 l 386 372 l 74 372 l 74 313 l 386 313 z "},",":{"ha":347,"x_min":0,"x_max":0,"o":"m 82 15 b 193 -46 144 11 193 -6 b 76 -236 193 -82 140 -165 l 93 -257 b 279 14 149 -203 279 -53 b 121 110 279 61 214 99 z "},"-":{"ha":360,"x_min":0,"x_max":0,"o":"m 346 251 l 346 335 l 14 335 l 14 251 z "},".":{"ha":347,"x_min":0,"x_max":0,"o":"m 240 50 b 174 117 240 88 211 117 b 107 50 136 117 107 88 b 174 -17 107 14 136 -17 b 240 50 211 -17 240 14 z "},"/":{"ha":386,"x_min":0,"x_max":0,"o":"m 39 -25 l 110 -25 l 428 997 l 357 997 z "},":":{"ha":347,"x_min":0,"x_max":0,"o":"m 242 50 b 175 117 242 88 213 117 b 108 50 138 117 108 88 b 175 -17 108 14 138 -17 b 242 50 213 -17 242 14 z m 242 476 b 175 543 242 514 213 543 b 108 476 138 543 108 514 b 175 410 108 440 138 410 b 242 476 213 410 242 440 z "},";":{"ha":347,"x_min":0,"x_max":0,"o":"m 82 15 b 193 -46 146 11 193 -6 b 78 -236 193 -82 140 -165 l 93 -257 b 281 14 150 -203 281 -53 b 121 110 281 61 214 99 z m 247 476 b 181 543 247 514 218 543 b 114 476 143 543 114 514 b 181 410 114 440 143 410 b 247 476 218 410 247 440 z "},"<":{"ha":833,"x_min":0,"x_max":0,"o":"m 814 -6 l 814 58 l 126 342 l 814 626 l 814 690 l 19 354 l 19 331 z "},"=":{"ha":833,"x_min":0,"x_max":0,"o":"m 74 446 l 758 446 l 758 506 l 74 506 z m 74 179 l 758 179 l 758 239 l 74 239 z "},">":{"ha":833,"x_min":0,"x_max":0,"o":"m 19 -6 l 814 331 l 814 354 l 19 690 l 19 626 l 707 342 l 19 58 z "},"?":{"ha":540,"x_min":0,"x_max":0,"o":"m 178 206 l 207 206 l 213 413 b 478 718 375 514 478 604 b 254 897 478 825 386 897 b 86 863 208 897 128 883 l 74 753 b 251 797 108 769 171 797 b 394 688 325 797 394 764 b 168 428 394 592 301 525 z m 260 50 b 193 117 260 88 231 117 b 126 50 156 117 126 88 b 193 -17 126 14 156 -17 b 260 50 231 -17 260 14 z "},"@":{"ha":1111,"x_min":0,"x_max":0,"o":"m 954 133 b 582 6 801 22 664 6 b 107 457 303 6 107 208 b 624 961 107 714 321 961 b 1040 588 874 961 1040 799 b 819 243 1040 410 913 243 b 746 325 785 243 746 271 b 758 400 746 333 749 361 b 851 722 778 478 796 536 l 772 722 l 747 635 l 744 635 b 614 738 728 718 661 738 b 324 406 486 738 324 589 b 508 206 324 289 404 206 b 675 332 576 206 638 244 l 678 332 b 796 206 679 213 774 206 b 1071 590 928 206 1071 392 b 613 997 1071 814 896 997 b 40 458 283 997 40 744 b 574 -25 40 163 288 -25 b 969 107 783 -25 925 75 z m 410 379 b 625 707 410 514 513 707 b 721 603 675 707 721 671 b 696 479 721 581 719 558 b 518 236 660 360 622 236 b 410 379 463 236 410 275 z "},"A":{"ha":849,"x_min":0,"x_max":0,"o":"m 864 39 b 803 58 814 42 807 49 b 650 438 783 94 750 181 l 439 997 l 418 997 l 183 361 b 75 88 103 144 88 117 b -19 39 58 49 53 44 l -19 -3 b 82 0 7 -3 33 0 b 208 -3 126 0 174 -3 l 208 33 l 140 38 b 114 50 121 39 114 42 b 128 99 114 57 122 82 l 222 369 b 253 396 229 389 238 396 l 503 396 b 546 368 532 396 536 393 l 647 92 b 658 56 651 82 658 61 b 615 39 658 44 653 42 l 549 33 l 549 -3 b 725 0 649 -1 685 0 b 864 -3 790 0 829 -3 z m 274 429 b 249 436 256 429 249 432 b 257 465 249 443 254 454 l 372 769 b 386 792 378 785 381 792 b 397 772 390 792 393 783 l 513 460 b 519 438 517 450 519 440 b 504 429 519 433 515 429 z "},"B":{"ha":875,"x_min":0,"x_max":0,"o":"m 60 -3 b 225 0 111 -1 161 0 b 458 -3 258 0 421 -3 b 793 276 689 -3 793 125 b 579 529 793 429 686 501 b 729 757 626 554 729 611 b 454 983 729 926 606 983 b 235 974 414 983 396 983 b 68 972 194 972 121 972 l 68 936 l 175 933 b 178 693 178 858 178 846 l 178 261 b 175 39 179 119 178 113 l 60 33 z m 301 881 b 360 950 301 949 315 950 b 618 731 508 950 619 882 b 376 519 617 582 499 519 l 300 519 z m 300 489 b 674 251 410 488 674 490 b 413 28 674 94 556 28 b 300 126 324 28 300 39 z "},"C":{"ha":1054,"x_min":0,"x_max":0,"o":"m 932 321 b 593 17 889 147 789 17 b 186 510 396 17 186 185 b 563 967 186 815 392 967 b 922 654 628 967 839 938 l 950 654 l 950 921 l 910 921 b 889 897 906 910 901 897 b 550 997 864 897 733 997 b 58 489 292 997 58 806 b 551 -25 58 175 275 -25 b 944 92 693 -25 824 17 l 960 321 z "},"D":{"ha":1106,"x_min":0,"x_max":0,"o":"m 74 33 l 74 -3 b 233 0 126 -1 169 0 b 478 -3 268 0 439 -3 b 1047 493 794 -3 1047 147 b 536 983 1047 811 825 983 b 74 972 457 983 144 972 l 74 936 l 176 933 b 181 311 181 842 181 789 b 176 39 181 161 179 114 z m 303 276 b 304 906 303 442 303 861 b 314 940 306 931 307 936 b 403 950 328 946 368 950 b 919 481 693 950 919 801 b 511 28 919 233 778 28 b 311 53 431 28 319 36 b 303 276 303 67 303 257 z "},"E":{"ha":926,"x_min":0,"x_max":0,"o":"m 849 253 l 807 253 l 740 31 l 375 31 b 299 89 324 31 304 42 b 294 494 294 124 294 347 b 529 488 343 494 482 496 b 557 318 544 485 546 476 l 603 318 b 599 482 600 361 599 406 b 607 704 599 601 604 663 l 561 704 b 529 546 560 685 557 567 b 294 525 500 525 338 525 l 294 944 l 572 944 b 749 761 722 944 744 933 l 796 761 l 796 975 b 285 972 625 972 454 972 b 64 975 164 972 108 974 l 64 939 l 169 933 b 172 668 172 858 172 840 l 172 147 b 171 39 172 108 172 75 l 74 33 l 74 -3 b 397 0 147 -1 182 0 l 832 0 z "},"F":{"ha":849,"x_min":0,"x_max":0,"o":"m 171 933 b 174 817 172 893 174 861 l 174 39 l 76 33 l 76 -3 b 228 0 108 -3 156 0 b 408 -3 294 0 358 -3 l 408 33 l 299 39 b 296 483 296 125 296 161 l 439 483 b 535 478 481 483 500 482 b 558 308 542 476 551 436 l 604 308 b 600 472 601 350 600 388 b 607 697 600 592 603 658 l 561 697 b 535 542 561 675 553 550 b 296 514 494 521 381 514 l 296 942 l 614 942 b 765 744 733 942 753 922 l 814 744 l 807 975 b 338 972 593 972 422 972 b 74 975 164 972 118 974 l 74 939 z "},"G":{"ha":1106,"x_min":0,"x_max":0,"o":"m 1058 339 b 886 335 1008 338 954 335 b 719 339 817 335 767 338 l 719 301 l 847 296 b 851 213 849 275 851 261 b 847 117 851 157 849 138 b 601 8 808 81 736 8 b 186 503 382 8 186 211 b 560 964 186 789 363 964 b 918 654 747 964 869 824 l 946 654 l 947 921 l 918 921 b 899 892 911 897 910 892 b 546 997 875 892 729 997 b 58 489 293 997 58 801 b 551 -25 58 194 256 -25 b 978 106 688 -25 793 11 l 978 231 b 1035 301 978 296 981 301 l 1058 301 z "},"H":{"ha":1081,"x_min":0,"x_max":0,"o":"m 74 -3 b 239 0 121 -1 163 0 b 406 -3 317 0 360 -1 l 406 33 l 299 39 b 296 483 296 125 296 161 l 785 483 b 782 39 785 376 785 125 l 675 33 l 675 -3 b 840 0 722 -1 764 0 b 1007 -3 918 0 963 -1 l 1007 33 l 910 39 b 907 660 906 131 907 183 b 910 933 907 840 907 857 l 1007 939 l 1007 975 b 840 972 960 972 918 972 b 675 975 764 972 719 972 l 675 939 l 782 933 b 785 517 785 846 785 617 l 296 517 b 299 933 296 617 296 846 l 406 939 l 406 975 b 239 972 358 972 317 972 b 74 975 163 972 118 972 l 74 939 l 171 933 b 174 311 174 840 174 788 b 171 39 174 131 174 114 l 74 33 z "},"I":{"ha":463,"x_min":0,"x_max":0,"o":"m 296 39 b 292 661 292 131 292 183 b 296 933 292 842 293 858 l 397 939 l 397 975 b 232 972 350 974 308 972 b 65 975 154 972 111 974 l 65 939 l 168 933 b 169 311 171 842 169 789 b 168 39 169 131 171 114 l 65 33 l 65 -3 b 232 0 113 -1 154 0 b 397 -3 308 0 353 -1 l 397 33 z "},"J":{"ha":463,"x_min":0,"x_max":0,"o":"m 8 -297 b 175 -214 49 -292 104 -283 b 300 217 261 -131 300 -25 b 297 933 300 319 296 819 l 401 939 l 401 975 b 231 972 374 975 275 972 b 69 975 192 972 94 975 l 69 939 l 169 933 b 178 169 169 847 178 424 b 8 -275 178 -111 119 -203 z "},"K":{"ha":926,"x_min":0,"x_max":0,"o":"m 932 0 l 932 33 b 832 96 904 39 883 44 b 613 333 800 129 647 296 l 415 561 l 649 764 b 911 933 765 867 829 922 l 911 975 b 619 972 833 972 824 972 l 619 936 b 742 918 726 935 742 929 b 525 704 742 904 551 728 l 294 492 b 297 933 294 597 294 847 l 404 939 l 404 975 b 238 972 357 974 315 972 b 72 975 161 972 117 974 l 72 939 l 169 933 b 172 311 172 842 172 789 b 169 39 172 131 172 114 l 72 33 l 72 -3 b 246 0 106 -3 158 0 b 418 -3 332 0 385 -3 l 418 33 l 297 39 b 294 453 294 125 294 351 l 324 479 b 746 0 471 317 607 161 z "},"L":{"ha":849,"x_min":0,"x_max":0,"o":"m 829 267 l 786 267 l 708 38 b 574 33 671 36 633 33 b 338 42 557 33 376 36 b 294 90 306 44 299 64 b 292 661 292 114 292 168 b 296 933 292 842 293 858 l 408 939 l 408 975 b 236 972 376 975 322 972 b 61 975 147 972 96 975 l 61 939 l 168 933 b 169 311 171 842 169 789 b 168 39 169 131 171 114 l 50 33 l 50 -3 b 256 0 89 -3 136 0 b 801 -3 571 0 606 0 z "},"M":{"ha":1311,"x_min":0,"x_max":0,"o":"m 1251 33 l 1144 39 b 1139 579 1143 115 1140 494 b 1135 933 1135 840 1135 869 l 1246 939 l 1246 975 b 1001 972 1114 972 1088 972 l 664 142 l 303 975 b 183 972 272 975 231 972 b 58 975 143 972 104 974 l 58 939 l 169 933 b 175 614 172 838 175 707 b 171 39 175 465 174 213 l 58 33 l 58 -3 b 206 0 140 -1 171 0 b 339 -3 257 0 304 -3 l 339 33 l 215 39 l 207 878 l 210 881 l 615 -17 l 638 -17 l 1010 901 l 1013 901 b 1019 425 1013 833 1019 501 b 1017 39 1019 296 1018 175 l 910 33 l 910 -3 b 1076 0 961 -3 1021 0 b 1251 -3 1133 0 1199 -3 z "},"N":{"ha":1081,"x_min":0,"x_max":0,"o":"m 907 -17 l 910 440 b 919 933 910 479 918 856 l 1025 939 l 1025 975 b 889 972 1003 975 925 971 b 753 975 803 975 865 972 l 753 939 l 872 933 b 874 476 874 833 874 592 l 874 200 b 271 972 789 299 342 876 b 56 975 176 972 164 972 l 56 939 b 178 853 143 926 178 879 l 176 444 b 169 39 174 310 171 174 l 58 33 l 58 -3 b 197 0 93 -1 126 0 b 336 -3 268 0 301 -1 l 336 33 l 219 39 b 214 396 217 158 214 367 l 213 838 l 215 840 b 531 443 264 775 290 742 b 886 -17 629 321 783 118 z "},"O":{"ha":1106,"x_min":0,"x_max":0,"o":"m 60 475 b 551 -25 60 228 229 -25 b 1047 503 867 -25 1047 232 b 561 997 1047 772 879 997 b 60 475 232 997 60 744 z m 188 478 b 563 967 188 857 422 967 b 919 497 740 967 919 803 b 564 6 919 240 786 6 b 188 478 367 6 188 190 z "},"P":{"ha":797,"x_min":0,"x_max":0,"o":"m 296 39 b 292 464 292 125 292 361 l 406 464 b 761 733 614 464 761 553 b 479 983 761 847 678 983 b 344 978 460 983 403 981 b 206 972 286 975 228 972 b 64 975 158 972 97 975 l 64 939 l 168 933 b 172 311 171 842 172 789 b 168 39 172 131 171 114 l 64 33 l 64 -3 b 236 0 97 -3 150 0 b 408 -3 322 0 375 -3 l 408 33 z m 294 888 b 321 950 294 947 301 950 b 644 725 479 950 644 922 b 379 494 644 563 528 494 b 292 497 350 494 328 496 z "},"Q":{"ha":1106,"x_min":0,"x_max":0,"o":"m 1038 -157 b 879 -199 985 -186 936 -199 b 317 -106 794 -199 736 -186 l 317 -103 b 790 42 535 -60 657 -36 b 1047 508 946 132 1047 297 b 561 997 1047 775 879 997 b 60 488 217 997 60 725 b 500 -12 60 290 168 18 b 525 -24 519 -14 525 -15 b 514 -35 525 -31 519 -33 b 254 -89 506 -36 257 -89 b 121 -68 243 -89 163 -68 b 75 -104 94 -68 74 -78 b 106 -214 82 -207 92 -214 b 169 -182 117 -214 153 -192 b 822 -304 335 -211 658 -304 b 1050 -174 889 -304 938 -275 z m 188 482 b 563 967 188 857 421 967 b 919 501 742 967 919 804 b 564 13 919 246 785 13 b 188 482 368 13 188 197 z "},"R":{"ha":900,"x_min":0,"x_max":0,"o":"m 296 39 b 292 478 292 125 292 160 b 381 476 350 479 363 478 b 432 468 414 476 424 475 b 568 258 443 458 546 296 b 811 -3 714 24 732 -3 b 908 0 828 -4 836 -3 l 908 25 b 758 188 871 40 847 60 b 561 494 699 274 561 488 b 569 503 561 497 563 499 b 733 739 625 531 733 601 b 454 983 733 907 608 983 b 331 978 414 983 372 981 b 207 972 289 975 249 972 b 65 975 160 972 113 975 l 65 939 l 168 933 b 169 311 171 842 169 789 b 168 39 169 131 171 114 l 65 33 l 65 -3 b 232 0 113 -1 154 0 b 397 -3 308 0 353 -1 l 397 33 z m 292 508 b 297 935 292 563 292 917 b 371 950 314 944 349 950 b 617 738 510 950 617 889 b 518 528 617 636 565 556 b 375 511 493 513 415 511 z "},"S":{"ha":772,"x_min":0,"x_max":0,"o":"m 104 0 l 143 0 b 163 25 153 22 153 25 b 401 -25 172 25 293 -25 b 689 253 563 -25 689 103 b 200 799 689 564 200 550 b 375 967 200 872 256 967 b 625 736 511 967 583 864 l 650 736 l 650 972 l 611 972 b 586 953 608 964 603 953 b 372 997 564 953 471 997 b 100 747 200 997 100 874 b 586 197 100 436 586 472 b 394 6 586 82 500 6 b 132 256 247 6 169 128 l 104 256 z "},"T":{"ha":926,"x_min":0,"x_max":0,"o":"m 56 733 b 111 919 82 860 90 900 b 246 944 124 932 138 944 l 396 944 b 397 308 399 850 397 796 b 396 39 397 131 397 114 l 296 33 l 296 -3 b 458 0 346 -1 385 0 b 622 -3 533 0 578 -1 l 622 33 l 522 39 b 519 672 519 131 519 185 b 522 944 519 850 519 868 l 725 944 b 844 926 832 944 838 939 b 861 740 853 911 860 768 l 901 740 l 914 975 b 457 972 821 975 517 972 b 29 975 346 972 151 975 l 13 733 z "},"U":{"ha":1054,"x_min":0,"x_max":0,"o":"m 992 939 l 992 975 b 863 972 933 974 892 972 b 732 975 838 972 800 974 l 732 939 l 835 933 l 839 411 b 560 11 840 150 750 11 b 281 436 364 11 275 164 l 292 933 l 399 939 l 399 975 b 238 972 340 974 286 972 b 71 975 200 972 156 974 l 71 939 l 165 933 l 161 414 b 538 -25 157 163 261 -25 b 894 397 813 -25 890 189 l 904 933 z "},"V":{"ha":951,"x_min":0,"x_max":0,"o":"m 961 975 b 728 972 860 972 804 972 l 728 935 b 832 919 825 935 832 932 b 682 535 832 901 699 572 l 521 147 b 236 825 426 372 329 599 b 200 922 203 906 200 914 b 304 935 200 931 214 935 l 304 972 b -10 975 158 972 142 971 l -10 938 l 51 933 b 464 -25 188 613 331 296 l 485 -25 l 682 439 b 890 908 715 519 860 850 b 961 932 899 926 903 928 z "},"W":{"ha":1338,"x_min":0,"x_max":0,"o":"m 1354 975 b 1124 972 1294 972 1165 972 l 1124 936 b 1231 925 1225 935 1231 933 b 1104 556 1231 913 1117 589 l 964 172 l 961 172 l 722 893 b 714 922 718 904 714 915 b 828 939 714 928 721 936 l 828 975 b 667 972 786 975 731 972 b 511 975 604 972 551 974 l 511 939 l 579 933 l 649 742 l 456 172 l 453 172 l 311 582 l 214 871 b 197 924 211 879 197 919 b 300 939 197 935 211 938 l 300 975 b 142 972 269 975 165 972 b -1 975 124 972 111 972 l -1 939 l 58 933 b 397 -25 172 633 288 296 l 421 -25 l 668 681 l 671 681 l 901 -25 l 924 -25 l 1122 497 b 1288 917 1149 564 1263 865 b 1354 933 1293 926 1297 932 z "},"X":{"ha":875,"x_min":0,"x_max":0,"o":"m 885 39 b 813 63 847 44 829 46 b 622 317 786 88 706 193 l 471 542 l 561 664 b 753 908 614 738 715 874 b 872 933 776 931 799 931 l 872 975 b 586 972 803 974 757 972 l 586 936 b 699 924 693 938 699 935 b 589 763 699 915 601 781 l 451 572 l 328 751 b 221 921 307 782 221 907 b 331 936 221 933 226 936 l 331 972 b -6 975 167 972 117 972 l -6 933 b 50 918 17 932 36 929 b 182 751 83 894 147 803 l 379 469 l 265 310 b 106 93 214 236 154 150 b -6 39 65 46 39 42 l -6 -3 b 290 0 39 -1 72 0 l 290 36 b 150 50 160 36 150 40 b 299 292 150 78 272 254 l 399 438 l 622 99 b 649 49 638 76 649 60 b 544 33 649 40 636 36 l 544 -3 b 713 0 582 -3 631 0 b 885 -3 797 0 849 -3 z "},"Y":{"ha":797,"x_min":0,"x_max":0,"o":"m 210 33 l 210 -3 b 397 0 274 -1 331 0 b 583 -3 463 0 529 -3 l 583 33 l 461 39 b 458 154 460 79 458 110 l 458 504 l 590 689 b 747 893 638 753 699 836 b 833 933 774 925 789 932 l 833 975 b 578 972 764 972 651 972 l 578 936 b 681 933 614 936 663 935 b 703 921 690 933 703 932 b 675 872 703 914 700 910 b 546 689 656 846 567 718 l 442 536 l 336 700 b 203 925 315 736 203 913 b 315 939 203 933 210 936 l 315 975 b 117 972 279 975 136 972 b -35 975 90 972 33 974 l -35 939 b 40 921 10 936 25 935 b 185 710 61 901 151 763 l 336 474 b 333 39 336 369 336 125 z "},"Z":{"ha":900,"x_min":0,"x_max":0,"o":"m 856 261 l 811 261 b 742 54 796 167 767 65 b 404 31 686 33 464 31 l 192 29 b 492 453 235 89 260 125 b 849 956 761 833 790 876 l 849 975 b 518 972 801 976 569 972 b 56 975 396 972 164 972 l 49 735 l 97 735 b 311 942 108 915 133 940 l 688 944 b 28 21 388 510 343 443 l 28 0 l 360 0 b 849 -3 488 0 749 -1 z "},"[":{"ha":463,"x_min":0,"x_max":0,"o":"m 149 -306 l 354 -306 b 372 -292 368 -306 372 -300 b 325 -257 372 -279 360 -257 b 221 -285 289 -257 258 -285 b 206 -282 214 -285 211 -285 l 206 974 b 221 976 211 976 214 976 b 325 949 258 976 289 949 b 372 983 360 949 372 971 b 354 997 372 992 368 997 l 149 997 z "},"\\":{"ha":386,"x_min":0,"x_max":0,"o":"m 347 -25 l 29 997 l -42 997 l 276 -25 z "},"]":{"ha":463,"x_min":0,"x_max":0,"o":"m 314 997 l 108 997 b 90 983 94 997 90 992 b 138 949 90 971 103 949 b 242 976 174 949 204 976 b 257 974 249 976 251 976 l 257 -282 b 242 -285 251 -285 249 -285 b 138 -257 204 -285 174 -257 b 90 -292 103 -257 90 -279 b 108 -306 90 -300 94 -306 l 314 -306 z "},"^":{"ha":833,"x_min":0,"x_max":0,"o":"m 228 514 l 417 846 l 606 514 l 636 514 l 428 997 l 406 997 l 197 514 z "},"_":{"ha":694,"x_min":0,"x_max":0,"o":"m 0 -174 l 694 -174 l 694 -104 l 0 -104 z "},"‘":{"ha":308,"x_min":0,"x_max":0,"o":"m 238 778 b 147 842 200 785 147 793 b 249 1013 147 890 232 993 l 231 1031 b 60 779 224 1025 60 850 b 200 688 60 731 133 699 z "},"a":{"ha":617,"x_min":0,"x_max":0,"o":"m 563 50 l 490 50 l 492 478 b 358 608 492 563 457 608 b 144 554 282 608 192 579 b 78 458 106 533 78 514 b 108 403 78 428 86 403 b 161 440 125 403 158 428 b 176 539 165 464 171 496 b 296 567 179 551 222 567 b 394 475 378 567 396 553 l 393 297 b 44 107 203 292 44 242 b 169 -22 44 31 100 -22 b 383 58 246 -22 325 28 b 390 29 389 58 389 56 b 432 -17 392 3 406 -17 b 563 14 457 -17 531 4 z m 392 115 b 368 75 390 85 389 83 b 221 36 360 71 278 36 b 139 118 161 36 139 69 b 376 275 139 256 364 275 b 392 247 389 275 393 274 z "},"b":{"ha":721,"x_min":0,"x_max":0,"o":"m 36 964 l 121 963 b 122 894 121 940 122 917 l 122 19 b 140 -3 122 3 128 -1 b 324 -17 153 -4 261 -17 b 661 300 563 -17 661 147 b 392 603 661 469 561 603 b 222 564 333 603 279 588 l 222 664 b 225 1036 222 753 222 949 b 36 1010 147 1019 124 1015 z m 222 449 b 228 531 222 511 222 519 b 321 564 242 553 286 564 b 561 296 438 564 561 481 b 292 8 561 124 443 8 b 222 74 239 8 222 21 z "},"c":{"ha":643,"x_min":0,"x_max":0,"o":"m 550 146 b 378 39 524 108 475 39 b 158 308 275 39 158 129 b 371 578 158 485 269 578 b 471 460 446 578 453 539 b 538 403 482 413 493 403 b 574 426 568 403 574 407 b 338 608 574 504 490 608 b 58 281 129 608 58 403 b 328 -22 58 114 169 -22 b 569 133 438 -22 525 35 z "},"d":{"ha":721,"x_min":0,"x_max":0,"o":"m 669 38 l 597 36 l 597 822 b 599 1036 597 893 599 964 b 389 1010 506 1019 461 1014 l 389 964 l 497 963 l 497 600 b 486 581 497 588 493 581 b 346 603 479 581 415 603 b 53 294 186 603 53 486 b 321 -17 53 108 172 -17 b 488 21 393 -17 476 21 b 496 4 493 21 494 17 b 514 -22 497 -15 497 -22 b 669 1 532 -22 622 -7 z m 497 92 b 399 28 497 40 471 28 b 158 303 225 28 158 163 b 393 572 158 508 286 572 b 497 529 476 572 497 551 z "},"e":{"ha":643,"x_min":0,"x_max":0,"o":"m 561 147 b 388 44 533 107 489 44 b 156 313 236 44 156 186 b 181 368 156 364 163 368 l 553 368 b 581 397 578 368 581 376 b 353 608 581 450 536 608 b 61 283 167 608 61 444 b 347 -22 61 101 189 -22 b 582 135 497 -22 557 89 z m 188 399 b 172 406 178 399 172 401 b 358 578 172 439 238 578 b 486 415 471 578 486 446 b 456 399 486 403 481 399 z "},"f":{"ha":386,"x_min":0,"x_max":0,"o":"m 36 0 l 339 0 l 339 33 l 231 35 l 231 507 b 246 536 231 531 233 535 l 389 542 l 389 592 l 229 585 b 232 910 226 690 225 792 b 269 964 235 949 242 964 b 499 939 340 964 425 947 l 508 1014 b 339 1031 407 1026 369 1031 b 190 939 265 1031 222 990 b 131 579 132 849 131 749 l 36 575 l 36 531 l 131 532 l 131 35 l 36 33 z "},"g":{"ha":643,"x_min":0,"x_max":0,"o":"m 625 589 l 499 574 b 453 571 482 572 463 571 b 297 608 410 571 376 608 b 78 396 181 608 78 526 b 203 204 78 272 157 229 l 203 203 b 43 72 164 194 43 169 b 113 -28 43 7 96 -19 b 39 -192 50 -96 39 -156 b 274 -383 39 -260 83 -383 b 625 -131 456 -383 625 -283 b 356 28 625 -19 551 13 b 118 100 136 44 118 53 b 307 190 118 160 176 169 b 528 426 447 213 528 265 b 525 496 528 438 525 493 b 576 511 525 504 528 506 b 625 542 619 517 625 525 z m 335 564 b 424 539 378 564 417 549 b 439 438 436 524 439 461 b 313 228 439 261 386 228 b 164 390 246 228 164 268 b 335 564 164 483 226 564 z m 69 -206 b 158 -64 69 -128 153 -68 b 214 -56 171 -56 175 -56 b 547 -157 464 -56 547 -69 b 257 -339 547 -258 404 -339 b 69 -206 142 -339 69 -281 z "},"h":{"ha":772,"x_min":0,"x_max":0,"o":"m 57 0 l 303 0 l 303 33 l 233 35 l 233 471 b 244 525 233 507 236 519 b 404 561 282 549 357 561 b 536 428 515 561 536 521 l 536 35 l 465 33 l 465 0 l 710 0 l 710 33 l 636 35 l 636 435 b 460 603 636 547 568 603 b 244 547 344 603 253 547 b 233 586 238 547 233 554 l 233 760 b 236 1036 233 799 236 992 b 46 1014 106 1018 90 1015 l 46 972 l 132 969 b 133 750 132 896 133 824 l 133 35 l 57 33 z "},"i":{"ha":386,"x_min":0,"x_max":0,"o":"m 72 0 l 324 0 l 324 33 l 250 35 l 250 600 l 79 578 l 79 536 b 150 493 146 532 150 529 l 150 35 l 72 33 z m 206 947 b 139 876 167 947 139 917 b 196 817 139 844 160 817 b 261 889 232 817 261 849 b 206 947 261 928 235 947 z "},"j":{"ha":386,"x_min":0,"x_max":0,"o":"m 131 -303 b 228 -156 161 -278 201 -244 b 260 211 261 -46 261 88 l 258 600 l 83 583 l 83 539 b 160 481 153 532 160 532 l 161 89 b 153 -149 161 33 161 -60 b 88 -303 144 -239 126 -258 z m 219 947 b 153 876 181 947 153 917 b 210 817 153 844 174 817 b 275 889 246 817 275 849 b 219 947 275 928 249 947 z "},"k":{"ha":643,"x_min":0,"x_max":0,"o":"m 622 0 l 622 38 b 451 188 578 49 568 51 l 321 342 b 314 353 315 349 314 350 b 324 367 314 356 318 361 l 413 463 b 583 547 468 524 481 535 l 583 592 l 385 581 l 385 539 b 438 532 394 539 438 539 b 233 303 438 526 239 303 b 225 313 228 303 225 306 l 225 764 b 228 1036 225 822 226 985 b 21 1017 119 1021 88 1018 l 21 972 b 125 949 117 972 125 969 l 125 35 l 46 33 l 46 0 l 300 0 l 300 33 l 225 35 l 225 257 b 239 281 225 271 231 281 b 263 267 244 282 249 281 l 489 0 z "},"l":{"ha":386,"x_min":0,"x_max":0,"o":"m 319 0 l 319 33 l 244 35 l 244 747 b 246 1036 244 843 246 940 b 42 1019 214 1033 74 1021 l 42 975 b 133 969 57 974 128 974 b 144 843 144 961 144 865 l 144 35 l 53 33 l 53 0 z "},"m":{"ha":1157,"x_min":0,"x_max":0,"o":"m 67 0 l 313 0 l 313 33 l 239 35 l 239 451 b 256 526 239 510 239 517 b 407 561 290 549 361 561 b 535 419 503 561 535 531 l 535 35 l 463 33 l 463 0 l 708 0 l 708 33 l 635 35 l 635 451 b 651 526 635 510 635 517 b 801 561 685 549 756 561 b 931 419 897 561 931 531 l 931 35 l 857 33 l 857 0 l 1103 0 l 1103 33 l 1031 35 l 1031 397 b 847 603 1031 539 981 603 b 614 531 758 603 678 563 b 458 603 593 558 560 603 b 247 546 360 603 257 546 b 231 600 232 546 232 550 l 63 578 l 63 521 l 139 518 l 139 35 l 67 33 z "},"n":{"ha":772,"x_min":0,"x_max":0,"o":"m 65 0 l 311 0 l 311 33 l 239 35 l 239 471 b 253 525 239 507 244 519 b 413 561 290 549 365 561 b 544 428 524 561 544 521 l 544 35 l 474 33 l 474 0 l 718 0 l 718 33 l 644 35 l 644 435 b 468 603 644 547 576 603 b 246 546 353 603 261 546 b 229 597 232 546 229 557 l 61 578 l 61 522 l 139 519 l 139 35 l 65 33 z "},"o":{"ha":694,"x_min":0,"x_max":0,"o":"m 56 286 b 349 -22 56 79 204 -22 b 639 308 535 -22 639 138 b 360 608 639 432 581 608 b 56 286 224 608 56 533 z m 161 292 b 358 578 161 513 285 578 b 533 294 471 578 533 453 b 347 8 533 147 475 8 b 161 292 231 8 161 144 z "},"p":{"ha":721,"x_min":0,"x_max":0,"o":"m 42 -328 l 42 -361 l 324 -361 l 324 -328 l 225 -326 l 225 7 b 363 -17 258 -3 306 -17 b 667 301 529 -17 667 96 b 411 603 667 500 535 603 b 235 556 326 603 249 556 b 210 600 224 556 214 568 l 42 578 l 42 525 l 122 524 b 125 242 125 429 125 336 l 125 -90 b 124 -326 125 -124 125 -289 z m 225 497 b 239 535 225 519 231 531 b 344 556 258 544 315 556 b 561 294 440 556 561 481 b 299 17 561 117 464 17 b 225 24 261 17 244 19 z "},"q":{"ha":721,"x_min":0,"x_max":0,"o":"m 675 -361 l 675 -328 l 600 -326 l 600 592 l 543 590 b 375 603 518 590 401 603 b 58 290 168 603 58 457 b 328 -17 58 113 169 -17 b 500 32 410 -17 475 18 l 500 -178 b 496 -326 500 -199 497 -303 l 414 -328 l 414 -361 z m 500 147 b 496 58 500 126 499 69 b 403 28 492 43 440 28 b 164 300 279 28 164 115 b 400 578 164 475 254 578 b 492 553 454 578 483 564 b 500 447 500 542 501 497 z "},"r":{"ha":463,"x_min":0,"x_max":0,"o":"m 65 0 l 331 0 l 331 33 l 239 35 l 239 468 b 326 517 239 507 243 517 b 438 522 429 517 436 519 b 446 594 442 529 446 586 b 407 608 446 608 421 608 b 244 525 314 608 254 525 b 235 549 239 525 236 538 l 229 600 l 61 578 l 61 531 b 132 524 86 529 128 528 b 139 328 139 517 139 422 l 139 35 l 65 33 z "},"s":{"ha":463,"x_min":0,"x_max":0,"o":"m 53 22 b 222 -22 129 -10 181 -22 b 408 158 313 -22 408 46 b 136 485 408 343 136 349 b 244 578 136 533 183 578 b 363 444 322 578 343 513 l 392 444 l 389 560 b 232 608 340 576 306 608 b 61 451 138 608 61 539 b 322 119 61 278 322 282 b 217 8 322 65 289 8 b 78 164 125 8 90 104 l 44 164 z "},"t":{"ha":386,"x_min":0,"x_max":0,"o":"m 389 39 b 306 28 365 32 338 28 b 217 208 235 28 214 64 l 219 449 b 228 531 219 513 219 522 b 389 539 236 539 336 540 l 389 592 b 221 578 329 583 310 582 l 224 831 l 125 831 l 122 592 b 100 572 122 579 117 572 l 36 569 l 36 526 l 122 531 l 117 154 b 244 -17 115 25 157 -17 b 389 18 294 -17 332 -3 z "},"u":{"ha":772,"x_min":0,"x_max":0,"o":"m 60 536 l 131 529 l 131 206 b 313 -17 131 39 181 -17 b 532 28 424 -17 519 28 b 588 -14 553 28 542 -14 b 708 8 615 -14 676 1 l 708 50 l 639 50 l 639 600 l 450 583 l 450 536 b 539 496 532 535 539 531 l 539 100 b 524 46 539 60 533 51 b 385 19 508 36 450 19 b 231 167 264 19 231 58 l 231 600 l 60 583 z "},"v":{"ha":592,"x_min":0,"x_max":0,"o":"m 304 -25 l 496 431 b 588 544 536 526 540 535 l 588 586 l 446 586 l 446 539 b 500 526 492 539 500 533 b 481 472 500 519 485 482 l 328 100 l 204 433 b 169 536 199 449 169 528 b 228 547 169 543 183 547 l 228 586 l 17 586 l 17 547 b 76 496 54 544 57 542 l 283 -25 z "},"w":{"ha":926,"x_min":0,"x_max":0,"o":"m 908 586 l 775 586 l 775 542 b 831 529 814 539 831 535 b 819 486 831 515 824 494 l 664 103 l 535 467 b 522 518 528 488 522 504 b 592 547 522 536 533 544 l 592 586 l 358 586 l 358 547 b 425 497 401 546 407 546 l 451 425 l 319 103 l 189 479 b 175 526 176 514 175 518 b 225 547 175 538 179 547 l 225 586 l 28 586 l 28 547 b 83 490 58 540 65 540 l 272 -25 l 293 -25 l 467 385 l 618 -25 l 639 -25 l 842 463 b 908 539 868 528 871 536 z "},"x":{"ha":592,"x_min":0,"x_max":0,"o":"m 578 0 l 578 36 b 497 83 526 42 522 46 l 342 317 b 333 333 338 322 333 329 b 342 350 333 339 339 347 l 454 499 b 560 544 485 539 492 542 l 560 586 l 390 586 l 390 544 b 444 538 426 546 444 547 b 407 483 444 533 414 490 l 314 357 l 213 508 b 197 536 201 525 197 531 b 244 547 197 543 200 546 l 244 586 l 19 586 l 19 544 b 115 485 68 540 79 539 l 254 278 l 113 85 b 19 36 83 44 79 38 l 19 0 l 199 0 l 199 36 b 126 46 164 35 126 39 b 140 69 126 50 132 58 l 269 256 l 394 68 b 408 44 401 57 408 47 b 353 36 408 39 403 35 l 353 0 z "},"y":{"ha":592,"x_min":0,"x_max":0,"o":"m 585 586 l 446 586 l 446 542 b 499 526 493 538 499 532 b 472 451 499 517 489 492 l 328 100 l 181 490 b 171 525 174 508 171 518 b 250 547 171 549 226 544 l 250 586 l 17 586 l 17 547 b 90 454 54 542 56 542 l 278 -15 l 199 -193 b 124 -275 171 -257 154 -275 b 51 -265 113 -275 57 -265 b 29 -326 38 -265 29 -321 b 118 -361 29 -354 97 -360 b 169 -324 133 -362 154 -349 b 276 -89 183 -301 236 -179 l 518 485 b 585 542 538 532 544 539 z "},"z":{"ha":617,"x_min":0,"x_max":0,"o":"m 543 0 l 556 143 b 533 161 557 158 556 161 b 503 144 510 161 504 156 l 493 53 b 471 31 492 35 489 31 l 163 28 l 551 575 l 551 586 l 81 586 l 79 446 l 121 446 l 133 514 b 190 554 140 550 146 553 l 421 557 l 32 10 l 32 0 z "},"{":{"ha":489,"x_min":0,"x_max":0,"o":"m 26 339 b 183 128 153 306 183 261 l 183 22 b 419 -303 183 -183 222 -303 l 419 -275 b 242 -29 260 -258 242 -174 l 242 47 b 60 347 242 225 242 324 l 60 350 b 242 650 240 374 240 467 l 242 725 b 419 972 242 874 261 956 l 419 1000 b 183 675 222 1000 183 881 l 183 569 b 26 358 183 440 157 392 z "},"|":{"ha":308,"x_min":0,"x_max":0,"o":"m 125 -297 l 183 -297 l 183 1092 l 125 1092 z "},"}":{"ha":489,"x_min":0,"x_max":0,"o":"m 463 358 b 306 569 336 392 306 436 l 306 675 b 69 1000 306 881 267 1000 l 69 972 b 247 726 229 956 247 871 l 247 650 b 429 350 247 472 247 374 l 429 347 b 247 47 249 324 249 231 l 247 -28 b 69 -275 247 -176 228 -258 l 69 -303 b 306 22 267 -303 306 -183 l 306 128 b 463 339 306 257 332 306 z "},"~":{"ha":833,"x_min":0,"x_max":0,"o":"m 56 224 b 203 371 79 310 131 371 b 617 247 311 371 499 247 b 811 463 750 247 792 393 l 778 463 b 629 311 747 372 704 311 b 213 436 529 311 326 436 b 22 224 153 436 60 394 z "},"¡":{"ha":386,"x_min":0,"x_max":0,"o":"m 211 392 l 179 392 l 139 -306 l 253 -283 z m 126 542 b 193 475 126 504 156 475 b 260 542 231 475 260 504 b 193 608 260 578 231 608 b 126 542 156 608 126 578 z "},"¢":{"ha":694,"x_min":0,"x_max":0,"o":"m 257 119 b 175 331 208 165 175 235 b 388 600 175 507 286 600 b 461 564 429 600 450 589 z m 479 517 b 488 482 482 507 485 496 b 554 425 499 435 510 425 b 590 449 585 425 590 429 b 510 583 590 493 563 546 l 590 757 l 551 757 l 479 601 b 354 631 444 619 403 631 b 75 303 146 631 75 425 b 218 35 75 186 129 85 l 126 -161 l 165 -161 l 249 19 b 344 0 276 7 310 0 b 586 156 454 0 542 57 l 567 168 b 394 61 540 131 492 61 b 285 96 357 61 318 72 z "},"£":{"ha":694,"x_min":0,"x_max":0,"o":"m 26 475 l 167 475 b 194 282 188 376 194 333 b 151 114 194 261 194 175 b 26 26 60 107 26 61 b 69 -17 26 6 43 -17 b 171 82 131 -17 158 53 b 475 -17 296 79 360 -17 b 668 140 569 -17 647 44 l 599 181 b 461 56 585 85 503 56 b 185 114 388 56 278 110 b 264 394 228 185 264 253 b 257 475 264 436 261 453 l 439 475 l 439 514 l 251 514 b 210 764 240 600 210 675 b 389 967 210 911 294 967 b 581 822 464 967 542 926 l 626 889 b 392 997 568 963 476 997 b 126 719 257 997 126 914 b 157 514 126 644 139 589 l 26 514 z "},"⁄":{"ha":232,"x_min":0,"x_max":0,"o":"m -232 -17 l -168 -17 l 464 997 l 400 997 z "},"¥":{"ha":694,"x_min":0,"x_max":0,"o":"m 294 483 l 294 419 l 51 419 l 51 386 l 294 386 b 292 39 296 169 293 101 l 169 33 l 169 -3 b 347 0 229 -3 292 0 b 521 -3 400 0 457 -1 l 521 33 l 399 39 b 394 386 396 101 393 169 l 631 386 l 631 419 l 394 419 l 394 511 l 449 594 l 658 594 l 658 628 l 471 628 b 661 906 525 713 603 838 b 714 933 682 931 693 932 l 714 975 b 499 972 676 974 650 972 l 499 936 b 611 921 606 935 611 932 b 586 874 611 914 608 910 l 376 536 l 183 876 b 161 925 164 913 161 917 b 261 939 161 942 226 935 l 261 975 b 107 972 238 975 121 972 b -17 975 101 972 -3 975 l -17 939 b 35 921 10 936 22 933 b 213 628 65 888 183 676 l 24 628 l 24 594 l 232 594 z "},"ƒ":{"ha":694,"x_min":0,"x_max":0,"o":"m 193 513 l 329 513 l 265 3 b 228 -181 253 -93 235 -160 b 167 -240 214 -225 199 -240 b 8 -224 142 -240 18 -225 l -3 -296 b 86 -303 25 -300 51 -303 b 239 -235 111 -303 164 -303 b 379 90 317 -165 356 -90 l 432 513 l 579 513 l 579 567 l 439 567 l 454 694 b 500 926 463 763 476 871 b 567 967 517 965 540 967 b 678 958 593 967 650 961 l 693 1029 b 646 1032 681 1031 667 1032 b 447 919 615 1032 538 1032 b 336 567 369 825 357 724 l 193 567 z "},"§":{"ha":694,"x_min":0,"x_max":0,"o":"m 404 -172 b 457 -17 435 -135 457 -81 b 201 761 457 226 201 513 b 369 978 201 886 271 978 b 458 929 428 978 458 938 b 421 783 458 924 421 831 b 450 747 421 758 433 747 b 510 846 486 747 510 797 b 367 997 510 919 458 997 b 168 744 244 997 168 865 b 422 -40 168 490 422 179 b 392 -161 422 -79 414 -126 z m 278 864 b 258 769 264 832 258 801 b 517 -6 258 540 517 263 b 328 -258 517 -115 463 -258 b 225 -204 275 -258 225 -232 b 274 -50 225 -174 274 -103 b 243 -19 274 -24 253 -19 b 178 -126 197 -19 178 -78 b 328 -278 178 -226 249 -278 b 551 22 478 -278 551 -115 b 288 799 551 297 288 582 b 294 860 288 810 289 840 z "},"¤":{"ha":694,"x_min":0,"x_max":0,"o":"m 524 492 b 347 315 524 394 444 315 b 171 492 250 315 171 394 b 347 668 171 589 250 668 b 524 492 444 668 524 589 z m 168 646 b 111 492 146 617 111 574 b 168 338 111 410 146 367 l 88 257 l 111 233 l 192 313 b 347 256 222 290 267 256 b 503 313 428 256 472 290 l 583 233 l 607 257 l 526 338 b 583 492 549 367 583 410 b 526 646 583 574 549 617 l 607 726 l 583 750 l 503 669 b 347 728 472 693 428 728 b 192 669 267 728 222 693 l 111 750 l 88 726 z "},"'":{"ha":308,"x_min":0,"x_max":0,"o":"m 164 582 l 196 878 b 200 938 199 897 200 918 b 154 997 200 974 185 997 b 110 938 124 997 110 975 b 113 878 110 918 110 897 l 144 582 z "},"“":{"ha":565,"x_min":0,"x_max":0,"o":"m 238 778 b 147 842 200 785 147 793 b 249 1013 147 890 232 993 l 231 1031 b 60 779 224 1025 60 850 b 200 688 60 731 133 699 z m 496 778 b 404 842 457 785 404 793 b 506 1013 404 890 489 993 l 488 1031 b 318 779 482 1025 318 850 b 457 688 318 731 390 699 z "},"«":{"ha":668,"x_min":0,"x_max":0,"o":"m 83 289 b 294 89 114 261 261 121 b 315 78 301 82 308 78 b 328 90 321 78 328 82 b 182 293 328 106 232 233 b 328 497 232 356 328 482 b 315 510 328 506 321 510 b 294 499 308 510 301 506 b 83 299 264 469 118 329 z m 315 289 b 526 89 346 261 492 121 b 546 78 533 82 539 78 b 560 90 553 78 560 82 b 414 293 560 106 463 233 b 560 497 464 356 560 482 b 546 510 560 506 553 510 b 526 499 539 510 533 506 b 315 299 496 469 349 329 z "},"‹":{"ha":438,"x_min":0,"x_max":0,"o":"m 83 289 b 294 89 114 261 261 121 b 315 78 301 82 308 78 b 328 90 321 78 328 82 b 182 293 328 106 232 233 b 328 497 232 356 328 482 b 315 510 328 506 321 510 b 294 499 308 510 301 506 b 83 299 264 469 118 329 z "},"›":{"ha":438,"x_min":0,"x_max":0,"o":"m 354 299 b 143 499 324 326 176 467 b 122 510 136 504 129 510 b 110 497 117 510 110 506 b 256 293 110 482 206 354 b 110 90 204 232 110 106 b 122 78 110 82 115 78 b 143 89 129 78 135 82 b 354 289 174 117 319 258 z "},"–":{"ha":694,"x_min":0,"x_max":0,"o":"m 694 260 l 694 326 l 0 326 l 0 260 z "},"†":{"ha":694,"x_min":0,"x_max":0,"o":"m 496 622 b 483 576 492 614 483 596 b 510 542 483 553 496 542 b 539 581 526 542 539 557 b 361 675 539 642 467 672 b 393 789 382 721 393 753 b 364 897 393 825 382 860 b 404 947 401 910 404 935 b 346 997 404 965 393 997 b 290 947 307 997 290 971 b 331 897 290 935 293 910 b 301 789 313 860 301 825 b 333 675 301 753 313 721 b 156 581 228 672 156 642 b 185 542 156 557 168 542 b 211 576 199 542 211 553 b 199 622 211 593 204 610 z m 358 -75 l 399 578 l 296 578 l 336 -75 z "},"‡":{"ha":694,"x_min":0,"x_max":0,"o":"m 336 482 l 358 482 l 390 750 l 475 750 b 471 721 474 744 471 731 b 500 685 471 690 492 685 b 526 715 508 685 526 689 b 367 797 526 757 469 797 b 382 857 378 828 382 838 b 364 921 382 879 375 894 b 386 958 369 924 386 933 b 347 997 386 979 374 997 b 308 958 322 997 308 979 b 331 921 308 933 325 924 b 313 857 319 894 313 879 b 328 797 313 838 317 828 b 169 715 229 797 169 760 b 194 685 169 692 183 685 b 224 721 201 685 224 690 b 219 750 224 731 221 744 l 304 750 z m 304 167 l 219 167 b 224 196 221 172 224 186 b 194 232 224 226 201 232 b 169 203 183 232 169 225 b 328 119 169 157 229 119 b 313 60 317 90 313 79 b 331 -4 313 38 319 24 b 308 -40 325 -7 308 -15 b 347 -79 308 -62 322 -79 b 386 -40 374 -79 386 -62 b 364 -4 386 -15 369 -7 b 382 60 375 24 382 38 b 367 119 382 79 378 90 b 526 201 469 119 526 160 b 500 232 526 228 508 232 b 471 196 492 232 471 226 b 475 167 471 186 474 172 l 390 167 l 358 436 l 336 436 z "},"·":{"ha":347,"x_min":0,"x_max":0,"o":"m 240 293 b 174 360 240 331 211 360 b 107 293 136 360 107 331 b 174 226 107 257 136 226 b 240 293 211 226 240 257 z "},"¶":{"ha":721,"x_min":0,"x_max":0,"o":"m 550 -306 l 550 933 l 644 933 l 644 972 l 517 972 l 517 -264 l 403 -264 l 403 -306 z m 411 967 b 42 601 203 935 42 804 b 411 235 42 397 203 267 z "},"•":{"ha":694,"x_min":0,"x_max":0,"o":"m 599 486 b 347 738 599 625 486 738 b 96 486 208 738 96 625 b 347 235 96 347 208 235 b 599 486 486 235 599 347 z "},"‚":{"ha":308,"x_min":0,"x_max":0,"o":"m 71 19 b 161 -44 108 13 161 3 b 60 -215 161 -92 85 -185 l 78 -235 b 249 18 90 -222 249 -51 b 108 110 249 67 172 99 z "},"„":{"ha":565,"x_min":0,"x_max":0,"o":"m 71 19 b 161 -44 108 13 161 3 b 60 -215 161 -92 85 -185 l 78 -235 b 249 18 90 -222 249 -51 b 108 110 249 67 172 99 z m 328 19 b 418 -44 365 13 418 3 b 318 -215 418 -92 342 -185 l 335 -235 b 506 18 347 -222 506 -51 b 365 110 506 67 429 99 z "},"”":{"ha":565,"x_min":0,"x_max":0,"o":"m 71 906 b 161 843 108 900 161 890 b 60 672 161 794 85 701 l 78 653 b 249 906 90 665 249 835 b 108 997 249 954 172 985 z m 328 906 b 418 843 365 900 418 890 b 318 672 418 794 342 701 l 335 653 b 506 906 347 665 506 835 b 365 997 506 954 429 985 z "},"»":{"ha":668,"x_min":0,"x_max":0,"o":"m 354 299 b 143 499 324 326 176 467 b 122 510 136 504 129 510 b 110 497 117 510 110 506 b 256 293 110 482 206 354 b 110 90 204 232 110 106 b 122 78 110 82 115 78 b 143 89 129 78 135 82 b 354 289 174 117 319 258 z m 585 299 b 375 499 554 326 408 467 b 354 510 367 504 361 510 b 340 497 347 510 340 506 b 486 293 340 482 438 354 b 340 90 436 232 340 106 b 354 78 340 82 347 78 b 375 89 361 78 367 82 b 585 289 404 117 551 258 z "},"…":{"ha":1389,"x_min":0,"x_max":0,"o":"m 299 50 b 232 117 299 88 269 117 b 165 50 194 117 165 88 b 232 -17 165 14 194 -17 b 299 50 269 -17 299 14 z m 761 50 b 694 117 761 88 732 117 b 628 50 657 117 628 88 b 694 -17 628 14 657 -17 b 761 50 732 -17 761 14 z m 1224 50 b 1157 117 1224 88 1194 117 b 1090 50 1119 117 1090 88 b 1157 -17 1090 14 1119 -17 b 1224 50 1194 -17 1224 14 z "},"‰":{"ha":1543,"x_min":0,"x_max":0,"o":"m 1179 10 b 1458 317 1317 10 1458 175 b 1325 456 1458 390 1421 456 b 1031 167 1201 456 1031 332 b 1179 10 1031 63 1110 10 z m 1188 40 b 1101 122 1140 40 1101 72 b 1342 419 1101 231 1240 419 b 1426 317 1376 419 1426 397 b 1188 40 1426 188 1285 40 z m 251 -17 l 878 997 l 831 997 b 569 889 797 967 711 889 b 503 894 546 889 528 892 b 383 971 490 919 463 971 b 85 683 251 971 85 842 b 238 524 85 578 163 524 b 513 863 351 524 525 671 b 572 858 535 860 551 858 b 758 911 669 858 718 885 l 761 908 l 189 -17 z m 157 640 b 396 935 157 719 268 917 b 478 871 432 886 461 876 b 482 832 481 858 482 847 b 240 554 482 704 346 554 b 157 640 194 554 157 589 z m 692 10 b 971 317 829 10 971 175 b 838 456 971 390 933 456 b 543 167 714 456 543 332 b 692 10 543 63 622 10 z m 701 40 b 615 122 654 40 615 72 b 856 419 615 231 754 419 b 940 317 890 419 940 397 b 701 40 940 188 799 40 z "},"¿":{"ha":540,"x_min":0,"x_max":0,"o":"m 364 386 l 335 386 l 329 179 b 64 -126 167 78 64 -12 b 288 -306 64 -233 156 -306 b 456 -271 333 -306 414 -292 l 468 -161 b 290 -206 433 -178 371 -206 b 147 -96 217 -206 147 -172 b 374 164 147 0 240 67 z m 282 542 b 349 475 282 504 311 475 b 415 542 386 475 415 504 b 349 608 415 578 386 608 b 282 542 311 608 282 578 z "},"`":{"ha":386,"x_min":0,"x_max":0,"o":"m 260 679 l 293 679 l 90 882 b 33 915 71 903 57 915 b -11 872 13 915 -11 900 b 22 825 -11 849 3 836 z "},"´":{"ha":386,"x_min":0,"x_max":0,"o":"m 126 679 l 364 825 b 396 872 383 836 396 849 b 353 915 396 896 378 915 b 296 882 328 915 310 897 l 93 679 z "},"ˆ":{"ha":386,"x_min":0,"x_max":0,"o":"m 193 826 l 371 679 l 401 679 l 228 913 l 157 913 l -15 679 l 15 679 z "},"˜":{"ha":386,"x_min":0,"x_max":0,"o":"m 388 858 b 303 786 376 833 356 786 b 215 819 276 786 247 803 b 107 853 183 836 147 853 b -31 717 53 853 -8 811 l -1 717 b 79 781 8 740 25 781 b 171 749 111 781 140 764 b 271 717 201 732 233 717 b 417 858 379 717 408 828 z "},"¯":{"ha":386,"x_min":0,"x_max":0,"o":"m -17 739 l 403 739 l 403 806 l -17 806 z "},"˘":{"ha":386,"x_min":0,"x_max":0,"o":"m 3 896 b 193 679 4 828 21 679 b 383 896 340 679 382 788 l 351 896 b 193 758 336 810 283 758 b 35 896 103 758 50 810 z "},"˙":{"ha":386,"x_min":0,"x_max":0,"o":"m 132 765 b 188 706 132 733 153 706 b 254 778 224 706 254 738 b 197 836 254 815 226 836 b 132 765 164 836 132 811 z "},"¨":{"ha":386,"x_min":0,"x_max":0,"o":"m 118 776 b 64 833 118 814 92 833 b 0 765 31 833 0 811 b 54 707 0 742 22 707 b 118 776 89 707 118 739 z m 386 776 b 332 833 386 814 360 833 b 268 765 299 833 268 811 b 322 707 268 742 290 707 b 386 776 357 707 386 739 z "},"˚":{"ha":386,"x_min":0,"x_max":0,"o":"m 328 804 b 193 939 328 879 268 939 b 58 804 118 939 58 879 b 193 669 58 731 118 669 b 328 804 268 669 328 731 z m 286 804 b 193 711 286 753 244 711 b 100 804 142 711 100 753 b 193 897 100 856 142 897 b 286 804 244 897 286 856 z "},"¸":{"ha":386,"x_min":0,"x_max":0,"o":"m 167 0 l 107 -137 l 122 -146 b 167 -133 135 -140 147 -133 b 236 -196 204 -133 236 -157 b 147 -264 236 -215 225 -264 b 60 -247 110 -264 81 -254 l 50 -276 b 165 -300 89 -293 125 -300 b 328 -185 265 -300 328 -256 b 215 -86 328 -125 282 -86 b 157 -97 188 -86 169 -92 l 199 0 z "},"˝":{"ha":386,"x_min":0,"x_max":0,"o":"m -6 668 l 29 668 l 253 825 b 285 872 275 840 285 850 b 242 915 285 894 268 915 b 185 881 225 915 213 911 z m 238 679 l 475 825 b 507 872 494 836 507 850 b 464 915 507 897 488 915 b 407 882 439 915 422 899 l 203 679 z "},"˛":{"ha":386,"x_min":0,"x_max":0,"o":"m 328 17 b 25 -193 53 -33 25 -144 b 149 -300 25 -256 74 -300 b 354 -222 226 -300 290 -261 l 339 -196 b 194 -242 307 -212 250 -242 b 114 -175 163 -242 114 -226 b 328 3 114 -71 285 -12 z "},"ˇ":{"ha":386,"x_min":0,"x_max":0,"o":"m 193 765 l 15 913 l -15 913 l 157 679 l 228 679 l 401 913 l 371 913 z "},"—":{"ha":1389,"x_min":0,"x_max":0,"o":"m 1208 260 l 1208 326 l 181 326 l 181 260 z "},"Æ":{"ha":1286,"x_min":0,"x_max":0,"o":"m 558 456 b 557 39 558 372 558 97 l 460 33 l 460 -3 b 782 0 533 0 567 0 l 1192 0 l 1208 253 l 1167 253 l 1100 31 l 761 31 b 685 89 714 31 690 39 b 681 494 681 124 681 347 b 890 489 731 494 846 496 b 925 318 911 486 925 453 l 974 318 b 969 482 969 361 969 406 b 978 704 969 601 972 663 l 931 704 b 899 546 928 682 925 567 b 681 525 872 526 724 525 l 681 944 l 922 943 b 1111 761 1090 942 1100 928 l 1156 761 l 1156 975 b 732 972 1017 974 869 972 l 610 972 b 421 975 583 972 450 975 l 421 939 b 529 931 511 936 529 938 b 100 185 529 922 175 307 b -57 39 22 57 3 42 l -57 -3 b 182 0 -1 0 121 0 l 182 36 b 76 49 89 36 76 38 b 121 135 76 56 104 107 l 300 456 z m 318 489 l 544 889 l 557 889 b 558 489 557 756 558 622 z "},"ª":{"ha":463,"x_min":0,"x_max":0,"o":"m 396 663 l 349 663 l 350 918 b 264 997 350 969 328 997 b 125 964 214 997 156 979 b 81 907 99 951 81 940 b 101 874 81 889 86 874 b 140 896 118 874 139 889 b 151 956 143 910 147 929 b 222 964 153 963 175 964 b 279 917 268 964 279 956 l 278 814 b 60 696 163 807 60 776 b 140 618 60 650 96 618 b 274 667 203 618 269 667 b 282 650 279 667 282 663 b 311 622 282 633 294 622 b 396 640 328 622 375 635 z m 276 701 b 261 676 276 683 275 682 b 174 654 256 675 211 654 b 129 703 143 654 129 674 b 267 794 129 782 258 794 b 276 781 275 794 278 793 z "},"Ł":{"ha":849,"x_min":0,"x_max":0,"o":"m 829 267 l 786 267 l 708 38 b 574 33 671 36 633 33 b 338 42 557 33 376 36 b 294 90 306 44 299 64 b 292 478 293 107 292 136 l 535 633 l 535 683 l 292 528 l 292 661 b 296 933 292 842 293 858 l 408 939 l 408 975 b 236 972 376 975 322 972 b 61 975 147 972 96 975 l 61 939 l 168 933 b 169 449 171 863 169 814 l 40 365 l 40 315 l 169 399 l 169 311 b 168 39 169 131 171 114 l 50 33 l 50 -3 b 256 0 89 -3 136 0 b 801 -3 571 0 606 0 z "},"Ø":{"ha":1106,"x_min":0,"x_max":0,"o":"m 289 150 b 188 478 226 231 188 343 b 563 967 188 857 422 967 b 778 876 639 967 717 936 z m 814 838 b 919 497 878 760 919 646 b 564 6 919 240 786 6 b 325 110 476 6 392 43 z m 285 49 b 551 -25 354 3 444 -25 b 1047 503 867 -25 1047 232 b 861 907 1047 669 983 818 l 964 1061 l 901 1061 l 817 935 b 561 997 746 975 661 997 b 60 475 232 997 60 744 b 242 79 60 326 121 176 l 106 -122 l 169 -122 z "},"Œ":{"ha":1440,"x_min":0,"x_max":0,"o":"m 1321 976 b 936 972 1206 974 968 972 b 771 978 867 972 814 974 b 532 994 692 985 578 994 b 58 488 225 994 58 747 b 528 -25 58 188 256 -25 b 747 -6 571 -25 674 -12 b 947 0 808 0 888 0 l 1357 0 l 1374 253 l 1332 253 l 1265 31 l 925 31 b 850 89 875 31 854 44 b 847 493 847 124 847 347 b 1071 483 896 493 1056 493 b 1090 318 1079 478 1083 472 l 1136 318 b 1135 482 1135 361 1135 406 b 1142 704 1135 601 1138 663 l 1096 704 b 1064 546 1090 649 1089 564 b 847 524 1038 526 889 524 l 847 942 l 1122 942 b 1276 761 1256 942 1264 929 l 1321 761 z m 186 485 b 546 964 186 782 336 964 b 717 917 607 964 701 954 b 725 664 725 900 725 699 b 722 60 725 619 725 78 b 558 6 714 8 600 6 b 186 485 328 6 186 206 z "},"º":{"ha":463,"x_min":0,"x_max":0,"o":"m 42 804 b 232 618 42 679 139 618 b 421 817 353 618 421 714 b 239 997 421 892 383 997 b 42 804 151 997 42 951 z m 125 807 b 239 969 125 939 190 969 b 338 808 311 969 338 904 b 232 646 338 721 314 646 b 125 807 156 646 125 718 z "},"æ":{"ha":926,"x_min":0,"x_max":0,"o":"m 389 114 b 379 81 389 90 386 85 b 239 31 372 76 303 31 b 144 119 192 31 144 58 b 382 300 144 249 315 300 b 392 278 389 300 392 299 z m 540 333 b 496 332 535 332 499 331 b 489 356 492 333 489 336 b 665 578 489 486 568 578 b 783 400 749 578 783 501 b 744 342 783 344 782 342 z m 392 322 b 50 115 263 314 50 292 b 192 -22 50 32 111 -22 b 426 90 301 -22 424 90 b 440 76 429 90 436 82 b 642 -22 490 15 564 -22 b 876 135 793 -22 853 89 l 856 147 b 682 44 828 106 785 44 b 486 281 568 44 486 128 b 506 301 486 299 492 301 l 810 314 b 865 319 831 314 857 317 b 878 388 874 322 878 365 b 656 608 878 508 792 608 b 496 553 604 608 540 593 b 479 538 488 546 481 538 b 468 550 476 538 469 549 b 346 608 443 592 401 608 b 118 528 242 608 150 554 b 83 449 101 514 83 493 b 110 403 83 413 94 403 b 161 440 118 403 143 406 b 175 531 167 451 172 517 b 289 564 179 549 256 564 b 396 471 368 564 397 540 z "},"ı":{"ha":386,"x_min":0,"x_max":0,"o":"m 72 0 l 324 0 l 324 33 l 250 35 l 250 600 l 79 578 l 79 536 b 150 493 146 532 150 529 l 150 35 l 72 33 z "},"ł":{"ha":386,"x_min":0,"x_max":0,"o":"m 244 546 l 367 624 l 367 665 l 244 588 l 244 747 b 246 1036 244 843 246 940 b 42 1019 214 1033 74 1021 l 42 975 b 133 969 57 974 128 974 b 144 843 144 961 144 865 l 144 525 l 18 444 l 18 403 l 144 483 l 144 35 l 53 33 l 53 0 l 319 0 l 319 33 l 244 35 z "},"ø":{"ha":694,"x_min":0,"x_max":0,"o":"m 203 110 b 161 292 175 161 161 225 b 358 578 161 513 285 578 b 469 521 403 578 440 557 z m 494 482 b 533 294 519 435 533 368 b 347 8 533 147 475 8 b 229 69 300 8 260 32 z m 597 719 l 504 575 b 360 608 465 596 418 608 b 56 286 224 608 56 533 b 161 44 56 175 99 93 l 36 -149 l 88 -149 l 196 19 b 349 -22 242 -8 296 -22 b 639 308 535 -22 639 138 b 539 550 639 388 615 489 l 649 719 z "},"œ":{"ha":1106,"x_min":0,"x_max":0,"o":"m 161 292 b 358 578 161 513 285 578 b 533 294 471 578 533 453 b 347 8 533 147 475 8 b 161 292 231 8 161 144 z m 1017 368 b 1044 397 1042 368 1044 376 b 817 608 1044 450 1000 608 b 590 492 717 608 640 561 b 360 608 550 558 479 608 b 56 286 224 608 56 533 b 349 -22 56 79 204 -22 b 579 101 453 -22 532 28 b 811 -22 629 24 715 -22 b 1046 135 961 -22 1021 89 l 1025 147 b 851 44 997 107 953 44 b 619 313 700 44 619 186 b 644 368 619 364 626 368 z m 651 399 b 636 406 642 399 636 401 b 822 578 636 439 701 578 b 950 415 935 578 950 446 b 919 399 950 403 944 399 z "},"ß":{"ha":721,"x_min":0,"x_max":0,"o":"m 56 0 l 286 0 l 286 33 l 233 35 l 233 694 b 364 1000 233 950 261 1000 b 501 806 450 1000 501 931 b 360 601 501 708 469 613 b 308 581 313 596 308 592 b 381 558 308 571 313 567 b 563 265 510 542 563 451 b 451 11 563 136 531 11 b 404 65 419 11 404 35 b 407 107 404 71 407 100 b 364 140 407 133 393 140 b 321 113 333 140 321 135 b 454 -14 321 36 379 -14 b 664 276 554 -14 664 86 b 429 572 664 500 519 544 b 411 583 414 576 411 579 b 428 594 411 589 418 590 b 601 806 469 608 601 651 b 369 1031 601 932 513 1031 b 133 706 192 1031 133 933 l 133 35 l 56 33 z "},"¬":{"ha":833,"x_min":0,"x_max":0,"o":"m 74 446 l 699 446 l 699 179 l 758 179 l 758 506 l 74 506 z "},"µ":{"ha":772,"x_min":0,"x_max":0,"o":"m 60 536 l 131 529 l 131 -332 b 144 -361 131 -351 133 -361 l 208 -361 b 229 -339 226 -361 229 -357 l 229 -22 b 236 -1 229 -4 232 -1 b 267 -8 242 -1 253 -6 b 313 -17 281 -12 297 -17 b 532 28 424 -17 519 28 b 588 -14 553 28 542 -14 b 708 8 615 -14 676 1 l 708 50 l 639 50 l 639 600 l 450 583 l 450 536 b 539 496 532 535 539 531 l 539 100 b 524 46 539 60 533 51 b 385 19 508 36 450 19 b 231 167 264 19 231 58 l 231 600 l 60 583 z "},"™":{"ha":1260,"x_min":0,"x_max":0,"o":"m 29 838 b 60 936 35 864 49 925 b 135 950 67 943 74 950 l 211 950 b 211 451 214 876 214 525 l 154 449 l 154 424 b 251 426 178 425 200 426 b 347 424 301 426 324 425 l 347 449 l 290 451 b 290 950 288 532 288 869 l 396 950 b 463 942 414 950 457 950 b 472 840 465 935 471 856 l 499 840 l 506 972 l 226 971 l 10 972 l 0 838 z m 1199 449 l 1139 451 b 1133 944 1136 600 1133 799 l 1196 947 l 1196 972 b 1046 971 1115 971 1106 971 l 863 521 l 667 972 b 600 971 650 972 629 971 b 528 972 571 971 547 972 l 528 947 l 579 944 b 581 451 582 767 582 597 l 521 449 l 521 424 b 606 426 569 425 588 426 b 678 424 636 426 661 425 l 678 449 l 610 451 l 604 917 l 607 919 l 833 417 l 846 417 l 1054 931 l 1057 931 b 1060 714 1057 900 1060 749 b 1058 451 1061 653 1060 614 l 999 449 l 999 424 b 1096 426 1028 425 1065 426 b 1199 424 1128 426 1167 425 z "},"Ð":{"ha":1106,"x_min":0,"x_max":0,"o":"m 44 478 l 181 478 l 181 311 b 176 39 181 161 179 114 l 74 33 l 74 -3 b 233 0 126 -1 169 0 b 478 -3 268 0 439 -3 b 1047 493 794 -3 1047 147 b 536 983 1047 811 825 983 b 74 972 457 983 144 972 l 74 936 l 176 933 b 181 519 179 863 181 815 l 44 519 z m 639 519 l 303 519 b 304 906 303 708 303 878 b 314 940 306 931 307 936 b 403 950 328 946 368 950 b 919 481 693 950 919 801 b 511 28 919 233 778 28 b 311 53 431 28 319 36 b 303 276 303 67 303 257 l 303 478 l 639 478 z "},"½":{"ha":1157,"x_min":0,"x_max":0,"o":"m 203 -17 l 267 -17 l 899 997 l 835 997 z m 1075 0 l 1086 149 l 1058 149 l 1046 89 l 801 89 b 1064 432 876 165 1064 310 b 881 581 1064 513 996 581 b 732 553 822 581 774 565 l 715 465 b 717 453 714 458 713 453 b 747 464 718 453 744 463 b 871 492 767 471 819 492 b 983 396 936 492 983 453 b 696 17 983 293 754 79 l 696 -1 b 924 0 747 0 765 0 z m 100 417 b 247 419 142 418 194 419 b 400 417 301 419 356 418 l 400 447 l 297 454 l 300 993 l 106 978 l 106 938 l 207 936 l 207 649 b 204 454 207 615 206 599 l 100 447 z "},"±":{"ha":833,"x_min":0,"x_max":0,"o":"m 386 111 l 446 111 l 446 368 l 758 368 l 758 428 l 446 428 l 446 685 l 386 685 l 386 428 l 74 428 l 74 368 l 386 368 z m 74 0 l 758 0 l 758 60 l 74 60 z "},"Þ":{"ha":824,"x_min":0,"x_max":0,"o":"m 408 33 l 296 39 b 292 233 294 67 293 93 l 406 233 b 761 503 614 233 761 322 b 479 753 761 617 678 753 b 344 747 460 753 403 750 b 293 744 322 746 300 744 b 296 933 293 858 294 882 l 408 939 l 408 975 b 232 972 350 974 308 972 b 65 975 154 972 111 974 l 65 939 l 168 933 b 169 311 171 842 169 789 b 168 39 169 131 171 114 l 65 33 l 65 -3 b 232 0 113 -1 154 0 b 408 -3 308 0 353 -1 z m 292 717 b 321 719 297 718 308 719 b 644 494 479 719 644 692 b 379 264 644 332 528 264 b 292 267 353 264 332 265 z "},"¼":{"ha":1157,"x_min":0,"x_max":0,"o":"m 857 0 l 953 0 l 953 190 l 1054 190 l 1054 263 l 954 261 l 956 593 l 938 593 l 585 215 l 585 190 l 861 190 z m 863 260 l 663 258 l 868 479 z m 203 -17 l 267 -17 l 899 997 l 835 997 z m 100 417 b 247 419 142 418 194 419 b 400 417 301 419 356 418 l 400 447 l 297 454 l 300 993 l 106 978 l 106 938 l 207 936 l 207 649 b 204 454 207 615 206 599 l 100 447 z "},"÷":{"ha":833,"x_min":0,"x_max":0,"o":"m 74 313 l 758 313 l 758 372 l 74 372 z m 475 586 b 417 644 475 618 449 644 b 358 586 385 644 358 618 b 417 528 358 554 385 528 b 475 586 449 528 475 554 z m 475 99 b 417 157 475 131 449 157 b 358 99 385 157 358 131 b 417 40 358 67 385 40 b 475 99 449 40 475 67 z "},"¦":{"ha":308,"x_min":0,"x_max":0,"o":"m 125 -124 l 183 -124 l 183 224 l 125 224 z m 125 571 l 183 571 l 183 918 l 125 918 z "},"°":{"ha":556,"x_min":0,"x_max":0,"o":"m 278 997 b 83 803 171 997 83 910 b 278 610 83 697 171 610 b 472 803 385 610 472 697 b 278 997 472 910 385 997 z m 278 953 b 428 803 360 953 428 886 b 278 654 428 721 360 654 b 128 803 196 654 128 721 b 278 953 128 886 196 953 z "},"þ":{"ha":721,"x_min":0,"x_max":0,"o":"m 38 -328 l 38 -361 l 318 -361 l 318 -328 l 222 -326 l 222 7 b 358 -17 254 -3 301 -17 b 663 301 525 -17 663 96 b 407 603 663 500 531 603 b 235 556 314 603 244 556 b 222 569 226 556 222 561 l 222 760 b 225 1035 222 799 225 992 b 21 1014 101 1019 82 1017 l 21 971 l 121 969 b 122 750 121 896 122 824 l 122 -90 b 119 -326 122 -124 119 -289 z m 222 497 b 236 535 222 519 228 531 b 342 556 256 544 313 556 b 558 294 438 556 558 481 b 296 17 558 117 461 17 b 222 24 258 17 242 19 z "},"¾":{"ha":1157,"x_min":0,"x_max":0,"o":"m 857 0 l 953 0 l 953 190 l 1054 190 l 1054 263 l 954 261 l 956 593 l 938 593 l 585 215 l 585 190 l 861 190 z m 863 260 l 663 258 l 868 479 z m 200 -17 l 264 -17 l 896 997 l 832 997 z m 86 885 b 238 925 126 901 182 925 b 331 857 310 925 331 885 b 146 722 331 783 179 733 b 118 704 124 715 118 714 b 147 692 118 693 132 692 b 339 586 269 692 339 661 b 122 433 339 528 278 465 b 96 417 101 428 96 425 b 110 403 96 408 101 403 b 428 614 211 403 426 489 b 275 749 429 683 375 731 l 275 751 b 406 886 307 764 406 804 b 244 997 406 935 365 997 b 99 972 182 997 128 981 z "},"®":{"ha":1111,"x_min":0,"x_max":0,"o":"m 1067 485 b 556 997 1067 768 838 997 b 44 485 274 997 44 768 b 556 -25 44 203 274 -25 b 1067 485 838 -25 1067 203 z m 1028 485 b 556 14 1028 225 815 14 b 83 485 296 14 83 225 b 556 958 83 746 296 958 b 1028 485 815 958 1028 746 z m 322 742 b 393 689 386 736 393 735 l 393 299 b 322 246 393 253 386 251 l 322 224 l 553 224 l 553 246 b 481 299 489 251 481 253 l 481 463 l 557 463 b 740 224 657 317 690 224 l 826 224 l 826 236 b 711 360 797 254 750 307 l 626 476 b 744 629 693 499 744 553 b 574 761 744 721 661 761 l 322 761 z m 481 735 l 544 735 b 657 624 604 735 657 707 b 549 488 657 540 621 488 l 481 488 z "},"−":{"ha":833,"x_min":0,"x_max":0,"o":"m 758 372 l 74 372 l 74 313 l 758 313 z "},"ð":{"ha":694,"x_min":0,"x_max":0,"o":"m 331 800 l 440 618 b 451 596 450 603 451 600 b 444 592 451 592 449 592 b 415 597 442 592 439 592 b 336 608 401 601 374 608 b 56 292 193 608 56 501 b 349 -22 56 65 218 -22 b 639 311 528 -22 639 129 b 415 835 639 510 515 674 l 603 910 l 589 943 l 396 865 l 288 1036 l 203 1003 l 311 831 l 117 753 l 129 719 z m 161 292 b 358 578 161 513 285 578 b 533 294 471 578 533 453 b 347 8 533 147 475 8 b 161 292 231 8 161 144 z "},"×":{"ha":833,"x_min":0,"x_max":0,"o":"m 96 64 l 138 21 l 417 300 l 696 21 l 738 64 l 458 343 l 738 621 l 696 664 l 417 385 l 138 664 l 96 621 l 375 343 z "},"©":{"ha":1111,"x_min":0,"x_max":0,"o":"m 764 375 b 574 238 743 336 690 238 b 361 483 504 238 361 278 b 563 753 361 631 440 753 b 749 563 704 753 738 610 l 772 563 l 767 763 l 744 763 b 718 729 742 750 738 729 b 554 778 696 729 646 778 b 275 482 415 778 275 664 b 551 204 275 303 418 204 b 786 364 701 204 761 313 z m 1067 485 b 556 997 1067 768 838 997 b 44 485 274 997 44 768 b 556 -25 44 203 274 -25 b 1067 485 838 -25 1067 203 z m 1028 485 b 556 14 1028 225 815 14 b 83 485 296 14 83 225 b 556 958 83 746 296 958 b 1028 485 815 958 1028 746 z "},"Á":{"ha":849,"x_min":0,"x_max":0,"o":"m 864 39 b 803 58 814 42 807 49 b 650 438 783 94 750 181 l 439 997 l 418 997 l 183 361 b 75 88 103 144 88 117 b -19 39 58 49 53 44 l -19 -3 b 82 0 7 -3 33 0 b 208 -3 126 0 174 -3 l 208 33 l 140 38 b 114 50 121 39 114 42 b 128 99 114 57 122 82 l 222 369 b 253 396 229 389 238 396 l 503 396 b 546 368 532 396 536 393 l 647 92 b 658 56 651 82 658 61 b 615 39 658 44 653 42 l 549 33 l 549 -3 b 725 0 649 -1 685 0 b 864 -3 790 0 829 -3 z m 274 429 b 249 436 256 429 249 432 b 257 465 249 443 254 454 l 372 769 b 386 792 378 785 381 792 b 397 772 390 792 393 783 l 513 460 b 519 438 517 450 519 440 b 504 429 519 433 515 429 z m 364 1068 l 601 1214 b 633 1261 621 1225 633 1238 b 590 1304 633 1285 615 1304 b 533 1271 565 1304 547 1286 l 331 1068 z "},"Â":{"ha":849,"x_min":0,"x_max":0,"o":"m 864 39 b 803 58 814 42 807 49 b 650 438 783 94 750 181 l 439 997 l 418 997 l 183 361 b 75 88 103 144 88 117 b -19 39 58 49 53 44 l -19 -3 b 82 0 7 -3 33 0 b 208 -3 126 0 174 -3 l 208 33 l 140 38 b 114 50 121 39 114 42 b 128 99 114 57 122 82 l 222 369 b 253 396 229 389 238 396 l 503 396 b 546 368 532 396 536 393 l 647 92 b 658 56 651 82 658 61 b 615 39 658 44 653 42 l 549 33 l 549 -3 b 725 0 649 -1 685 0 b 864 -3 790 0 829 -3 z m 274 429 b 249 436 256 429 249 432 b 257 465 249 443 254 454 l 372 769 b 386 792 378 785 381 792 b 397 772 390 792 393 783 l 513 460 b 519 438 517 450 519 440 b 504 429 519 433 515 429 z m 439 1215 l 617 1068 l 647 1068 l 474 1301 l 403 1301 l 231 1068 l 261 1068 z "},"Ä":{"ha":849,"x_min":0,"x_max":0,"o":"m 864 39 b 803 58 814 42 807 49 b 650 438 783 94 750 181 l 439 997 l 418 997 l 183 361 b 75 88 103 144 88 117 b -19 39 58 49 53 44 l -19 -3 b 82 0 7 -3 33 0 b 208 -3 126 0 174 -3 l 208 33 l 140 38 b 114 50 121 39 114 42 b 128 99 114 57 122 82 l 222 369 b 253 396 229 389 238 396 l 503 396 b 546 368 532 396 536 393 l 647 92 b 658 56 651 82 658 61 b 615 39 658 44 653 42 l 549 33 l 549 -3 b 725 0 649 -1 685 0 b 864 -3 790 0 829 -3 z m 274 429 b 249 436 256 429 249 432 b 257 465 249 443 254 454 l 372 769 b 386 792 378 785 381 792 b 397 772 390 792 393 783 l 513 460 b 519 438 517 450 519 440 b 504 429 519 433 515 429 z m 356 1165 b 301 1222 356 1203 329 1222 b 238 1154 268 1222 238 1200 b 292 1096 238 1131 260 1096 b 356 1165 326 1096 356 1128 z m 624 1165 b 569 1222 624 1203 597 1222 b 506 1154 536 1222 506 1200 b 560 1096 506 1131 528 1096 b 624 1165 594 1096 624 1128 z "},"À":{"ha":849,"x_min":0,"x_max":0,"o":"m 864 39 b 803 58 814 42 807 49 b 650 438 783 94 750 181 l 439 997 l 418 997 l 183 361 b 75 88 103 144 88 117 b -19 39 58 49 53 44 l -19 -3 b 82 0 7 -3 33 0 b 208 -3 126 0 174 -3 l 208 33 l 140 38 b 114 50 121 39 114 42 b 128 99 114 57 122 82 l 222 369 b 253 396 229 389 238 396 l 503 396 b 546 368 532 396 536 393 l 647 92 b 658 56 651 82 658 61 b 615 39 658 44 653 42 l 549 33 l 549 -3 b 725 0 649 -1 685 0 b 864 -3 790 0 829 -3 z m 274 429 b 249 436 256 429 249 432 b 257 465 249 443 254 454 l 372 769 b 386 792 378 785 381 792 b 397 772 390 792 393 783 l 513 460 b 519 438 517 450 519 440 b 504 429 519 433 515 429 z m 497 1068 l 531 1068 l 328 1271 b 271 1304 308 1292 294 1304 b 226 1261 250 1304 226 1289 b 260 1214 226 1238 240 1225 z "},"Å":{"ha":849,"x_min":0,"x_max":0,"o":"m 864 39 b 803 58 814 42 807 49 b 650 438 783 94 750 181 l 439 997 l 418 997 l 183 361 b 75 88 103 144 88 117 b -19 39 58 49 53 44 l -19 -3 b 82 0 7 -3 33 0 b 208 -3 126 0 174 -3 l 208 33 l 140 38 b 114 50 121 39 114 42 b 128 99 114 57 122 82 l 222 369 b 253 396 229 389 238 396 l 503 396 b 546 368 532 396 536 393 l 647 92 b 658 56 651 82 658 61 b 615 39 658 44 653 42 l 549 33 l 549 -3 b 725 0 649 -1 685 0 b 864 -3 790 0 829 -3 z m 274 429 b 249 436 256 429 249 432 b 257 465 249 443 254 454 l 372 769 b 386 792 378 785 381 792 b 397 772 390 792 393 783 l 513 460 b 519 438 517 450 519 440 b 504 429 519 433 515 429 z m 574 1193 b 439 1328 574 1268 514 1328 b 304 1193 364 1328 304 1268 b 439 1058 304 1119 364 1058 b 574 1193 514 1058 574 1119 z m 532 1193 b 439 1100 532 1142 490 1100 b 346 1193 388 1100 346 1142 b 439 1286 346 1244 388 1286 b 532 1193 490 1286 532 1244 z "},"Ã":{"ha":849,"x_min":0,"x_max":0,"o":"m 864 39 b 803 58 814 42 807 49 b 650 438 783 94 750 181 l 439 997 l 418 997 l 183 361 b 75 88 103 144 88 117 b -19 39 58 49 53 44 l -19 -3 b 82 0 7 -3 33 0 b 208 -3 126 0 174 -3 l 208 33 l 140 38 b 114 50 121 39 114 42 b 128 99 114 57 122 82 l 222 369 b 253 396 229 389 238 396 l 503 396 b 546 368 532 396 536 393 l 647 92 b 658 56 651 82 658 61 b 615 39 658 44 653 42 l 549 33 l 549 -3 b 725 0 649 -1 685 0 b 864 -3 790 0 829 -3 z m 274 429 b 249 436 256 429 249 432 b 257 465 249 443 254 454 l 372 769 b 386 792 378 785 381 792 b 397 772 390 792 393 783 l 513 460 b 519 438 517 450 519 440 b 504 429 519 433 515 429 z m 625 1247 b 540 1175 614 1222 593 1175 b 453 1208 514 1175 485 1192 b 344 1242 421 1225 385 1242 b 207 1106 290 1242 229 1200 l 236 1106 b 317 1169 246 1129 263 1169 b 408 1138 349 1169 378 1153 b 508 1106 439 1121 471 1106 b 654 1247 617 1106 646 1217 z "},"Ç":{"ha":1054,"x_min":0,"x_max":0,"o":"m 960 321 l 932 321 b 593 17 889 147 789 17 b 186 510 396 17 186 185 b 563 967 186 815 392 967 b 922 654 628 967 839 938 l 950 654 l 950 921 l 910 921 b 889 897 906 910 901 897 b 550 997 864 897 733 997 b 58 489 292 997 58 806 b 517 -24 58 188 257 -8 l 467 -137 l 482 -146 b 526 -133 494 -140 507 -133 b 596 -196 564 -133 596 -157 b 507 -264 596 -215 585 -264 b 419 -247 469 -264 440 -254 l 410 -276 b 525 -300 449 -293 485 -300 b 688 -185 625 -300 688 -256 b 575 -86 688 -125 642 -86 b 517 -97 547 -86 529 -92 l 547 -25 l 551 -25 b 944 92 693 -25 824 17 z "},"É":{"ha":926,"x_min":0,"x_max":0,"o":"m 849 253 l 807 253 l 740 31 l 375 31 b 299 89 324 31 304 42 b 294 494 294 124 294 347 b 529 488 343 494 482 496 b 557 318 544 485 546 476 l 603 318 b 599 482 600 361 599 406 b 607 704 599 601 604 663 l 561 704 b 529 546 560 685 557 567 b 294 525 500 525 338 525 l 294 944 l 572 944 b 749 761 722 944 744 933 l 796 761 l 796 975 b 285 972 625 972 454 972 b 64 975 164 972 108 974 l 64 939 l 169 933 b 172 668 172 858 172 840 l 172 147 b 171 39 172 108 172 75 l 74 33 l 74 -3 b 397 0 147 -1 182 0 l 832 0 z m 397 1068 l 635 1214 b 667 1261 654 1225 667 1238 b 624 1304 667 1285 649 1304 b 567 1271 599 1304 581 1286 l 364 1068 z "},"Ê":{"ha":926,"x_min":0,"x_max":0,"o":"m 849 253 l 807 253 l 740 31 l 375 31 b 299 89 324 31 304 42 b 294 494 294 124 294 347 b 529 488 343 494 482 496 b 557 318 544 485 546 476 l 603 318 b 599 482 600 361 599 406 b 607 704 599 601 604 663 l 561 704 b 529 546 560 685 557 567 b 294 525 500 525 338 525 l 294 944 l 572 944 b 749 761 722 944 744 933 l 796 761 l 796 975 b 285 972 625 972 454 972 b 64 975 164 972 108 974 l 64 939 l 169 933 b 172 668 172 858 172 840 l 172 147 b 171 39 172 108 172 75 l 74 33 l 74 -3 b 397 0 147 -1 182 0 l 832 0 z m 464 1215 l 642 1068 l 672 1068 l 499 1301 l 428 1301 l 256 1068 l 286 1068 z "},"Ë":{"ha":926,"x_min":0,"x_max":0,"o":"m 849 253 l 807 253 l 740 31 l 375 31 b 299 89 324 31 304 42 b 294 494 294 124 294 347 b 529 488 343 494 482 496 b 557 318 544 485 546 476 l 603 318 b 599 482 600 361 599 406 b 607 704 599 601 604 663 l 561 704 b 529 546 560 685 557 567 b 294 525 500 525 338 525 l 294 944 l 572 944 b 749 761 722 944 744 933 l 796 761 l 796 975 b 285 972 625 972 454 972 b 64 975 164 972 108 974 l 64 939 l 169 933 b 172 668 172 858 172 840 l 172 147 b 171 39 172 108 172 75 l 74 33 l 74 -3 b 397 0 147 -1 182 0 l 832 0 z m 389 1165 b 335 1222 389 1203 363 1222 b 271 1154 301 1222 271 1200 b 325 1096 271 1131 293 1096 b 389 1165 360 1096 389 1128 z m 657 1165 b 603 1222 657 1203 631 1222 b 539 1154 569 1222 539 1200 b 593 1096 539 1131 561 1096 b 657 1165 628 1096 657 1128 z "},"È":{"ha":926,"x_min":0,"x_max":0,"o":"m 849 253 l 807 253 l 740 31 l 375 31 b 299 89 324 31 304 42 b 294 494 294 124 294 347 b 529 488 343 494 482 496 b 557 318 544 485 546 476 l 603 318 b 599 482 600 361 599 406 b 607 704 599 601 604 663 l 561 704 b 529 546 560 685 557 567 b 294 525 500 525 338 525 l 294 944 l 572 944 b 749 761 722 944 744 933 l 796 761 l 796 975 b 285 972 625 972 454 972 b 64 975 164 972 108 974 l 64 939 l 169 933 b 172 668 172 858 172 840 l 172 147 b 171 39 172 108 172 75 l 74 33 l 74 -3 b 397 0 147 -1 182 0 l 832 0 z m 531 1068 l 564 1068 l 361 1271 b 304 1304 342 1292 328 1304 b 260 1261 283 1304 260 1289 b 293 1214 260 1238 274 1225 z "},"Í":{"ha":463,"x_min":0,"x_max":0,"o":"m 296 39 b 292 661 292 131 292 183 b 296 933 292 842 293 858 l 397 939 l 397 975 b 232 972 350 974 308 972 b 65 975 154 972 111 974 l 65 939 l 168 933 b 169 311 171 842 169 789 b 168 39 169 131 171 114 l 65 33 l 65 -3 b 232 0 113 -1 154 0 b 397 -3 308 0 353 -1 l 397 33 z m 165 1068 l 403 1214 b 435 1261 422 1225 435 1238 b 392 1304 435 1285 417 1304 b 335 1271 367 1304 349 1286 l 132 1068 z "},"Î":{"ha":463,"x_min":0,"x_max":0,"o":"m 296 39 b 292 661 292 131 292 183 b 296 933 292 842 293 858 l 397 939 l 397 975 b 232 972 350 974 308 972 b 65 975 154 972 111 974 l 65 939 l 168 933 b 169 311 171 842 169 789 b 168 39 169 131 171 114 l 65 33 l 65 -3 b 232 0 113 -1 154 0 b 397 -3 308 0 353 -1 l 397 33 z m 232 1215 l 410 1068 l 440 1068 l 267 1301 l 196 1301 l 24 1068 l 54 1068 z "},"Ï":{"ha":463,"x_min":0,"x_max":0,"o":"m 296 39 b 292 661 292 131 292 183 b 296 933 292 842 293 858 l 397 939 l 397 975 b 232 972 350 974 308 972 b 65 975 154 972 111 974 l 65 939 l 168 933 b 169 311 171 842 169 789 b 168 39 169 131 171 114 l 65 33 l 65 -3 b 232 0 113 -1 154 0 b 397 -3 308 0 353 -1 l 397 33 z m 157 1165 b 103 1222 157 1203 131 1222 b 39 1154 69 1222 39 1200 b 93 1096 39 1131 61 1096 b 157 1165 128 1096 157 1128 z m 425 1165 b 371 1222 425 1203 399 1222 b 307 1154 338 1222 307 1200 b 361 1096 307 1131 329 1096 b 425 1165 396 1096 425 1128 z "},"Ì":{"ha":463,"x_min":0,"x_max":0,"o":"m 296 39 b 292 661 292 131 292 183 b 296 933 292 842 293 858 l 397 939 l 397 975 b 232 972 350 974 308 972 b 65 975 154 972 111 974 l 65 939 l 168 933 b 169 311 171 842 169 789 b 168 39 169 131 171 114 l 65 33 l 65 -3 b 232 0 113 -1 154 0 b 397 -3 308 0 353 -1 l 397 33 z m 299 1068 l 332 1068 l 129 1271 b 72 1304 110 1292 96 1304 b 28 1261 51 1304 28 1289 b 61 1214 28 1238 42 1225 z "},"Ñ":{"ha":1081,"x_min":0,"x_max":0,"o":"m 907 -17 l 910 440 b 919 933 910 479 918 856 l 1025 939 l 1025 975 b 889 972 1003 975 925 971 b 753 975 803 975 865 972 l 753 939 l 872 933 b 874 476 874 833 874 592 l 874 200 b 271 972 789 299 342 876 b 56 975 176 972 164 972 l 56 939 b 178 853 143 926 178 879 l 176 444 b 169 39 174 310 171 174 l 58 33 l 58 -3 b 197 0 93 -1 126 0 b 336 -3 268 0 301 -1 l 336 33 l 219 39 b 214 396 217 158 214 367 l 213 838 l 215 840 b 531 443 264 775 290 742 b 886 -17 629 321 783 118 z m 735 1247 b 650 1175 724 1222 703 1175 b 563 1208 624 1175 594 1192 b 454 1242 531 1225 494 1242 b 317 1106 400 1242 339 1200 l 346 1106 b 426 1169 356 1129 372 1169 b 518 1138 458 1169 488 1153 b 618 1106 549 1121 581 1106 b 764 1247 726 1106 756 1217 z "},"Ó":{"ha":1106,"x_min":0,"x_max":0,"o":"m 60 475 b 551 -25 60 228 229 -25 b 1047 503 867 -25 1047 232 b 561 997 1047 772 879 997 b 60 475 232 997 60 744 z m 188 478 b 563 967 188 857 422 967 b 919 497 740 967 919 803 b 564 6 919 240 786 6 b 188 478 367 6 188 190 z m 486 1068 l 724 1214 b 756 1261 743 1225 756 1238 b 713 1304 756 1285 738 1304 b 656 1271 688 1304 669 1286 l 453 1068 z "},"Ô":{"ha":1106,"x_min":0,"x_max":0,"o":"m 60 475 b 551 -25 60 228 229 -25 b 1047 503 867 -25 1047 232 b 561 997 1047 772 879 997 b 60 475 232 997 60 744 z m 188 478 b 563 967 188 857 422 967 b 919 497 740 967 919 803 b 564 6 919 240 786 6 b 188 478 367 6 188 190 z m 553 1215 l 731 1068 l 761 1068 l 588 1301 l 517 1301 l 344 1068 l 375 1068 z "},"Ö":{"ha":1106,"x_min":0,"x_max":0,"o":"m 60 475 b 551 -25 60 228 229 -25 b 1047 503 867 -25 1047 232 b 561 997 1047 772 879 997 b 60 475 232 997 60 744 z m 188 478 b 563 967 188 857 422 967 b 919 497 740 967 919 803 b 564 6 919 240 786 6 b 188 478 367 6 188 190 z m 478 1165 b 424 1222 478 1203 451 1222 b 360 1154 390 1222 360 1200 b 414 1096 360 1131 382 1096 b 478 1165 449 1096 478 1128 z m 746 1165 b 692 1222 746 1203 719 1222 b 628 1154 658 1222 628 1200 b 682 1096 628 1131 650 1096 b 746 1165 717 1096 746 1128 z "},"Ò":{"ha":1106,"x_min":0,"x_max":0,"o":"m 60 475 b 551 -25 60 228 229 -25 b 1047 503 867 -25 1047 232 b 561 997 1047 772 879 997 b 60 475 232 997 60 744 z m 188 478 b 563 967 188 857 422 967 b 919 497 740 967 919 803 b 564 6 919 240 786 6 b 188 478 367 6 188 190 z m 619 1068 l 653 1068 l 450 1271 b 393 1304 431 1292 417 1304 b 349 1261 372 1304 349 1289 b 382 1214 349 1238 363 1225 z "},"Õ":{"ha":1106,"x_min":0,"x_max":0,"o":"m 60 475 b 551 -25 60 228 229 -25 b 1047 503 867 -25 1047 232 b 561 997 1047 772 879 997 b 60 475 232 997 60 744 z m 188 478 b 563 967 188 857 422 967 b 919 497 740 967 919 803 b 564 6 919 240 786 6 b 188 478 367 6 188 190 z m 747 1247 b 663 1175 736 1222 715 1175 b 575 1208 636 1175 607 1192 b 467 1242 543 1225 507 1242 b 329 1106 413 1242 351 1200 l 358 1106 b 439 1169 368 1129 385 1169 b 531 1138 471 1169 500 1153 b 631 1106 561 1121 593 1106 b 776 1247 739 1106 768 1217 z "},"Š":{"ha":772,"x_min":0,"x_max":0,"o":"m 104 0 l 143 0 b 163 25 153 22 153 25 b 401 -25 172 25 293 -25 b 689 253 563 -25 689 103 b 200 799 689 564 200 550 b 375 967 200 872 256 967 b 625 736 511 967 583 864 l 650 736 l 650 972 l 611 972 b 586 953 608 964 603 953 b 372 997 564 953 471 997 b 100 747 200 997 100 874 b 586 197 100 436 586 472 b 394 6 586 82 500 6 b 132 256 247 6 169 128 l 104 256 z m 386 1154 l 208 1301 l 178 1301 l 350 1068 l 421 1068 l 594 1301 l 564 1301 z "},"Ú":{"ha":1054,"x_min":0,"x_max":0,"o":"m 992 939 l 992 975 b 863 972 933 974 892 972 b 732 975 838 972 800 974 l 732 939 l 835 933 l 839 411 b 560 11 840 150 750 11 b 281 436 364 11 275 164 l 292 933 l 399 939 l 399 975 b 238 972 340 974 286 972 b 71 975 200 972 156 974 l 71 939 l 165 933 l 161 414 b 538 -25 157 163 261 -25 b 894 397 813 -25 890 189 l 904 933 z m 461 1068 l 699 1214 b 731 1261 718 1225 731 1238 b 688 1304 731 1285 713 1304 b 631 1271 663 1304 644 1286 l 428 1068 z "},"Û":{"ha":1054,"x_min":0,"x_max":0,"o":"m 992 939 l 992 975 b 863 972 933 974 892 972 b 732 975 838 972 800 974 l 732 939 l 835 933 l 839 411 b 560 11 840 150 750 11 b 281 436 364 11 275 164 l 292 933 l 399 939 l 399 975 b 238 972 340 974 286 972 b 71 975 200 972 156 974 l 71 939 l 165 933 l 161 414 b 538 -25 157 163 261 -25 b 894 397 813 -25 890 189 l 904 933 z m 528 1215 l 706 1068 l 736 1068 l 563 1301 l 492 1301 l 319 1068 l 350 1068 z "},"Ü":{"ha":1054,"x_min":0,"x_max":0,"o":"m 992 939 l 992 975 b 863 972 933 974 892 972 b 732 975 838 972 800 974 l 732 939 l 835 933 l 839 411 b 560 11 840 150 750 11 b 281 436 364 11 275 164 l 292 933 l 399 939 l 399 975 b 238 972 340 974 286 972 b 71 975 200 972 156 974 l 71 939 l 165 933 l 161 414 b 538 -25 157 163 261 -25 b 894 397 813 -25 890 189 l 904 933 z m 453 1165 b 399 1222 453 1203 426 1222 b 335 1154 365 1222 335 1200 b 389 1096 335 1131 357 1096 b 453 1165 424 1096 453 1128 z m 721 1165 b 667 1222 721 1203 694 1222 b 603 1154 633 1222 603 1200 b 657 1096 603 1131 625 1096 b 721 1165 692 1096 721 1128 z "},"Ù":{"ha":1054,"x_min":0,"x_max":0,"o":"m 992 939 l 992 975 b 863 972 933 974 892 972 b 732 975 838 972 800 974 l 732 939 l 835 933 l 839 411 b 560 11 840 150 750 11 b 281 436 364 11 275 164 l 292 933 l 399 939 l 399 975 b 238 972 340 974 286 972 b 71 975 200 972 156 974 l 71 939 l 165 933 l 161 414 b 538 -25 157 163 261 -25 b 894 397 813 -25 890 189 l 904 933 z m 594 1068 l 628 1068 l 425 1271 b 368 1304 406 1292 392 1304 b 324 1261 347 1304 324 1289 b 357 1214 324 1238 338 1225 z "},"Ý":{"ha":797,"x_min":0,"x_max":0,"o":"m 210 33 l 210 -3 b 397 0 274 -1 331 0 b 583 -3 463 0 529 -3 l 583 33 l 461 39 b 458 154 460 79 458 110 l 458 504 l 590 689 b 747 893 638 753 699 836 b 833 933 774 925 789 932 l 833 975 b 578 972 764 972 651 972 l 578 936 b 681 933 614 936 663 935 b 703 921 690 933 703 932 b 675 872 703 914 700 910 b 546 689 656 846 567 718 l 442 536 l 336 700 b 203 925 315 736 203 913 b 315 939 203 933 210 936 l 315 975 b 117 972 279 975 136 972 b -35 975 90 972 33 974 l -35 939 b 40 921 10 936 25 935 b 185 710 61 901 151 763 l 336 474 b 333 39 336 369 336 125 z m 332 1068 l 569 1214 b 601 1261 589 1225 601 1238 b 558 1304 601 1285 583 1304 b 501 1271 533 1304 515 1286 l 299 1068 z "},"Ÿ":{"ha":797,"x_min":0,"x_max":0,"o":"m 210 33 l 210 -3 b 397 0 274 -1 331 0 b 583 -3 463 0 529 -3 l 583 33 l 461 39 b 458 154 460 79 458 110 l 458 504 l 590 689 b 747 893 638 753 699 836 b 833 933 774 925 789 932 l 833 975 b 578 972 764 972 651 972 l 578 936 b 681 933 614 936 663 935 b 703 921 690 933 703 932 b 675 872 703 914 700 910 b 546 689 656 846 567 718 l 442 536 l 336 700 b 203 925 315 736 203 913 b 315 939 203 933 210 936 l 315 975 b 117 972 279 975 136 972 b -35 975 90 972 33 974 l -35 939 b 40 921 10 936 25 935 b 185 710 61 901 151 763 l 336 474 b 333 39 336 369 336 125 z m 332 1165 b 278 1222 332 1203 306 1222 b 214 1154 244 1222 214 1200 b 268 1096 214 1131 236 1096 b 332 1165 303 1096 332 1128 z m 600 1165 b 546 1222 600 1203 574 1222 b 482 1154 513 1222 482 1200 b 536 1096 482 1131 504 1096 b 600 1165 571 1096 600 1128 z "},"Ž":{"ha":900,"x_min":0,"x_max":0,"o":"m 856 261 l 811 261 b 742 54 796 167 767 65 b 404 31 686 33 464 31 l 192 29 b 492 453 235 89 260 125 b 849 956 761 833 790 876 l 849 975 b 518 972 801 976 569 972 b 56 975 396 972 164 972 l 49 735 l 97 735 b 311 942 108 915 133 940 l 688 944 b 28 21 388 510 343 443 l 28 0 l 360 0 b 849 -3 488 0 749 -1 z m 450 1154 l 272 1301 l 242 1301 l 414 1068 l 485 1068 l 658 1301 l 628 1301 z "},"á":{"ha":617,"x_min":0,"x_max":0,"o":"m 563 50 l 490 50 l 492 478 b 358 608 492 563 457 608 b 144 554 282 608 192 579 b 78 458 106 533 78 514 b 108 403 78 428 86 403 b 161 440 125 403 158 428 b 176 539 165 464 171 496 b 296 567 179 551 222 567 b 394 475 378 567 396 553 l 393 297 b 44 107 203 292 44 242 b 169 -22 44 31 100 -22 b 383 58 246 -22 325 28 b 390 29 389 58 389 56 b 432 -17 392 3 406 -17 b 563 14 457 -17 531 4 z m 392 115 b 368 75 390 85 389 83 b 221 36 360 71 278 36 b 139 118 161 36 139 69 b 376 275 139 256 364 275 b 392 247 389 275 393 274 z m 242 679 l 479 825 b 511 872 499 836 511 849 b 468 915 511 896 493 915 b 411 882 443 915 425 897 l 208 679 z "},"â":{"ha":617,"x_min":0,"x_max":0,"o":"m 563 50 l 490 50 l 492 478 b 358 608 492 563 457 608 b 144 554 282 608 192 579 b 78 458 106 533 78 514 b 108 403 78 428 86 403 b 161 440 125 403 158 428 b 176 539 165 464 171 496 b 296 567 179 551 222 567 b 394 475 378 567 396 553 l 393 297 b 44 107 203 292 44 242 b 169 -22 44 31 100 -22 b 383 58 246 -22 325 28 b 390 29 389 58 389 56 b 432 -17 392 3 406 -17 b 563 14 457 -17 531 4 z m 392 115 b 368 75 390 85 389 83 b 221 36 360 71 278 36 b 139 118 161 36 139 69 b 376 275 139 256 364 275 b 392 247 389 275 393 274 z m 308 826 l 486 679 l 517 679 l 343 913 l 272 913 l 100 679 l 131 679 z "},"ä":{"ha":617,"x_min":0,"x_max":0,"o":"m 563 50 l 490 50 l 492 478 b 358 608 492 563 457 608 b 144 554 282 608 192 579 b 78 458 106 533 78 514 b 108 403 78 428 86 403 b 161 440 125 403 158 428 b 176 539 165 464 171 496 b 296 567 179 551 222 567 b 394 475 378 567 396 553 l 393 297 b 44 107 203 292 44 242 b 169 -22 44 31 100 -22 b 383 58 246 -22 325 28 b 390 29 389 58 389 56 b 432 -17 392 3 406 -17 b 563 14 457 -17 531 4 z m 392 115 b 368 75 390 85 389 83 b 221 36 360 71 278 36 b 139 118 161 36 139 69 b 376 275 139 256 364 275 b 392 247 389 275 393 274 z m 233 776 b 179 833 233 814 207 833 b 115 765 146 833 115 811 b 169 707 115 742 138 707 b 233 776 204 707 233 739 z m 501 776 b 447 833 501 814 475 833 b 383 765 414 833 383 811 b 438 707 383 742 406 707 b 501 776 472 707 501 739 z "},"à":{"ha":617,"x_min":0,"x_max":0,"o":"m 563 50 l 490 50 l 492 478 b 358 608 492 563 457 608 b 144 554 282 608 192 579 b 78 458 106 533 78 514 b 108 403 78 428 86 403 b 161 440 125 403 158 428 b 176 539 165 464 171 496 b 296 567 179 551 222 567 b 394 475 378 567 396 553 l 393 297 b 44 107 203 292 44 242 b 169 -22 44 31 100 -22 b 383 58 246 -22 325 28 b 390 29 389 58 389 56 b 432 -17 392 3 406 -17 b 563 14 457 -17 531 4 z m 392 115 b 368 75 390 85 389 83 b 221 36 360 71 278 36 b 139 118 161 36 139 69 b 376 275 139 256 364 275 b 392 247 389 275 393 274 z m 375 679 l 408 679 l 206 882 b 149 915 186 903 172 915 b 104 872 128 915 104 900 b 138 825 104 849 118 836 z "},"å":{"ha":617,"x_min":0,"x_max":0,"o":"m 563 50 l 490 50 l 492 478 b 358 608 492 563 457 608 b 144 554 282 608 192 579 b 78 458 106 533 78 514 b 108 403 78 428 86 403 b 161 440 125 403 158 428 b 176 539 165 464 171 496 b 296 567 179 551 222 567 b 394 475 378 567 396 553 l 393 297 b 44 107 203 292 44 242 b 169 -22 44 31 100 -22 b 383 58 246 -22 325 28 b 390 29 389 58 389 56 b 432 -17 392 3 406 -17 b 563 14 457 -17 531 4 z m 392 115 b 368 75 390 85 389 83 b 221 36 360 71 278 36 b 139 118 161 36 139 69 b 376 275 139 256 364 275 b 392 247 389 275 393 274 z m 443 804 b 308 939 443 879 383 939 b 174 804 233 939 174 879 b 308 669 174 731 233 669 b 443 804 383 669 443 731 z m 401 804 b 308 711 401 753 360 711 b 215 804 257 711 215 753 b 308 897 215 856 257 897 b 401 804 360 897 401 856 z "},"ã":{"ha":617,"x_min":0,"x_max":0,"o":"m 563 50 l 490 50 l 492 478 b 358 608 492 563 457 608 b 144 554 282 608 192 579 b 78 458 106 533 78 514 b 108 403 78 428 86 403 b 161 440 125 403 158 428 b 176 539 165 464 171 496 b 296 567 179 551 222 567 b 394 475 378 567 396 553 l 393 297 b 44 107 203 292 44 242 b 169 -22 44 31 100 -22 b 383 58 246 -22 325 28 b 390 29 389 58 389 56 b 432 -17 392 3 406 -17 b 563 14 457 -17 531 4 z m 392 115 b 368 75 390 85 389 83 b 221 36 360 71 278 36 b 139 118 161 36 139 69 b 376 275 139 256 364 275 b 392 247 389 275 393 274 z m 503 858 b 418 786 492 833 471 786 b 331 819 392 786 363 803 b 222 853 299 836 263 853 b 85 717 168 853 107 811 l 114 717 b 194 781 124 740 140 781 b 286 749 226 781 256 764 b 386 717 317 732 349 717 b 532 858 494 717 524 828 z "},"ç":{"ha":643,"x_min":0,"x_max":0,"o":"m 550 146 b 378 39 524 108 475 39 b 158 308 275 39 158 129 b 371 578 158 485 269 578 b 471 460 446 578 453 539 b 538 403 482 413 493 403 b 574 426 568 403 574 407 b 338 608 574 504 490 608 b 58 281 129 608 58 403 b 313 -21 58 119 161 -12 l 261 -137 l 276 -146 b 321 -133 289 -140 301 -133 b 390 -196 358 -133 390 -157 b 301 -264 390 -215 379 -264 b 214 -247 264 -264 235 -254 l 204 -276 b 319 -300 243 -293 279 -300 b 482 -185 419 -300 482 -256 b 369 -86 482 -125 436 -86 b 311 -97 342 -86 324 -92 l 344 -21 b 569 133 447 -17 528 40 z "},"é":{"ha":643,"x_min":0,"x_max":0,"o":"m 561 147 b 388 44 533 107 489 44 b 156 313 236 44 156 186 b 181 368 156 364 163 368 l 553 368 b 581 397 578 368 581 376 b 353 608 581 450 536 608 b 61 283 167 608 61 444 b 347 -22 61 101 189 -22 b 582 135 497 -22 557 89 z m 188 399 b 172 406 178 399 172 401 b 358 578 172 439 238 578 b 486 415 471 578 486 446 b 456 399 486 403 481 399 z m 256 679 l 493 825 b 525 872 513 836 525 849 b 482 915 525 896 507 915 b 425 882 457 915 439 897 l 222 679 z "},"ê":{"ha":643,"x_min":0,"x_max":0,"o":"m 561 147 b 388 44 533 107 489 44 b 156 313 236 44 156 186 b 181 368 156 364 163 368 l 553 368 b 581 397 578 368 581 376 b 353 608 581 450 536 608 b 61 283 167 608 61 444 b 347 -22 61 101 189 -22 b 582 135 497 -22 557 89 z m 188 399 b 172 406 178 399 172 401 b 358 578 172 439 238 578 b 486 415 471 578 486 446 b 456 399 486 403 481 399 z m 322 826 l 500 679 l 531 679 l 357 913 l 286 913 l 114 679 l 144 679 z "},"ë":{"ha":643,"x_min":0,"x_max":0,"o":"m 561 147 b 388 44 533 107 489 44 b 156 313 236 44 156 186 b 181 368 156 364 163 368 l 553 368 b 581 397 578 368 581 376 b 353 608 581 450 536 608 b 61 283 167 608 61 444 b 347 -22 61 101 189 -22 b 582 135 497 -22 557 89 z m 188 399 b 172 406 178 399 172 401 b 358 578 172 439 238 578 b 486 415 471 578 486 446 b 456 399 486 403 481 399 z m 247 776 b 193 833 247 814 221 833 b 129 765 160 833 129 811 b 183 707 129 742 151 707 b 247 776 218 707 247 739 z m 515 776 b 461 833 515 814 489 833 b 397 765 428 833 397 811 b 451 707 397 742 419 707 b 515 776 486 707 515 739 z "},"è":{"ha":643,"x_min":0,"x_max":0,"o":"m 561 147 b 388 44 533 107 489 44 b 156 313 236 44 156 186 b 181 368 156 364 163 368 l 553 368 b 581 397 578 368 581 376 b 353 608 581 450 536 608 b 61 283 167 608 61 444 b 347 -22 61 101 189 -22 b 582 135 497 -22 557 89 z m 188 399 b 172 406 178 399 172 401 b 358 578 172 439 238 578 b 486 415 471 578 486 446 b 456 399 486 403 481 399 z m 389 679 l 422 679 l 219 882 b 163 915 200 903 186 915 b 118 872 142 915 118 900 b 151 825 118 849 132 836 z "},"í":{"ha":386,"x_min":0,"x_max":0,"o":"m 72 0 l 324 0 l 324 33 l 250 35 l 250 600 l 79 578 l 79 536 b 150 493 146 532 150 529 l 150 35 l 72 33 z m 126 679 l 364 825 b 396 872 383 836 396 849 b 353 915 396 896 378 915 b 296 882 328 915 310 897 l 93 679 z "},"î":{"ha":386,"x_min":0,"x_max":0,"o":"m 72 0 l 324 0 l 324 33 l 250 35 l 250 600 l 79 578 l 79 536 b 150 493 146 532 150 529 l 150 35 l 72 33 z m 193 826 l 371 679 l 401 679 l 228 913 l 157 913 l -15 679 l 15 679 z "},"ï":{"ha":386,"x_min":0,"x_max":0,"o":"m 72 0 l 324 0 l 324 33 l 250 35 l 250 600 l 79 578 l 79 536 b 150 493 146 532 150 529 l 150 35 l 72 33 z m 118 776 b 64 833 118 814 92 833 b 0 765 31 833 0 811 b 54 707 0 742 22 707 b 118 776 89 707 118 739 z m 386 776 b 332 833 386 814 360 833 b 268 765 299 833 268 811 b 322 707 268 742 290 707 b 386 776 357 707 386 739 z "},"ì":{"ha":386,"x_min":0,"x_max":0,"o":"m 72 0 l 324 0 l 324 33 l 250 35 l 250 600 l 79 578 l 79 536 b 150 493 146 532 150 529 l 150 35 l 72 33 z m 260 679 l 293 679 l 90 882 b 33 915 71 903 57 915 b -11 872 13 915 -11 900 b 22 825 -11 849 3 836 z "},"ñ":{"ha":772,"x_min":0,"x_max":0,"o":"m 65 0 l 311 0 l 311 33 l 239 35 l 239 471 b 253 525 239 507 244 519 b 413 561 290 549 365 561 b 544 428 524 561 544 521 l 544 35 l 474 33 l 474 0 l 718 0 l 718 33 l 644 35 l 644 435 b 468 603 644 547 576 603 b 246 546 353 603 261 546 b 229 597 232 546 229 557 l 61 578 l 61 522 l 139 519 l 139 35 l 65 33 z m 581 858 b 496 786 569 833 549 786 b 408 819 469 786 440 803 b 300 853 376 836 340 853 b 163 717 246 853 185 811 l 192 717 b 272 781 201 740 218 781 b 364 749 304 781 333 764 b 464 717 394 732 426 717 b 610 858 572 717 601 828 z "},"ó":{"ha":694,"x_min":0,"x_max":0,"o":"m 56 286 b 349 -22 56 79 204 -22 b 639 308 535 -22 639 138 b 360 608 639 432 581 608 b 56 286 224 608 56 533 z m 161 292 b 358 578 161 513 285 578 b 533 294 471 578 533 453 b 347 8 533 147 475 8 b 161 292 231 8 161 144 z m 281 679 l 518 825 b 550 872 538 836 550 849 b 507 915 550 896 532 915 b 450 882 482 915 464 897 l 247 679 z "},"ô":{"ha":694,"x_min":0,"x_max":0,"o":"m 56 286 b 349 -22 56 79 204 -22 b 639 308 535 -22 639 138 b 360 608 639 432 581 608 b 56 286 224 608 56 533 z m 161 292 b 358 578 161 513 285 578 b 533 294 471 578 533 453 b 347 8 533 147 475 8 b 161 292 231 8 161 144 z m 347 826 l 525 679 l 556 679 l 382 913 l 311 913 l 139 679 l 169 679 z "},"ö":{"ha":694,"x_min":0,"x_max":0,"o":"m 56 286 b 349 -22 56 79 204 -22 b 639 308 535 -22 639 138 b 360 608 639 432 581 608 b 56 286 224 608 56 533 z m 161 292 b 358 578 161 513 285 578 b 533 294 471 578 533 453 b 347 8 533 147 475 8 b 161 292 231 8 161 144 z m 272 776 b 218 833 272 814 246 833 b 154 765 185 833 154 811 b 208 707 154 742 176 707 b 272 776 243 707 272 739 z m 540 776 b 486 833 540 814 514 833 b 422 765 453 833 422 811 b 476 707 422 742 444 707 b 540 776 511 707 540 739 z "},"ò":{"ha":694,"x_min":0,"x_max":0,"o":"m 56 286 b 349 -22 56 79 204 -22 b 639 308 535 -22 639 138 b 360 608 639 432 581 608 b 56 286 224 608 56 533 z m 161 292 b 358 578 161 513 285 578 b 533 294 471 578 533 453 b 347 8 533 147 475 8 b 161 292 231 8 161 144 z m 414 679 l 447 679 l 244 882 b 188 915 225 903 211 915 b 143 872 167 915 143 900 b 176 825 143 849 157 836 z "},"õ":{"ha":694,"x_min":0,"x_max":0,"o":"m 56 286 b 349 -22 56 79 204 -22 b 639 308 535 -22 639 138 b 360 608 639 432 581 608 b 56 286 224 608 56 533 z m 161 292 b 358 578 161 513 285 578 b 533 294 471 578 533 453 b 347 8 533 147 475 8 b 161 292 231 8 161 144 z m 542 858 b 457 786 531 833 510 786 b 369 819 431 786 401 803 b 261 853 338 836 301 853 b 124 717 207 853 146 811 l 153 717 b 233 781 163 740 179 781 b 325 749 265 781 294 764 b 425 717 356 732 388 717 b 571 858 533 717 563 828 z "},"š":{"ha":463,"x_min":0,"x_max":0,"o":"m 53 22 b 222 -22 129 -10 181 -22 b 408 158 313 -22 408 46 b 136 485 408 343 136 349 b 244 578 136 533 183 578 b 363 444 322 578 343 513 l 392 444 l 389 560 b 232 608 340 576 306 608 b 61 451 138 608 61 539 b 322 119 61 278 322 282 b 217 8 322 65 289 8 b 78 164 125 8 90 104 l 44 164 z m 232 765 l 54 913 l 24 913 l 196 679 l 267 679 l 440 913 l 410 913 z "},"ú":{"ha":772,"x_min":0,"x_max":0,"o":"m 60 536 l 131 529 l 131 206 b 313 -17 131 39 181 -17 b 532 28 424 -17 519 28 b 588 -14 553 28 542 -14 b 708 8 615 -14 676 1 l 708 50 l 639 50 l 639 600 l 450 583 l 450 536 b 539 496 532 535 539 531 l 539 100 b 524 46 539 60 533 51 b 385 19 508 36 450 19 b 231 167 264 19 231 58 l 231 600 l 60 583 z m 319 679 l 557 825 b 589 872 576 836 589 849 b 546 915 589 896 571 915 b 489 882 521 915 503 897 l 286 679 z "},"û":{"ha":772,"x_min":0,"x_max":0,"o":"m 60 536 l 131 529 l 131 206 b 313 -17 131 39 181 -17 b 532 28 424 -17 519 28 b 588 -14 553 28 542 -14 b 708 8 615 -14 676 1 l 708 50 l 639 50 l 639 600 l 450 583 l 450 536 b 539 496 532 535 539 531 l 539 100 b 524 46 539 60 533 51 b 385 19 508 36 450 19 b 231 167 264 19 231 58 l 231 600 l 60 583 z m 386 826 l 564 679 l 594 679 l 421 913 l 350 913 l 178 679 l 208 679 z "},"ü":{"ha":772,"x_min":0,"x_max":0,"o":"m 60 536 l 131 529 l 131 206 b 313 -17 131 39 181 -17 b 532 28 424 -17 519 28 b 588 -14 553 28 542 -14 b 708 8 615 -14 676 1 l 708 50 l 639 50 l 639 600 l 450 583 l 450 536 b 539 496 532 535 539 531 l 539 100 b 524 46 539 60 533 51 b 385 19 508 36 450 19 b 231 167 264 19 231 58 l 231 600 l 60 583 z m 311 776 b 257 833 311 814 285 833 b 193 765 224 833 193 811 b 247 707 193 742 215 707 b 311 776 282 707 311 739 z m 579 776 b 525 833 579 814 553 833 b 461 765 492 833 461 811 b 515 707 461 742 483 707 b 579 776 550 707 579 739 z "},"ù":{"ha":772,"x_min":0,"x_max":0,"o":"m 60 536 l 131 529 l 131 206 b 313 -17 131 39 181 -17 b 532 28 424 -17 519 28 b 588 -14 553 28 542 -14 b 708 8 615 -14 676 1 l 708 50 l 639 50 l 639 600 l 450 583 l 450 536 b 539 496 532 535 539 531 l 539 100 b 524 46 539 60 533 51 b 385 19 508 36 450 19 b 231 167 264 19 231 58 l 231 600 l 60 583 z m 453 679 l 486 679 l 283 882 b 226 915 264 903 250 915 b 182 872 206 915 182 900 b 215 825 182 849 196 836 z "},"ý":{"ha":592,"x_min":0,"x_max":0,"o":"m 585 586 l 446 586 l 446 542 b 499 526 493 538 499 532 b 472 451 499 517 489 492 l 328 100 l 181 490 b 171 525 174 508 171 518 b 250 547 171 549 226 544 l 250 586 l 17 586 l 17 547 b 90 454 54 542 56 542 l 278 -15 l 199 -193 b 124 -275 171 -257 154 -275 b 51 -265 113 -275 57 -265 b 29 -326 38 -265 29 -321 b 118 -361 29 -354 97 -360 b 169 -324 133 -362 154 -349 b 276 -89 183 -301 236 -179 l 518 485 b 585 542 538 532 544 539 z m 229 679 l 467 825 b 499 872 486 836 499 849 b 456 915 499 896 481 915 b 399 882 431 915 413 897 l 196 679 z "},"ÿ":{"ha":592,"x_min":0,"x_max":0,"o":"m 585 586 l 446 586 l 446 542 b 499 526 493 538 499 532 b 472 451 499 517 489 492 l 328 100 l 181 490 b 171 525 174 508 171 518 b 250 547 171 549 226 544 l 250 586 l 17 586 l 17 547 b 90 454 54 542 56 542 l 278 -15 l 199 -193 b 124 -275 171 -257 154 -275 b 51 -265 113 -275 57 -265 b 29 -326 38 -265 29 -321 b 118 -361 29 -354 97 -360 b 169 -324 133 -362 154 -349 b 276 -89 183 -301 236 -179 l 518 485 b 585 542 538 532 544 539 z m 221 776 b 167 833 221 814 194 833 b 103 765 133 833 103 811 b 157 707 103 742 125 707 b 221 776 192 707 221 739 z m 489 776 b 435 833 489 814 463 833 b 371 765 401 833 371 811 b 425 707 371 742 393 707 b 489 776 460 707 489 739 z "},"ž":{"ha":617,"x_min":0,"x_max":0,"o":"m 543 0 l 556 143 b 533 161 557 158 556 161 b 503 144 510 161 504 156 l 493 53 b 471 31 492 35 489 31 l 163 28 l 551 575 l 551 586 l 81 586 l 79 446 l 121 446 l 133 514 b 190 554 140 550 146 553 l 421 557 l 32 10 l 32 0 z m 308 765 l 131 913 l 100 913 l 272 679 l 343 679 l 517 913 l 486 913 z "},"":{"ha":386,"x_min":0,"x_max":0,"o":"m 175 200 l 207 200 l 247 897 l 133 875 z m 260 50 b 193 117 260 88 231 117 b 126 50 156 117 126 88 b 193 -17 126 14 156 -17 b 260 50 231 -17 260 14 z "},"":{"ha":411,"x_min":0,"x_max":0,"o":"m 8 751 l 43 751 l 267 908 b 299 956 289 924 299 933 b 256 999 299 978 282 999 b 199 964 239 999 226 994 z m 251 763 l 489 908 b 521 956 508 919 521 933 b 478 999 521 981 501 999 b 421 965 453 999 436 982 l 217 763 z "},"":{"ha":694,"x_min":0,"x_max":0,"o":"m 358 -192 l 358 0 b 628 265 540 10 628 136 b 358 546 628 429 499 496 l 358 950 b 547 847 444 944 503 906 l 590 886 b 358 981 540 932 485 971 l 358 1088 l 326 1088 l 326 981 b 78 740 135 969 78 836 b 326 457 78 557 233 494 l 326 31 b 101 153 254 33 192 50 l 64 108 b 326 0 154 22 236 6 l 326 -192 z m 358 444 b 544 235 419 424 544 376 b 358 31 544 114 478 58 z m 326 557 b 156 765 278 576 156 625 b 326 950 156 875 225 938 z "},"":{"ha":1081,"x_min":0,"x_max":0,"o":"m 928 51 b 861 31 914 43 893 31 b 708 167 799 31 761 72 b 931 519 758 221 833 319 b 1050 564 946 551 950 556 l 1050 600 l 781 600 l 781 564 b 881 529 868 557 881 550 b 692 197 881 492 804 324 b 542 471 650 286 622 349 b 439 624 528 493 454 599 b 643 832 506 650 643 708 b 476 983 643 906 589 983 b 272 788 368 983 272 911 b 335 597 272 722 300 661 b 74 264 256 563 74 485 b 357 -25 74 108 185 -25 b 635 92 472 -25 560 29 b 807 -25 650 61 694 -25 b 953 29 883 -25 926 8 z m 179 328 b 347 574 179 432 247 521 b 490 351 368 538 471 383 b 615 125 507 324 579 199 b 424 39 590 103 518 39 b 179 328 258 39 179 214 z m 364 824 b 476 953 364 925 435 953 b 576 850 526 953 576 919 b 425 646 576 783 528 700 b 364 824 389 711 364 763 z "},"":{"ha":411,"x_min":0,"x_max":0,"o":"m 140 764 l 378 910 b 410 957 397 921 410 933 b 367 1000 410 981 392 1000 b 310 967 342 1000 324 982 l 107 764 z "},"":{"ha":694,"x_min":0,"x_max":0,"o":"m 39 296 b 347 -17 39 128 172 -17 b 656 296 519 -17 656 125 b 347 608 656 467 519 608 b 39 296 172 608 39 464 z m 103 296 b 347 556 103 413 189 556 b 592 296 500 556 592 418 b 347 36 592 174 500 36 b 103 296 189 36 103 181 z "},"":{"ha":463,"x_min":0,"x_max":0,"o":"m 411 32 l 294 42 l 294 608 l 78 586 l 78 536 l 192 535 b 189 42 196 371 189 206 l 71 32 l 71 -4 b 239 0 100 -3 221 0 b 411 -4 264 0 279 0 z "},"":{"ha":565,"x_min":0,"x_max":0,"o":"m 19 -3 b 193 0 67 -1 119 0 l 513 0 l 524 172 l 488 172 l 478 94 l 164 94 b 461 463 340 246 461 349 b 261 608 461 533 404 608 b 89 582 206 608 133 594 l 67 482 b 71 472 65 476 67 472 b 114 488 78 472 107 486 b 257 514 144 497 200 514 b 383 421 331 514 383 469 b 19 17 383 288 96 81 z "},"":{"ha":617,"x_min":0,"x_max":0,"o":"m 96 467 b 285 511 132 482 203 511 b 419 397 358 511 419 474 b 185 150 419 275 250 183 b 147 124 151 133 147 132 b 185 107 147 111 151 111 b 450 -72 244 101 450 69 b 132 -351 450 -231 254 -312 b 108 -364 110 -357 108 -358 b 118 -383 108 -369 110 -383 b 308 -319 124 -383 218 -358 b 544 -49 507 -233 544 -117 b 300 183 544 108 382 158 b 497 439 436 276 497 353 b 271 608 497 532 421 608 b 107 578 194 608 143 592 z "},"":{"ha":643,"x_min":0,"x_max":0,"o":"m 640 0 l 640 76 l 481 75 l 482 613 l 460 613 l -8 25 l -8 0 l 383 0 l 379 -361 l 478 -361 l 481 0 z m 68 69 l 385 474 l 388 471 l 383 74 z "},"":{"ha":617,"x_min":0,"x_max":0,"o":"m 528 499 l 533 649 l 497 649 l 493 596 b 413 592 465 593 439 592 l 136 592 l 138 172 b 439 -11 346 149 439 100 b 129 -344 439 -100 369 -239 b 99 -364 110 -353 99 -358 b 110 -378 99 -372 101 -378 b 531 18 131 -378 531 -253 b 171 271 531 211 322 250 l 174 494 z "},"":{"ha":694,"x_min":0,"x_max":0,"o":"m 606 1003 b 58 381 200 992 58 622 b 361 -17 58 71 232 -17 b 643 300 488 -17 643 75 b 376 601 643 528 492 601 b 175 540 282 601 206 557 b 608 983 226 781 372 929 z m 543 299 b 364 11 543 176 501 11 b 158 386 225 11 158 178 b 169 501 158 446 164 471 b 339 560 189 517 244 560 b 543 299 501 560 543 419 z "},"":{"ha":668,"x_min":0,"x_max":0,"o":"m 556 500 b 197 -367 554 496 204 -351 l 260 -367 b 594 501 369 -76 474 215 b 628 592 625 576 628 585 l 69 592 l 65 403 l 99 403 l 108 494 z "},"":{"ha":668,"x_min":0,"x_max":0,"o":"m 604 254 b 386 549 604 425 468 503 b 557 776 440 578 557 642 b 329 997 557 864 496 997 b 85 763 185 997 85 894 b 257 507 85 614 194 546 b 68 250 153 450 68 393 b 333 -17 68 106 172 -17 b 604 254 489 -17 604 104 z m 513 228 b 321 14 513 100 415 14 b 126 253 214 14 126 111 b 289 489 126 397 221 450 b 513 228 404 435 513 374 z m 504 775 b 353 564 504 658 425 604 b 171 790 279 600 171 653 b 338 967 171 901 250 967 b 504 775 438 967 504 881 z "},"":{"ha":694,"x_min":0,"x_max":0,"o":"m 47 304 b 332 13 47 138 172 13 b 511 56 413 13 479 42 b 258 -344 489 -18 446 -168 b 232 -374 253 -349 232 -369 b 243 -383 232 -379 238 -383 b 418 -260 251 -383 343 -329 b 642 254 625 -67 642 182 b 343 608 642 481 507 608 b 47 304 183 608 47 478 z m 147 319 b 333 578 147 485 229 578 b 542 257 443 578 542 476 b 522 97 542 179 532 138 b 379 54 483 72 422 54 b 147 319 296 54 147 101 z "},"":{"ha":540,"x_min":0,"x_max":0,"o":"m 178 206 l 207 206 l 213 413 b 478 718 375 514 478 604 b 254 897 478 825 386 897 b 86 863 208 897 128 883 l 74 753 b 251 797 108 769 171 797 b 394 688 325 797 394 764 b 168 428 394 592 301 525 z m 260 50 b 193 117 260 88 231 117 b 126 50 156 117 126 88 b 193 -17 126 14 156 -17 b 260 50 231 -17 260 14 z "},"":{"ha":411,"x_min":0,"x_max":0,"o":"m 207 911 l 385 764 l 415 764 l 242 997 l 171 997 l -1 764 l 29 764 z "},"":{"ha":411,"x_min":0,"x_max":0,"o":"m 274 764 l 307 764 l 104 967 b 47 1000 85 988 71 1000 b 3 957 26 1000 3 985 b 36 910 3 933 17 921 z "},"":{"ha":643,"x_min":0,"x_max":0,"o":"m 642 32 b 594 53 617 38 604 40 b 494 288 585 65 508 253 l 328 694 l 304 694 l 188 379 b 75 88 151 282 115 183 b -3 32 57 46 51 38 l -3 -3 b 78 0 19 -1 44 0 b 183 -3 97 0 106 0 l 183 32 l 142 35 b 104 47 108 38 104 38 b 118 90 104 51 106 56 l 165 222 b 183 239 169 233 175 239 l 388 239 b 417 221 408 239 410 238 l 457 118 b 479 53 463 104 479 63 b 440 36 479 39 471 39 l 381 32 l 381 -3 b 525 0 422 -1 458 0 b 642 -3 581 0 613 -1 z m 204 272 b 188 278 193 272 188 275 b 190 289 188 281 189 283 l 279 529 b 286 539 282 535 283 539 b 294 526 289 539 292 533 l 388 292 b 393 278 390 283 393 279 b 379 272 393 275 390 272 z "},"":{"ha":694,"x_min":0,"x_max":0,"o":"m 58 -3 b 182 0 101 -1 149 0 b 340 -3 206 0 315 -3 b 617 183 511 -3 617 78 b 475 365 617 275 576 342 b 569 513 504 381 569 417 b 365 678 569 633 475 678 b 64 669 265 678 164 669 l 64 636 l 144 633 b 147 228 147 568 147 535 b 144 36 147 101 146 86 l 58 32 z m 247 331 b 517 182 447 331 517 283 b 317 25 517 99 458 25 b 247 147 267 25 247 32 z m 247 361 l 249 608 b 293 647 249 636 258 647 b 478 500 397 647 478 606 b 328 361 478 424 433 361 z "},"":{"ha":746,"x_min":0,"x_max":0,"o":"m 649 221 b 419 17 614 103 544 17 b 164 339 304 17 164 113 b 408 661 164 544 276 661 b 635 461 499 661 610 599 l 665 461 l 665 651 l 631 653 b 604 635 625 646 617 635 b 399 694 586 635 517 694 b 56 333 228 694 56 565 b 401 -25 56 106 228 -25 b 664 53 494 -25 585 6 l 675 221 z "},"":{"ha":797,"x_min":0,"x_max":0,"o":"m 58 32 l 58 -3 b 194 0 99 -1 135 0 b 371 -3 219 0 343 -3 b 742 343 608 -3 742 140 b 374 678 742 535 618 678 b 58 669 268 678 164 669 l 58 636 l 144 633 b 147 228 147 568 147 535 b 144 36 147 101 146 86 z m 642 329 b 357 28 642 183 567 28 b 253 43 338 28 263 29 b 247 196 247 51 247 172 b 250 625 247 369 247 599 b 264 643 250 635 253 640 b 325 647 275 646 311 647 b 642 329 515 647 642 528 z "},"":{"ha":721,"x_min":0,"x_max":0,"o":"m 642 185 l 604 185 l 558 31 l 311 31 b 247 96 256 31 247 42 l 247 336 b 404 333 275 336 383 336 b 431 219 424 329 428 319 l 472 219 b 469 338 471 264 469 292 b 475 488 469 407 472 451 l 433 488 b 410 376 432 418 425 386 b 247 367 392 367 276 367 l 247 642 l 465 642 b 565 515 543 642 557 633 l 607 515 l 607 672 b 239 669 450 669 272 669 b 54 672 150 669 104 671 l 54 638 l 144 633 b 147 228 147 568 147 535 b 144 36 147 101 146 86 l 58 32 l 58 -3 b 315 0 111 -1 143 -1 l 631 0 z "},"":{"ha":668,"x_min":0,"x_max":0,"o":"m 147 633 b 150 290 153 519 150 404 l 150 36 l 63 32 l 63 -3 b 199 0 104 -1 129 0 b 347 -3 267 0 307 -1 l 347 32 l 251 36 b 250 331 250 96 250 119 b 411 324 276 331 397 331 b 431 211 432 315 431 217 l 472 211 b 469 325 471 240 469 267 b 474 481 469 408 472 454 l 433 481 l 426 411 b 250 361 422 363 408 361 l 250 642 l 464 642 b 575 503 560 642 561 631 l 618 503 l 614 672 b 292 669 526 671 328 669 b 61 672 132 669 96 671 l 61 638 z "},"":{"ha":797,"x_min":0,"x_max":0,"o":"m 760 242 b 625 239 707 239 667 239 b 485 242 585 239 542 239 l 485 204 l 583 201 b 585 128 585 176 585 153 b 583 49 585 103 585 78 b 446 14 542 25 494 14 b 164 344 246 14 164 181 b 406 661 164 553 283 661 b 632 460 467 661 599 624 l 663 460 l 661 651 l 626 651 b 600 633 622 646 615 633 b 393 694 583 633 507 694 b 56 332 206 694 56 540 b 415 -25 56 128 207 -25 b 688 57 511 -25 606 7 l 688 157 b 697 200 688 194 692 197 b 760 206 701 201 707 201 z "},"":{"ha":824,"x_min":0,"x_max":0,"o":"m 574 633 b 576 361 576 571 576 550 l 247 361 b 249 633 247 429 247 571 l 339 638 l 339 672 b 200 669 299 671 271 669 b 61 672 129 669 93 671 l 61 638 l 144 633 b 147 228 147 568 147 535 b 144 36 147 101 146 86 l 61 32 l 61 -3 b 200 0 101 -1 129 0 b 339 -3 271 0 307 -1 l 339 32 l 249 36 b 247 328 247 99 247 121 l 576 328 b 574 36 576 256 576 99 l 483 32 l 483 -3 b 622 0 524 -1 551 0 b 763 -3 693 0 731 -1 l 763 32 l 678 36 b 676 442 676 101 676 135 b 678 633 676 568 676 583 l 763 638 l 763 672 b 622 669 722 671 693 669 b 483 672 551 669 515 671 l 483 638 z "},"":{"ha":411,"x_min":0,"x_max":0,"o":"m 258 36 b 256 442 256 101 256 135 b 258 633 256 568 257 583 l 346 638 l 346 672 b 206 669 306 671 278 669 b 67 672 133 669 96 671 l 67 638 l 153 633 b 156 228 156 568 156 535 b 153 36 156 101 156 86 l 67 32 l 67 -3 b 206 0 106 -1 133 0 b 346 -3 278 0 315 -1 l 346 32 z "},"":{"ha":386,"x_min":0,"x_max":0,"o":"m 35 -303 b 243 -51 169 -276 229 -175 b 246 633 250 4 244 525 l 333 638 l 333 672 b 193 669 299 672 224 669 l 172 669 b 53 672 146 671 92 672 l 53 638 l 142 633 b 146 138 142 563 146 215 b 35 -276 146 -133 150 -214 z "},"":{"ha":694,"x_min":0,"x_max":0,"o":"m 269 325 l 392 182 l 550 0 l 700 0 l 700 33 b 625 78 681 39 661 44 b 483 229 582 119 496 217 l 343 390 l 404 444 b 683 635 611 629 632 631 l 683 672 b 461 669 606 669 589 669 l 461 636 l 501 633 b 544 624 540 632 544 632 b 525 599 544 618 539 613 l 247 342 b 250 633 247 413 247 574 l 338 638 l 338 672 b 200 669 299 671 269 669 b 58 672 126 669 92 671 l 58 638 l 144 633 b 147 228 147 568 147 535 b 144 36 147 101 146 86 l 58 32 l 58 -3 b 200 0 82 -1 124 0 b 346 -3 278 0 314 -1 l 346 32 l 250 36 b 247 306 247 96 247 215 z "},"":{"ha":668,"x_min":0,"x_max":0,"o":"m 626 190 l 588 190 l 533 35 b 358 33 496 33 450 33 b 247 100 256 33 247 42 l 247 444 b 250 633 247 571 247 583 l 346 638 l 346 672 b 200 669 321 672 279 669 b 54 672 122 669 85 671 l 54 638 l 144 633 b 147 214 147 572 147 536 b 144 36 147 97 146 86 l 49 32 l 49 -3 b 206 0 74 -1 114 0 b 607 -3 489 0 524 0 z "},"":{"ha":951,"x_min":0,"x_max":0,"o":"m 54 -3 b 160 0 71 -3 144 0 b 264 -3 176 0 249 -3 l 264 32 l 176 36 l 175 594 l 178 597 l 442 -17 l 458 -17 l 704 608 l 707 608 b 710 325 710 526 710 426 b 707 36 708 224 708 122 l 622 32 l 622 -3 b 769 0 646 -3 749 0 b 896 -3 811 0 854 -1 l 896 32 l 810 36 l 810 633 l 892 638 l 892 672 b 697 669 853 671 779 669 l 485 132 l 257 672 b 172 669 204 669 182 669 b 54 672 165 669 72 672 l 54 638 l 139 633 b 142 494 140 579 142 563 b 138 36 142 378 142 144 l 54 32 z "},"":{"ha":797,"x_min":0,"x_max":0,"o":"m 668 -11 l 668 333 b 671 633 668 376 669 586 l 756 638 l 756 672 b 646 669 718 671 689 669 b 540 672 600 669 565 671 l 540 638 l 629 633 b 635 353 631 542 633 424 l 635 171 l 632 171 b 596 218 629 178 610 203 b 224 669 492 343 328 544 b 50 672 135 669 106 669 l 50 636 b 131 604 71 633 106 631 b 139 561 138 596 138 593 l 139 325 b 133 36 138 283 136 82 l 50 32 l 50 -3 b 156 0 75 -1 110 0 b 264 -3 199 0 235 -1 l 264 32 l 178 36 b 172 347 178 81 172 299 l 172 564 b 399 296 208 522 226 500 b 649 -11 488 190 590 63 z "},"":{"ha":797,"x_min":0,"x_max":0,"o":"m 56 329 b 399 -22 56 160 171 -22 b 744 349 621 -22 744 163 b 406 694 744 535 629 694 b 56 329 175 694 56 515 z m 164 331 b 406 664 164 586 311 664 b 636 343 524 664 636 547 b 407 8 636 172 551 8 b 164 331 279 8 164 136 z "},"":{"ha":643,"x_min":0,"x_max":0,"o":"m 249 36 b 247 304 247 99 247 215 l 342 304 b 593 497 494 304 593 364 b 390 678 593 600 528 678 b 279 674 375 678 328 676 b 167 669 232 672 185 669 b 54 672 125 669 81 672 l 54 638 l 144 633 b 147 228 147 568 147 535 b 144 36 147 101 146 86 l 54 32 l 54 -3 b 200 0 89 -1 119 0 b 344 -3 276 0 315 -1 l 344 32 z m 249 603 b 294 643 249 639 251 643 b 499 492 396 643 499 613 b 363 339 499 414 444 351 b 247 335 336 335 297 332 z "},"":{"ha":797,"x_min":0,"x_max":0,"o":"m 753 -169 b 642 -197 719 -185 682 -197 b 264 -111 560 -197 443 -162 b 490 -17 294 -96 454 -32 b 744 349 560 14 744 93 b 410 694 744 547 615 694 b 56 343 207 694 56 553 b 360 -17 56 139 190 -6 b 382 -25 378 -18 382 -19 b 221 -99 382 -39 243 -89 b 99 -69 139 -74 108 -69 b 75 -90 85 -69 75 -76 b 101 -197 75 -107 89 -197 b 158 -175 114 -197 140 -183 b 561 -281 276 -203 440 -281 b 761 -186 642 -281 732 -210 z m 164 331 b 406 664 164 586 311 664 b 636 343 524 664 636 547 b 407 8 636 172 551 8 b 164 331 279 8 164 136 z "},"":{"ha":694,"x_min":0,"x_max":0,"o":"m 249 36 b 247 319 247 93 247 115 l 301 319 b 342 317 318 319 339 318 b 374 267 347 315 358 292 b 593 -3 538 -3 553 -3 b 685 0 607 -3 669 0 l 685 31 b 611 89 665 33 651 36 b 446 335 525 207 446 332 b 569 508 446 340 569 383 b 372 678 569 624 483 678 b 271 674 358 678 315 676 b 167 669 228 672 183 669 b 57 672 129 669 82 672 l 57 638 l 144 633 b 147 221 147 571 147 536 b 144 36 147 99 146 86 l 57 32 l 57 -3 b 197 0 99 -1 125 0 b 335 -3 265 0 306 -1 l 335 32 z m 247 351 b 250 624 247 392 247 603 b 292 644 253 639 258 644 b 469 497 408 644 469 600 b 313 353 469 403 422 353 z "},"":{"ha":565,"x_min":0,"x_max":0,"o":"m 72 -3 l 99 -3 b 121 18 103 10 107 18 b 296 -25 131 18 226 -25 b 514 169 394 -25 514 39 b 144 550 514 413 144 389 b 278 664 144 604 188 664 b 461 493 346 664 424 626 l 489 493 l 486 681 l 458 681 b 436 657 456 671 451 657 b 274 694 424 657 343 694 b 67 511 165 694 67 632 b 431 135 67 282 431 311 b 293 6 431 67 379 6 b 97 194 171 6 124 90 l 67 194 z "},"":{"ha":668,"x_min":0,"x_max":0,"o":"m 56 494 b 85 611 67 547 78 596 b 186 642 99 639 122 642 l 279 642 b 282 221 282 575 282 540 b 279 36 282 99 281 86 l 185 32 l 185 -3 b 332 0 210 -1 250 0 b 479 -3 413 0 453 -1 l 479 32 l 383 36 b 382 449 382 99 382 133 b 383 642 382 576 382 589 l 507 642 b 594 626 568 642 589 636 b 606 499 600 617 606 517 l 643 499 l 653 672 b 332 669 550 671 435 669 b 28 672 229 669 117 671 l 15 494 z "},"":{"ha":772,"x_min":0,"x_max":0,"o":"m 733 638 l 733 672 b 611 669 681 671 647 669 b 492 672 571 669 525 671 l 492 638 l 586 633 l 589 253 b 408 11 590 144 558 11 b 231 286 278 11 229 125 l 232 633 l 326 638 l 326 672 b 178 669 265 671 226 669 b 36 672 138 669 83 671 l 36 638 l 126 633 l 129 283 b 389 -25 132 110 194 -25 b 642 340 614 -25 640 160 l 644 633 z "},"":{"ha":668,"x_min":0,"x_max":0,"o":"m 664 672 b 475 669 600 669 536 669 l 475 636 b 556 624 546 635 556 635 b 486 425 556 619 492 440 l 379 126 l 269 399 b 182 621 261 418 182 614 b 283 636 182 631 188 635 l 283 669 b 19 672 149 669 113 669 l 19 638 l 60 635 b 335 -25 157 417 242 200 l 357 -25 l 467 274 b 603 618 482 315 592 596 b 664 635 610 632 615 632 z "},"":{"ha":978,"x_min":0,"x_max":0,"o":"m 967 672 b 797 669 886 669 876 669 l 797 636 b 865 629 863 636 865 632 b 781 374 865 617 790 401 l 699 144 l 696 144 l 554 590 b 544 625 549 608 544 619 b 631 636 544 633 549 636 l 631 672 b 503 669 600 672 528 669 b 372 672 479 669 444 671 l 372 639 l 428 636 l 474 503 l 351 144 l 349 144 l 192 600 b 185 625 188 614 185 621 b 264 638 185 633 192 638 l 264 672 b 131 669 236 672 153 669 b 14 672 94 669 50 671 l 14 638 l 67 633 b 300 -25 126 490 289 14 l 322 -25 l 492 451 l 494 451 l 644 -25 l 667 -25 l 810 349 b 913 619 822 383 911 617 b 967 635 917 626 925 633 z "},"":{"ha":668,"x_min":0,"x_max":0,"o":"m 11 -3 b 208 0 82 0 90 0 l 208 33 b 124 47 139 35 124 36 b 196 153 124 56 183 136 l 300 293 l 442 88 b 463 50 447 79 463 57 b 381 33 463 35 399 33 l 381 -3 b 519 0 426 -1 482 0 b 656 -3 553 0 592 -1 l 656 33 b 517 163 608 38 582 71 l 363 378 l 500 550 b 649 635 556 619 565 628 l 649 672 b 429 669 546 669 535 669 l 429 636 b 510 628 504 636 510 633 b 450 540 510 619 503 611 l 346 403 l 246 546 b 194 629 236 560 194 613 b 272 636 194 638 240 638 l 272 669 b 11 672 126 669 110 669 l 11 635 b 117 543 63 625 94 575 l 281 318 l 165 169 b 11 36 71 47 56 44 z "},"":{"ha":592,"x_min":0,"x_max":0,"o":"m 140 32 l 140 -3 b 294 0 188 -1 232 0 b 449 -3 357 0 406 -1 l 449 32 l 347 36 b 344 115 346 63 344 85 l 344 347 l 421 454 b 546 615 436 475 522 592 b 615 633 563 632 574 632 l 615 672 b 413 669 567 669 456 669 l 413 636 b 497 625 489 636 497 632 b 490 608 497 621 492 611 l 329 376 l 263 482 b 175 628 258 488 175 617 b 263 638 175 635 196 636 l 263 672 b 106 669 231 672 131 669 b -22 672 72 669 25 671 l -22 638 b 46 625 29 636 35 636 b 140 489 61 613 121 518 l 244 328 b 242 36 244 258 244 93 z "},"":{"ha":643,"x_min":0,"x_max":0,"o":"m 600 192 l 560 192 b 499 40 544 106 535 50 b 290 29 472 33 438 33 l 165 28 b 597 658 182 53 528 561 l 597 672 b 322 669 400 669 379 669 b 50 672 236 669 136 669 l 44 494 l 89 494 b 272 640 99 632 108 639 l 465 642 b 53 43 425 582 67 63 b 31 0 33 18 31 14 l 269 0 b 596 -3 372 0 494 0 z "},"":{"ha":411,"x_min":0,"x_max":0,"o":"m 401 942 b 317 869 390 917 369 869 b 229 903 290 869 261 886 b 121 936 197 919 161 936 b -17 800 67 936 6 894 l 13 800 b 93 864 22 824 39 864 b 185 832 125 864 154 847 b 285 800 215 815 247 800 b 431 942 393 800 422 911 z "},"":{"ha":386,"x_min":0,"x_max":0,"o":"m 211 478 l 179 478 l 139 -219 l 253 -197 z m 126 628 b 193 561 126 590 156 561 b 260 628 231 561 260 590 b 193 694 260 664 231 694 b 126 628 156 694 126 664 z "},"":{"ha":694,"x_min":0,"x_max":0,"o":"m 257 119 b 175 331 208 165 175 235 b 388 600 175 507 286 600 b 461 564 429 600 450 589 z m 479 517 b 488 482 482 507 485 496 b 554 425 499 435 510 425 b 590 449 585 425 590 429 b 510 583 590 493 563 546 l 590 757 l 551 757 l 479 601 b 354 631 444 619 403 631 b 75 303 146 631 75 425 b 218 35 75 186 129 85 l 126 -161 l 165 -161 l 249 19 b 344 0 276 7 310 0 b 586 156 454 0 542 57 l 567 168 b 394 61 540 131 492 61 b 285 96 357 61 318 72 z "},"":{"ha":668,"x_min":0,"x_max":0,"o":"m 432 485 l 247 375 l 247 444 b 250 633 247 571 247 583 l 346 638 l 346 672 b 200 669 321 672 279 669 b 54 672 122 669 85 671 l 54 638 l 144 633 b 147 315 147 588 147 556 l 39 250 l 39 207 l 147 272 l 147 214 b 144 36 147 97 146 86 l 49 32 l 49 -3 b 206 0 74 -1 114 0 b 607 -3 489 0 524 0 l 626 190 l 588 190 l 533 35 b 358 33 496 33 450 33 b 247 100 256 33 247 42 l 247 332 l 432 442 z "},"":{"ha":565,"x_min":0,"x_max":0,"o":"m 72 -3 l 99 -3 b 121 18 103 10 107 18 b 296 -25 131 18 226 -25 b 514 169 394 -25 514 39 b 144 550 514 413 144 389 b 278 664 144 604 188 664 b 461 493 346 664 424 626 l 489 493 l 486 681 l 458 681 b 436 657 456 671 451 657 b 274 694 424 657 343 694 b 67 511 165 694 67 632 b 431 135 67 282 431 311 b 293 6 431 67 379 6 b 97 194 171 6 124 90 l 67 194 z m 285 850 l 107 997 l 76 997 l 249 764 l 319 764 l 493 997 l 463 997 z "},"":{"ha":643,"x_min":0,"x_max":0,"o":"m 600 192 l 560 192 b 499 40 544 106 535 50 b 290 29 472 33 438 33 l 165 28 b 597 658 182 53 528 561 l 597 672 b 322 669 400 669 379 669 b 50 672 236 669 136 669 l 44 494 l 89 494 b 272 640 99 632 108 639 l 465 642 b 53 43 425 582 67 63 b 31 0 33 18 31 14 l 269 0 b 596 -3 372 0 494 0 z m 324 850 l 146 997 l 115 997 l 288 764 l 358 764 l 532 997 l 501 997 z "},"":{"ha":411,"x_min":0,"x_max":0,"o":"m 132 861 b 78 918 132 899 106 918 b 14 850 44 918 14 896 b 68 792 14 826 36 792 b 132 861 103 792 132 824 z m 400 861 b 346 918 400 899 374 918 b 282 850 313 918 282 896 b 336 792 282 826 304 792 b 400 861 371 792 400 824 z "},"":{"ha":411,"x_min":0,"x_max":0,"o":"m 14 981 b 204 764 15 913 32 764 b 394 981 351 764 393 872 l 363 981 b 204 843 347 894 294 843 b 46 981 114 843 61 894 z "},"":{"ha":411,"x_min":0,"x_max":0,"o":"m 207 850 l 29 997 l -1 997 l 171 764 l 242 764 l 415 997 l 385 997 z "},"":{"ha":411,"x_min":0,"x_max":0,"o":"m 146 850 b 201 790 146 818 167 790 b 268 863 238 790 268 822 b 211 921 268 900 240 921 b 146 850 178 921 146 896 z "},"":{"ha":411,"x_min":0,"x_max":0,"o":"m -3 822 l 417 822 l 417 889 l -3 889 z "},"":{"ha":411,"x_min":0,"x_max":0,"o":"m 342 17 b 39 -193 67 -33 39 -144 b 163 -300 39 -256 88 -300 b 368 -222 240 -300 304 -261 l 353 -196 b 208 -242 321 -212 264 -242 b 128 -175 176 -242 128 -226 b 342 3 128 -71 299 -12 z "},"":{"ha":411,"x_min":0,"x_max":0,"o":"m 342 879 b 207 1014 342 954 282 1014 b 72 879 132 1014 72 954 b 207 744 72 806 132 744 b 342 879 282 744 342 806 z m 300 879 b 207 786 300 828 258 786 b 114 879 156 786 114 828 b 207 972 114 931 156 972 b 300 879 258 972 300 931 z "},"":{"ha":411,"x_min":0,"x_max":0,"o":"m 181 0 l 121 -137 l 136 -146 b 181 -133 149 -140 161 -133 b 250 -196 218 -133 250 -157 b 161 -264 250 -215 239 -264 b 74 -247 124 -264 94 -254 l 64 -276 b 179 -300 103 -293 139 -300 b 342 -185 279 -300 342 -256 b 229 -86 342 -125 296 -86 b 171 -97 201 -86 183 -92 l 213 0 z "},"":{"ha":540,"x_min":0,"x_max":0,"o":"m 364 472 l 335 472 l 329 265 b 64 -40 167 164 64 74 b 288 -219 64 -147 156 -219 b 456 -185 333 -219 414 -206 l 468 -75 b 290 -119 433 -92 371 -119 b 147 -10 217 -119 147 -86 b 374 250 147 86 240 153 z m 282 628 b 349 561 282 590 311 561 b 415 628 386 561 415 590 b 349 694 415 664 386 694 b 282 628 311 694 282 664 z "},"":{"ha":643,"x_min":0,"x_max":0,"o":"m 642 32 b 594 53 617 38 604 40 b 494 288 585 65 508 253 l 328 694 l 304 694 l 188 379 b 75 88 151 282 115 183 b -3 32 57 46 51 38 l -3 -3 b 78 0 19 -1 44 0 b 183 -3 97 0 106 0 l 183 32 l 142 35 b 104 47 108 38 104 38 b 118 90 104 51 106 56 l 165 222 b 183 239 169 233 175 239 l 388 239 b 417 221 408 239 410 238 l 457 118 b 479 53 463 104 479 63 b 440 36 479 39 471 39 l 381 32 l 381 -3 b 525 0 422 -1 458 0 b 642 -3 581 0 613 -1 z m 204 272 b 188 278 193 272 188 275 b 190 289 188 281 189 283 l 279 529 b 286 539 282 535 283 539 b 294 526 289 539 292 533 l 388 292 b 393 278 390 283 393 279 b 379 272 393 275 390 272 z m 390 764 l 424 764 l 221 967 b 164 1000 201 988 188 1000 b 119 957 143 1000 119 985 b 153 910 119 933 133 921 z "},"":{"ha":643,"x_min":0,"x_max":0,"o":"m 642 32 b 594 53 617 38 604 40 b 494 288 585 65 508 253 l 328 694 l 304 694 l 188 379 b 75 88 151 282 115 183 b -3 32 57 46 51 38 l -3 -3 b 78 0 19 -1 44 0 b 183 -3 97 0 106 0 l 183 32 l 142 35 b 104 47 108 38 104 38 b 118 90 104 51 106 56 l 165 222 b 183 239 169 233 175 239 l 388 239 b 417 221 408 239 410 238 l 457 118 b 479 53 463 104 479 63 b 440 36 479 39 471 39 l 381 32 l 381 -3 b 525 0 422 -1 458 0 b 642 -3 581 0 613 -1 z m 204 272 b 188 278 193 272 188 275 b 190 289 188 281 189 283 l 279 529 b 286 539 282 535 283 539 b 294 526 289 539 292 533 l 388 292 b 393 278 390 283 393 279 b 379 272 393 275 390 272 z m 257 764 l 494 910 b 526 957 514 921 526 933 b 483 1000 526 981 508 1000 b 426 967 458 1000 440 982 l 224 764 z "},"":{"ha":643,"x_min":0,"x_max":0,"o":"m 642 32 b 594 53 617 38 604 40 b 494 288 585 65 508 253 l 328 694 l 304 694 l 188 379 b 75 88 151 282 115 183 b -3 32 57 46 51 38 l -3 -3 b 78 0 19 -1 44 0 b 183 -3 97 0 106 0 l 183 32 l 142 35 b 104 47 108 38 104 38 b 118 90 104 51 106 56 l 165 222 b 183 239 169 233 175 239 l 388 239 b 417 221 408 239 410 238 l 457 118 b 479 53 463 104 479 63 b 440 36 479 39 471 39 l 381 32 l 381 -3 b 525 0 422 -1 458 0 b 642 -3 581 0 613 -1 z m 204 272 b 188 278 193 272 188 275 b 190 289 188 281 189 283 l 279 529 b 286 539 282 535 283 539 b 294 526 289 539 292 533 l 388 292 b 393 278 390 283 393 279 b 379 272 393 275 390 272 z m 324 911 l 501 764 l 532 764 l 358 997 l 288 997 l 115 764 l 146 764 z "},"":{"ha":643,"x_min":0,"x_max":0,"o":"m 642 32 b 594 53 617 38 604 40 b 494 288 585 65 508 253 l 328 694 l 304 694 l 188 379 b 75 88 151 282 115 183 b -3 32 57 46 51 38 l -3 -3 b 78 0 19 -1 44 0 b 183 -3 97 0 106 0 l 183 32 l 142 35 b 104 47 108 38 104 38 b 118 90 104 51 106 56 l 165 222 b 183 239 169 233 175 239 l 388 239 b 417 221 408 239 410 238 l 457 118 b 479 53 463 104 479 63 b 440 36 479 39 471 39 l 381 32 l 381 -3 b 525 0 422 -1 458 0 b 642 -3 581 0 613 -1 z m 204 272 b 188 278 193 272 188 275 b 190 289 188 281 189 283 l 279 529 b 286 539 282 535 283 539 b 294 526 289 539 292 533 l 388 292 b 393 278 390 283 393 279 b 379 272 393 275 390 272 z m 518 942 b 433 869 507 917 486 869 b 346 903 407 869 378 886 b 238 936 314 919 278 936 b 100 800 183 936 122 894 l 129 800 b 210 864 139 824 156 864 b 301 832 242 864 271 847 b 401 800 332 815 364 800 b 547 942 510 800 539 911 z "},"":{"ha":643,"x_min":0,"x_max":0,"o":"m 642 32 b 594 53 617 38 604 40 b 494 288 585 65 508 253 l 328 694 l 304 694 l 188 379 b 75 88 151 282 115 183 b -3 32 57 46 51 38 l -3 -3 b 78 0 19 -1 44 0 b 183 -3 97 0 106 0 l 183 32 l 142 35 b 104 47 108 38 104 38 b 118 90 104 51 106 56 l 165 222 b 183 239 169 233 175 239 l 388 239 b 417 221 408 239 410 238 l 457 118 b 479 53 463 104 479 63 b 440 36 479 39 471 39 l 381 32 l 381 -3 b 525 0 422 -1 458 0 b 642 -3 581 0 613 -1 z m 204 272 b 188 278 193 272 188 275 b 190 289 188 281 189 283 l 279 529 b 286 539 282 535 283 539 b 294 526 289 539 292 533 l 388 292 b 393 278 390 283 393 279 b 379 272 393 275 390 272 z m 249 861 b 194 918 249 899 222 918 b 131 850 161 918 131 896 b 185 792 131 826 153 792 b 249 861 219 792 249 824 z m 517 861 b 463 918 517 899 490 918 b 399 850 429 918 399 896 b 453 792 399 826 421 792 b 517 861 488 792 517 824 z "},"":{"ha":643,"x_min":0,"x_max":0,"o":"m 642 32 b 594 53 617 38 604 40 b 494 288 585 65 508 253 l 328 694 l 304 694 l 188 379 b 75 88 151 282 115 183 b -3 32 57 46 51 38 l -3 -3 b 78 0 19 -1 44 0 b 183 -3 97 0 106 0 l 183 32 l 142 35 b 104 47 108 38 104 38 b 118 90 104 51 106 56 l 165 222 b 183 239 169 233 175 239 l 388 239 b 417 221 408 239 410 238 l 457 118 b 479 53 463 104 479 63 b 440 36 479 39 471 39 l 381 32 l 381 -3 b 525 0 422 -1 458 0 b 642 -3 581 0 613 -1 z m 204 272 b 188 278 193 272 188 275 b 190 289 188 281 189 283 l 279 529 b 286 539 282 535 283 539 b 294 526 289 539 292 533 l 388 292 b 393 278 390 283 393 279 b 379 272 393 275 390 272 z m 458 879 b 324 1014 458 954 399 1014 b 189 879 249 1014 189 954 b 324 744 189 806 249 744 b 458 879 399 744 458 806 z m 417 879 b 324 786 417 828 375 786 b 231 879 272 786 231 828 b 324 972 231 931 272 972 b 417 879 375 972 417 931 z "},"":{"ha":951,"x_min":0,"x_max":0,"o":"m 875 185 l 836 185 l 792 31 l 590 31 b 507 96 514 31 510 31 b 506 336 506 117 506 139 b 654 332 532 336 624 336 b 672 219 661 331 667 314 l 714 219 b 711 338 711 264 711 292 b 715 488 711 407 714 451 l 675 488 b 653 376 671 415 668 385 b 506 367 636 368 535 367 l 506 642 l 631 642 b 776 624 733 642 761 640 b 797 515 793 606 796 546 l 839 515 l 839 672 b 547 669 742 671 644 669 l 450 669 b 278 672 393 669 335 671 l 278 639 b 369 629 340 639 369 635 b 69 132 369 618 132 232 b -42 36 15 46 8 38 l -42 -3 b 147 0 47 0 49 0 l 147 33 b 65 47 78 36 65 38 b 85 86 65 53 67 56 l 197 278 l 406 278 b 403 36 406 211 406 99 l 318 32 l 318 -3 b 574 0 369 -1 401 -1 l 863 0 z m 215 308 l 393 608 l 404 608 b 406 308 406 564 406 368 z "},"":{"ha":746,"x_min":0,"x_max":0,"o":"m 675 221 l 649 221 b 419 17 614 103 544 17 b 164 339 304 17 164 113 b 408 661 164 544 276 661 b 635 461 499 661 610 599 l 665 461 l 665 651 l 631 653 b 604 635 625 646 617 635 b 399 694 586 635 517 694 b 56 333 228 694 56 565 b 339 -19 56 133 189 7 l 288 -137 l 303 -146 b 347 -133 315 -140 328 -133 b 417 -196 385 -133 417 -157 b 328 -264 417 -215 406 -264 b 240 -247 290 -264 261 -254 l 231 -276 b 346 -300 269 -293 306 -300 b 508 -185 446 -300 508 -256 b 396 -86 508 -125 463 -86 b 338 -97 368 -86 350 -92 l 369 -22 b 401 -25 381 -25 392 -25 b 664 53 494 -25 585 6 z "},"":{"ha":721,"x_min":0,"x_max":0,"o":"m 642 185 l 604 185 l 558 31 l 311 31 b 247 96 256 31 247 42 l 247 336 b 404 333 275 336 383 336 b 431 219 424 329 428 319 l 472 219 b 469 338 471 264 469 292 b 475 488 469 407 472 451 l 433 488 b 410 376 432 418 425 386 b 247 367 392 367 276 367 l 247 642 l 465 642 b 565 515 543 642 557 633 l 607 515 l 607 672 b 239 669 450 669 272 669 b 54 672 150 669 104 671 l 54 638 l 144 633 b 147 228 147 568 147 535 b 144 36 147 101 146 86 l 58 32 l 58 -3 b 315 0 111 -1 143 -1 l 631 0 z m 429 764 l 463 764 l 260 967 b 203 1000 240 988 226 1000 b 158 957 182 1000 158 985 b 192 910 158 933 172 921 z "},"":{"ha":721,"x_min":0,"x_max":0,"o":"m 642 185 l 604 185 l 558 31 l 311 31 b 247 96 256 31 247 42 l 247 336 b 404 333 275 336 383 336 b 431 219 424 329 428 319 l 472 219 b 469 338 471 264 469 292 b 475 488 469 407 472 451 l 433 488 b 410 376 432 418 425 386 b 247 367 392 367 276 367 l 247 642 l 465 642 b 565 515 543 642 557 633 l 607 515 l 607 672 b 239 669 450 669 272 669 b 54 672 150 669 104 671 l 54 638 l 144 633 b 147 228 147 568 147 535 b 144 36 147 101 146 86 l 58 32 l 58 -3 b 315 0 111 -1 143 -1 l 631 0 z m 296 764 l 533 910 b 565 957 553 921 565 933 b 522 1000 565 981 547 1000 b 465 967 497 1000 479 982 l 263 764 z "},"":{"ha":721,"x_min":0,"x_max":0,"o":"m 642 185 l 604 185 l 558 31 l 311 31 b 247 96 256 31 247 42 l 247 336 b 404 333 275 336 383 336 b 431 219 424 329 428 319 l 472 219 b 469 338 471 264 469 292 b 475 488 469 407 472 451 l 433 488 b 410 376 432 418 425 386 b 247 367 392 367 276 367 l 247 642 l 465 642 b 565 515 543 642 557 633 l 607 515 l 607 672 b 239 669 450 669 272 669 b 54 672 150 669 104 671 l 54 638 l 144 633 b 147 228 147 568 147 535 b 144 36 147 101 146 86 l 58 32 l 58 -3 b 315 0 111 -1 143 -1 l 631 0 z m 363 911 l 540 764 l 571 764 l 397 997 l 326 997 l 154 764 l 185 764 z "},"":{"ha":721,"x_min":0,"x_max":0,"o":"m 642 185 l 604 185 l 558 31 l 311 31 b 247 96 256 31 247 42 l 247 336 b 404 333 275 336 383 336 b 431 219 424 329 428 319 l 472 219 b 469 338 471 264 469 292 b 475 488 469 407 472 451 l 433 488 b 410 376 432 418 425 386 b 247 367 392 367 276 367 l 247 642 l 465 642 b 565 515 543 642 557 633 l 607 515 l 607 672 b 239 669 450 669 272 669 b 54 672 150 669 104 671 l 54 638 l 144 633 b 147 228 147 568 147 535 b 144 36 147 101 146 86 l 58 32 l 58 -3 b 315 0 111 -1 143 -1 l 631 0 z m 288 861 b 233 918 288 899 261 918 b 169 850 200 918 169 896 b 224 792 169 826 192 792 b 288 861 258 792 288 824 z m 556 861 b 501 918 556 899 529 918 b 438 850 468 918 438 896 b 492 792 438 826 460 792 b 556 861 526 792 556 824 z "},"":{"ha":411,"x_min":0,"x_max":0,"o":"m 258 36 b 256 442 256 101 256 135 b 258 633 256 568 257 583 l 346 638 l 346 672 b 206 669 306 671 278 669 b 67 672 133 669 96 671 l 67 638 l 153 633 b 156 228 156 568 156 535 b 153 36 156 101 156 86 l 67 32 l 67 -3 b 206 0 106 -1 133 0 b 346 -3 278 0 315 -1 l 346 32 z m 274 764 l 307 764 l 104 967 b 47 1000 85 988 71 1000 b 3 957 26 1000 3 985 b 36 910 3 933 17 921 z "},"":{"ha":411,"x_min":0,"x_max":0,"o":"m 258 36 b 256 442 256 101 256 135 b 258 633 256 568 257 583 l 346 638 l 346 672 b 206 669 306 671 278 669 b 67 672 133 669 96 671 l 67 638 l 153 633 b 156 228 156 568 156 535 b 153 36 156 101 156 86 l 67 32 l 67 -3 b 206 0 106 -1 133 0 b 346 -3 278 0 315 -1 l 346 32 z m 140 764 l 378 910 b 410 957 397 921 410 933 b 367 1000 410 981 392 1000 b 310 967 342 1000 324 982 l 107 764 z "},"":{"ha":411,"x_min":0,"x_max":0,"o":"m 258 36 b 256 442 256 101 256 135 b 258 633 256 568 257 583 l 346 638 l 346 672 b 206 669 306 671 278 669 b 67 672 133 669 96 671 l 67 638 l 153 633 b 156 228 156 568 156 535 b 153 36 156 101 156 86 l 67 32 l 67 -3 b 206 0 106 -1 133 0 b 346 -3 278 0 315 -1 l 346 32 z m 207 911 l 385 764 l 415 764 l 242 997 l 171 997 l -1 764 l 29 764 z "},"":{"ha":411,"x_min":0,"x_max":0,"o":"m 258 36 b 256 442 256 101 256 135 b 258 633 256 568 257 583 l 346 638 l 346 672 b 206 669 306 671 278 669 b 67 672 133 669 96 671 l 67 638 l 153 633 b 156 228 156 568 156 535 b 153 36 156 101 156 86 l 67 32 l 67 -3 b 206 0 106 -1 133 0 b 346 -3 278 0 315 -1 l 346 32 z m 132 861 b 78 918 132 899 106 918 b 14 850 44 918 14 896 b 68 792 14 826 36 792 b 132 861 103 792 132 824 z m 400 861 b 346 918 400 899 374 918 b 282 850 313 918 282 896 b 336 792 282 826 304 792 b 400 861 371 792 400 824 z "},"":{"ha":797,"x_min":0,"x_max":0,"o":"m 147 325 l 147 228 b 144 36 147 101 146 86 l 58 32 l 58 -3 b 194 0 99 -1 135 0 b 371 -3 219 0 343 -3 b 742 343 608 -3 742 140 b 374 678 742 535 618 678 b 58 669 268 678 164 669 l 58 636 l 144 633 b 146 361 146 590 147 561 l 36 361 l 36 325 z m 456 325 l 456 361 l 249 361 b 250 625 247 518 249 610 b 264 643 250 635 253 640 b 325 647 275 646 311 647 b 642 329 515 647 642 528 b 357 28 642 183 567 28 b 253 43 338 28 263 29 b 247 196 247 51 247 172 b 249 325 247 247 247 304 z "},"":{"ha":797,"x_min":0,"x_max":0,"o":"m 668 -11 l 668 333 b 671 633 668 376 669 586 l 756 638 l 756 672 b 646 669 718 671 689 669 b 540 672 600 669 565 671 l 540 638 l 629 633 b 635 353 631 542 633 424 l 635 171 l 632 171 b 596 218 629 178 610 203 b 224 669 492 343 328 544 b 50 672 135 669 106 669 l 50 636 b 131 604 71 633 106 631 b 139 561 138 596 138 593 l 139 325 b 133 36 138 283 136 82 l 50 32 l 50 -3 b 156 0 75 -1 110 0 b 264 -3 199 0 235 -1 l 264 32 l 178 36 b 172 347 178 81 172 299 l 172 564 b 399 296 208 522 226 500 b 649 -11 488 190 590 63 z m 594 942 b 510 869 583 917 563 869 b 422 903 483 869 454 886 b 314 936 390 919 354 936 b 176 800 260 936 199 894 l 206 800 b 286 864 215 824 232 864 b 378 832 318 864 347 847 b 478 800 408 815 440 800 b 624 942 586 800 615 911 z "},"":{"ha":797,"x_min":0,"x_max":0,"o":"m 56 329 b 399 -22 56 160 171 -22 b 744 349 621 -22 744 163 b 406 694 744 535 629 694 b 56 329 175 694 56 515 z m 164 331 b 406 664 164 586 311 664 b 636 343 524 664 636 547 b 407 8 636 172 551 8 b 164 331 279 8 164 136 z m 467 764 l 500 764 l 297 967 b 240 1000 278 988 264 1000 b 196 957 219 1000 196 985 b 229 910 196 933 210 921 z "},"":{"ha":797,"x_min":0,"x_max":0,"o":"m 56 329 b 399 -22 56 160 171 -22 b 744 349 621 -22 744 163 b 406 694 744 535 629 694 b 56 329 175 694 56 515 z m 164 331 b 406 664 164 586 311 664 b 636 343 524 664 636 547 b 407 8 636 172 551 8 b 164 331 279 8 164 136 z m 333 764 l 571 910 b 603 957 590 921 603 933 b 560 1000 603 981 585 1000 b 503 967 535 1000 517 982 l 300 764 z "},"":{"ha":797,"x_min":0,"x_max":0,"o":"m 56 329 b 399 -22 56 160 171 -22 b 744 349 621 -22 744 163 b 406 694 744 535 629 694 b 56 329 175 694 56 515 z m 164 331 b 406 664 164 586 311 664 b 636 343 524 664 636 547 b 407 8 636 172 551 8 b 164 331 279 8 164 136 z m 400 911 l 578 764 l 608 764 l 435 997 l 364 997 l 192 764 l 222 764 z "},"":{"ha":797,"x_min":0,"x_max":0,"o":"m 56 329 b 399 -22 56 160 171 -22 b 744 349 621 -22 744 163 b 406 694 744 535 629 694 b 56 329 175 694 56 515 z m 164 331 b 406 664 164 586 311 664 b 636 343 524 664 636 547 b 407 8 636 172 551 8 b 164 331 279 8 164 136 z m 594 942 b 510 869 583 917 563 869 b 422 903 483 869 454 886 b 314 936 390 919 354 936 b 176 800 260 936 199 894 l 206 800 b 286 864 215 824 232 864 b 378 832 318 864 347 847 b 478 800 408 815 440 800 b 624 942 586 800 615 911 z "},"":{"ha":797,"x_min":0,"x_max":0,"o":"m 56 329 b 399 -22 56 160 171 -22 b 744 349 621 -22 744 163 b 406 694 744 535 629 694 b 56 329 175 694 56 515 z m 164 331 b 406 664 164 586 311 664 b 636 343 524 664 636 547 b 407 8 636 172 551 8 b 164 331 279 8 164 136 z m 325 861 b 271 918 325 899 299 918 b 207 850 238 918 207 896 b 261 792 207 826 229 792 b 325 861 296 792 325 824 z m 593 861 b 539 918 593 899 567 918 b 475 850 506 918 475 896 b 529 792 475 826 497 792 b 593 861 564 792 593 824 z "},"":{"ha":1054,"x_min":0,"x_max":0,"o":"m 525 86 b 413 14 525 33 506 14 b 163 347 213 14 163 228 b 407 656 163 468 211 656 b 522 617 450 656 517 647 b 525 290 525 603 525 329 z m 982 0 l 994 185 l 956 185 l 911 31 l 710 31 b 626 96 633 31 629 29 b 625 336 625 117 625 139 b 776 329 733 336 767 335 b 792 219 785 326 786 293 l 833 219 b 831 338 831 264 831 292 b 835 488 831 407 833 451 l 794 488 b 772 376 792 424 788 383 b 625 367 756 368 654 367 l 625 642 l 750 642 b 896 624 853 642 881 640 b 917 515 913 606 915 546 l 958 515 l 958 672 b 686 669 894 672 724 669 b 564 674 653 669 603 669 b 397 686 508 678 428 686 b 54 336 121 686 54 463 b 388 -17 54 149 169 -17 b 542 -4 415 -17 461 -12 b 693 0 571 -1 610 0 z "},"":{"ha":797,"x_min":0,"x_max":0,"o":"m 236 99 b 164 331 192 156 164 235 b 406 664 164 586 311 664 b 521 622 446 664 486 650 z m 557 589 b 636 343 604 535 636 451 b 407 8 636 172 551 8 b 272 61 358 8 311 28 z m 636 835 l 546 669 b 406 694 504 686 457 694 b 56 329 175 694 56 515 b 203 36 56 218 106 101 l 92 -169 l 146 -169 l 244 11 b 399 -22 289 -11 340 -22 b 744 349 621 -22 744 163 b 589 649 744 474 692 588 l 690 835 z "},"":{"ha":772,"x_min":0,"x_max":0,"o":"m 733 638 l 733 672 b 611 669 681 671 647 669 b 492 672 571 669 525 671 l 492 638 l 586 633 l 589 253 b 408 11 590 144 558 11 b 231 286 278 11 229 125 l 232 633 l 326 638 l 326 672 b 178 669 265 671 226 669 b 36 672 138 669 83 671 l 36 638 l 126 633 l 129 283 b 389 -25 132 110 194 -25 b 642 340 614 -25 640 160 l 644 633 z m 454 764 l 488 764 l 285 967 b 228 1000 265 988 251 1000 b 183 957 207 1000 183 985 b 217 910 183 933 197 921 z "},"":{"ha":772,"x_min":0,"x_max":0,"o":"m 733 638 l 733 672 b 611 669 681 671 647 669 b 492 672 571 669 525 671 l 492 638 l 586 633 l 589 253 b 408 11 590 144 558 11 b 231 286 278 11 229 125 l 232 633 l 326 638 l 326 672 b 178 669 265 671 226 669 b 36 672 138 669 83 671 l 36 638 l 126 633 l 129 283 b 389 -25 132 110 194 -25 b 642 340 614 -25 640 160 l 644 633 z m 321 764 l 558 910 b 590 957 578 921 590 933 b 547 1000 590 981 572 1000 b 490 967 522 1000 504 982 l 288 764 z "},"":{"ha":772,"x_min":0,"x_max":0,"o":"m 733 638 l 733 672 b 611 669 681 671 647 669 b 492 672 571 669 525 671 l 492 638 l 586 633 l 589 253 b 408 11 590 144 558 11 b 231 286 278 11 229 125 l 232 633 l 326 638 l 326 672 b 178 669 265 671 226 669 b 36 672 138 669 83 671 l 36 638 l 126 633 l 129 283 b 389 -25 132 110 194 -25 b 642 340 614 -25 640 160 l 644 633 z m 388 911 l 565 764 l 596 764 l 422 997 l 351 997 l 179 764 l 210 764 z "},"":{"ha":772,"x_min":0,"x_max":0,"o":"m 733 638 l 733 672 b 611 669 681 671 647 669 b 492 672 571 669 525 671 l 492 638 l 586 633 l 589 253 b 408 11 590 144 558 11 b 231 286 278 11 229 125 l 232 633 l 326 638 l 326 672 b 178 669 265 671 226 669 b 36 672 138 669 83 671 l 36 638 l 126 633 l 129 283 b 389 -25 132 110 194 -25 b 642 340 614 -25 640 160 l 644 633 z m 313 861 b 258 918 313 899 286 918 b 194 850 225 918 194 896 b 249 792 194 826 217 792 b 313 861 283 792 313 824 z m 581 861 b 526 918 581 899 554 918 b 463 850 493 918 463 896 b 517 792 463 826 485 792 b 581 861 551 792 581 824 z "},"":{"ha":592,"x_min":0,"x_max":0,"o":"m 140 32 l 140 -3 b 294 0 188 -1 232 0 b 449 -3 357 0 406 -1 l 449 32 l 347 36 b 344 115 346 63 344 85 l 344 347 l 421 454 b 546 615 436 475 522 592 b 615 633 563 632 574 632 l 615 672 b 413 669 567 669 456 669 l 413 636 b 497 625 489 636 497 632 b 490 608 497 621 492 611 l 329 376 l 263 482 b 175 628 258 488 175 617 b 263 638 175 635 196 636 l 263 672 b 106 669 231 672 131 669 b -22 672 72 669 25 671 l -22 638 b 46 625 29 636 35 636 b 140 489 61 613 121 518 l 244 328 b 242 36 244 258 244 93 z m 231 764 l 468 910 b 500 957 488 921 500 933 b 457 1000 500 981 482 1000 b 400 967 432 1000 414 982 l 197 764 z "},"":{"ha":643,"x_min":0,"x_max":0,"o":"m 249 36 b 247 156 247 75 247 94 l 363 156 b 593 347 513 156 593 232 b 392 528 593 447 531 528 b 247 522 369 528 328 525 b 249 633 247 567 247 583 l 344 638 l 344 672 b 200 669 319 672 279 669 b 54 672 119 669 89 671 l 54 638 l 144 633 b 147 214 147 572 147 536 b 144 36 147 97 146 86 l 54 32 l 54 -3 b 200 0 89 -1 119 0 b 344 -3 279 0 319 -1 l 344 32 z m 247 492 b 293 494 264 493 275 494 b 499 342 394 494 499 463 b 363 190 499 269 450 204 b 247 186 336 186 297 183 z "},"":{"ha":592,"x_min":0,"x_max":0,"o":"m 140 32 l 140 -3 b 294 0 188 -1 232 0 b 449 -3 357 0 406 -1 l 449 32 l 347 36 b 344 115 346 63 344 85 l 344 347 l 421 454 b 546 615 436 475 522 592 b 615 633 563 632 574 632 l 615 672 b 413 669 567 669 456 669 l 413 636 b 497 625 489 636 497 632 b 490 608 497 621 492 611 l 329 376 l 263 482 b 175 628 258 488 175 617 b 263 638 175 635 196 636 l 263 672 b 106 669 231 672 131 669 b -22 672 72 669 25 671 l -22 638 b 46 625 29 636 35 636 b 140 489 61 613 121 518 l 244 328 b 242 36 244 258 244 93 z m 222 861 b 168 918 222 899 196 918 b 104 850 135 918 104 896 b 158 792 104 826 126 792 b 222 861 193 792 222 824 z m 490 861 b 436 918 490 899 464 918 b 372 850 403 918 372 896 b 426 792 372 826 394 792 b 490 861 461 792 490 824 z "},"∆":{"ha":793,"x_min":0,"x_max":0,"o":"m 749 0 l 749 26 l 411 992 l 372 978 l 44 26 l 44 0 z m 638 54 l 107 54 l 369 835 z "},"Ω":{"ha":907,"x_min":0,"x_max":0,"o":"m 864 179 l 833 181 b 738 74 806 83 792 74 l 600 74 b 814 554 685 174 814 344 b 456 992 814 829 661 992 b 92 543 253 992 92 819 b 304 74 92 311 231 151 l 168 74 b 71 181 121 74 97 88 l 43 179 l 71 0 l 356 0 l 365 22 b 194 535 296 153 194 329 b 453 954 194 838 313 954 b 714 542 582 954 713 839 b 540 22 715 329 597 139 l 547 0 l 835 0 z "},"μ":{"ha":772,"x_min":0,"x_max":0,"o":"m 60 536 l 131 529 l 131 -332 b 144 -361 131 -351 133 -361 l 208 -361 b 229 -339 226 -361 229 -357 l 229 -22 b 236 -1 229 -4 232 -1 b 267 -8 242 -1 253 -6 b 313 -17 281 -12 297 -17 b 532 28 424 -17 519 28 b 588 -14 553 28 542 -14 b 708 8 615 -14 676 1 l 708 50 l 639 50 l 639 600 l 450 583 l 450 536 b 539 496 532 535 539 531 l 539 100 b 524 46 539 60 533 51 b 385 19 508 36 450 19 b 231 167 264 19 231 58 l 231 600 l 60 583 z "},"π":{"ha":717,"x_min":0,"x_max":0,"o":"m 649 658 b 571 613 626 619 611 613 b 233 618 440 613 326 618 b 18 506 103 619 53 546 l 36 481 b 206 546 81 517 113 546 b 82 4 206 394 182 131 l 90 -17 b 163 7 110 -15 144 -1 b 250 513 181 31 250 189 l 250 543 b 463 540 306 543 385 543 b 449 160 456 424 449 290 b 557 -17 449 19 493 -17 b 682 74 600 -17 649 8 l 664 97 b 596 51 640 65 624 51 b 535 183 550 51 536 101 b 542 538 535 282 533 453 b 633 542 579 538 613 538 b 678 646 650 567 667 596 z "},"€":{"ha":694,"x_min":0,"x_max":0,"o":"m 613 279 b 575 135 610 260 600 194 b 522 56 563 106 546 76 b 425 17 496 32 460 17 b 267 150 336 17 290 97 b 204 407 221 249 208 347 l 476 407 l 485 440 l 203 440 b 201 506 203 463 201 483 b 200 560 201 524 200 542 l 521 560 l 529 593 l 200 593 b 254 840 204 663 218 757 b 407 967 301 947 367 967 b 468 950 428 967 450 960 b 528 896 492 938 511 918 b 603 724 561 853 589 788 l 631 724 l 631 949 l 596 949 b 576 925 592 938 586 925 b 501 969 565 925 531 954 b 400 997 465 989 435 997 b 189 869 318 997 246 960 b 106 593 136 786 113 674 l 40 593 l 32 560 l 103 560 b 100 504 101 546 100 522 b 103 440 100 478 101 451 l 40 440 l 31 407 l 103 407 b 183 110 107 324 129 201 b 399 -25 236 18 307 -25 b 625 64 488 -25 574 24 l 639 279 z "},"ℓ":{"ha":514,"x_min":0,"x_max":0,"o":"m 465 144 b 325 50 431 88 386 50 b 207 285 253 50 207 99 l 207 435 b 396 858 304 544 396 685 b 288 1039 396 958 360 1039 b 189 979 250 1039 218 1019 b 122 593 132 911 122 836 l 122 419 l 29 338 l 46 310 l 122 374 l 122 243 b 164 40 122 131 135 81 b 289 -14 189 6 232 -14 b 489 125 375 -14 443 33 z m 207 678 b 276 1000 207 911 226 1000 b 340 860 318 1000 340 943 b 207 492 340 739 285 594 z "},"℮":{"ha":1221,"x_min":0,"x_max":0,"o":"m 1172 475 l 1172 489 b 608 994 1172 769 921 994 b 47 489 299 994 47 769 b 608 -15 47 210 299 -15 b 1054 181 790 -15 953 63 l 972 181 b 610 13 885 79 756 13 b 265 163 475 13 354 71 b 254 194 258 171 254 182 l 254 469 b 261 475 254 474 257 475 z m 965 511 b 960 503 965 508 964 503 l 261 503 b 254 511 257 503 254 508 l 254 782 b 268 817 254 796 258 808 b 610 965 356 907 476 965 b 951 821 743 965 864 908 b 965 789 961 813 965 800 z "},"∂":{"ha":663,"x_min":0,"x_max":0,"o":"m 332 600 b 131 494 251 600 175 553 b 57 267 92 442 57 363 b 285 -14 57 89 149 -14 b 533 203 400 -14 482 75 b 593 561 578 311 593 460 b 532 885 593 643 582 778 b 278 1083 474 1008 396 1083 b 106 1026 208 1083 147 1058 b 138 958 94 999 118 956 b 304 1026 182 996 240 1026 b 483 875 390 1026 458 946 b 519 650 510 800 521 722 b 510 500 518 596 514 546 b 333 600 465 571 393 600 z m 354 551 b 500 444 426 551 483 486 b 438 172 488 333 474 258 b 282 24 407 99 356 24 b 147 218 197 24 146 119 b 206 467 147 310 165 401 b 351 551 244 524 293 551 z "},"∏":{"ha":853,"x_min":0,"x_max":0,"o":"m 815 975 l 36 975 l 36 944 b 151 860 144 936 151 929 l 151 3 b 40 -94 151 -79 140 -86 l 40 -125 l 338 -125 l 338 -94 b 238 3 236 -83 238 -75 l 238 899 b 281 936 238 932 244 936 l 569 936 b 614 894 607 936 614 931 l 614 3 b 506 -94 614 -82 606 -86 l 506 -125 l 813 -125 l 813 -94 b 700 4 708 -86 700 -75 l 700 860 b 815 944 700 928 706 936 z "},"∑":{"ha":694,"x_min":0,"x_max":0,"o":"m 664 107 l 632 115 b 457 -44 581 -36 565 -44 l 121 -44 l 411 468 l 158 936 l 422 936 b 557 894 521 936 540 926 b 596 763 572 865 586 826 l 628 769 b 613 975 622 853 614 950 l 46 975 l 46 949 l 332 408 l 39 -99 l 39 -125 l 611 -125 z "},"∙":{"ha":347,"x_min":0,"x_max":0,"o":"m 240 293 b 174 360 240 331 211 360 b 107 293 136 360 107 331 b 174 226 107 257 136 226 b 240 293 211 226 240 257 z "},"√":{"ha":704,"x_min":0,"x_max":0,"o":"m 675 1261 l 629 1272 l 451 -1 l 450 -1 l 224 635 l 39 549 l 51 508 l 164 563 l 444 -211 l 467 -199 z "},"∞":{"ha":986,"x_min":0,"x_max":0,"o":"m 921 408 b 736 603 921 524 846 603 b 499 451 629 604 564 525 b 261 603 431 532 358 603 b 63 401 146 603 63 518 b 253 204 63 289 149 204 b 494 354 357 204 426 278 b 728 204 583 253 647 204 b 921 407 829 204 921 282 z m 261 263 b 126 400 182 263 126 324 b 254 546 126 478 172 546 b 460 400 344 546 403 469 b 263 263 407 342 344 263 z m 729 546 b 858 401 804 546 858 493 b 732 263 858 335 813 263 b 531 404 663 263 614 311 b 728 546 574 451 643 546 z "},"∫":{"ha":475,"x_min":0,"x_max":0,"o":"m 211 32 b 151 -204 218 -112 193 -204 b 88 -151 121 -204 122 -151 b 29 -204 54 -151 28 -174 b 101 -261 29 -233 57 -261 b 289 347 210 -261 311 -171 l 265 894 b 329 1133 257 1088 299 1133 b 397 1083 361 1133 357 1083 b 446 1132 424 1083 446 1100 b 376 1188 446 1169 406 1188 b 186 624 267 1188 165 1097 z "},"≈":{"ha":693,"x_min":0,"x_max":0,"o":"m 596 585 b 479 488 561 522 529 488 b 365 532 438 488 408 507 b 225 583 332 550 286 583 b 54 460 153 583 90 536 l 96 428 b 218 524 126 481 161 524 b 333 479 258 524 293 504 b 475 428 390 447 426 428 b 636 551 553 428 606 483 z m 596 371 b 481 274 561 308 531 274 b 365 318 436 274 406 294 b 225 369 332 336 288 369 b 54 244 153 369 90 322 l 96 213 b 218 310 125 264 160 310 b 333 265 258 310 293 289 b 476 214 390 232 426 214 b 636 338 554 214 604 269 z "},"≠":{"ha":693,"x_min":0,"x_max":0,"o":"m 492 674 l 443 696 l 378 551 l 64 551 l 64 489 l 354 489 l 272 304 l 64 304 l 64 243 l 247 243 l 192 118 l 240 97 l 306 243 l 628 243 l 628 304 l 329 304 l 413 489 l 628 489 l 628 551 l 436 551 z "},"≤":{"ha":693,"x_min":0,"x_max":0,"o":"m 625 150 l 625 226 l 138 475 l 138 478 l 625 725 l 625 800 l 71 508 l 71 443 z m 629 32 l 629 97 l 64 97 l 64 32 z "},"≥":{"ha":693,"x_min":0,"x_max":0,"o":"m 72 800 l 72 725 l 558 476 l 558 474 l 72 226 l 72 150 l 626 443 l 626 508 z m 628 32 l 628 97 l 65 97 l 65 32 z "},"◊":{"ha":713,"x_min":0,"x_max":0,"o":"m 647 475 l 393 1042 l 321 1042 l 65 475 l 319 -89 l 393 -89 z m 576 475 l 360 -21 l 356 -21 l 135 476 l 356 971 l 360 971 z "}," ":{"ha":347,"x_min":0,"x_max":0,"o":""},"­":{"ha":360,"x_min":0,"x_max":0,"o":"m 346 251 l 346 335 l 14 335 l 14 251 z "},"ˉ":{"ha":386,"x_min":0,"x_max":0,"o":"m -17 739 l 403 739 l 403 806 l -17 806 z "},"":{"ha":694,"x_min":0,"x_max":0,"o":"m 39 296 b 347 -17 39 128 172 -17 b 656 296 519 -17 656 125 b 347 608 656 467 519 608 b 39 296 172 608 39 464 z m 103 296 b 347 556 103 413 189 556 b 592 296 500 556 592 418 b 347 36 592 174 500 36 b 103 296 189 36 103 181 z "},"":{"ha":694,"x_min":0,"x_max":0,"o":"m 526 32 l 410 42 l 410 608 l 193 586 l 193 536 l 307 535 b 304 42 311 371 304 206 l 186 32 l 186 -4 b 354 0 215 -3 336 0 b 526 -4 379 0 394 0 z "},"":{"ha":694,"x_min":0,"x_max":0,"o":"m 83 -3 b 257 0 131 -1 183 0 l 576 0 l 588 172 l 551 172 l 542 94 l 228 94 b 525 463 404 246 525 349 b 325 608 525 533 468 608 b 153 582 269 608 197 594 l 131 482 b 135 472 129 476 131 472 b 178 488 142 472 171 486 b 321 514 208 497 264 514 b 447 421 394 514 447 469 b 83 17 447 288 160 81 z "},"":{"ha":694,"x_min":0,"x_max":0,"o":"m 135 467 b 324 511 171 482 242 511 b 458 397 397 511 458 474 b 224 150 458 275 289 183 b 186 124 190 133 186 132 b 224 107 186 111 190 111 b 489 -72 283 101 489 69 b 171 -351 489 -231 293 -312 b 147 -364 149 -357 147 -358 b 157 -383 147 -369 149 -383 b 347 -319 163 -383 257 -358 b 583 -49 546 -233 583 -117 b 339 183 583 108 421 158 b 536 439 475 276 536 353 b 310 608 536 532 460 608 b 146 578 233 608 182 592 z "},"":{"ha":694,"x_min":0,"x_max":0,"o":"m 665 0 l 665 76 l 506 75 l 507 613 l 485 613 l 17 25 l 17 0 l 408 0 l 404 -361 l 503 -361 l 506 0 z m 93 69 l 410 474 l 413 471 l 408 74 z "},"":{"ha":694,"x_min":0,"x_max":0,"o":"m 567 499 l 572 649 l 536 649 l 532 596 b 451 592 504 593 478 592 l 175 592 l 176 172 b 478 -11 385 149 478 100 b 168 -344 478 -100 408 -239 b 138 -364 149 -353 138 -358 b 149 -378 138 -372 140 -378 b 569 18 169 -378 569 -253 b 210 271 569 211 361 250 l 213 494 z "},"":{"ha":694,"x_min":0,"x_max":0,"o":"m 606 1003 b 58 381 200 992 58 622 b 361 -17 58 71 232 -17 b 643 300 488 -17 643 75 b 376 601 643 528 492 601 b 175 540 282 601 206 557 b 608 983 226 781 372 929 z m 543 299 b 364 11 543 176 501 11 b 158 386 225 11 158 178 b 169 501 158 446 164 471 b 339 560 189 517 244 560 b 543 299 501 560 543 419 z "},"":{"ha":694,"x_min":0,"x_max":0,"o":"m 568 500 b 210 -367 567 496 217 -351 l 272 -367 b 607 501 382 -76 486 215 b 640 592 638 576 640 585 l 82 592 l 78 403 l 111 403 l 121 494 z "},"":{"ha":694,"x_min":0,"x_max":0,"o":"m 617 254 b 399 549 617 425 481 503 b 569 776 453 578 569 642 b 342 997 569 864 508 997 b 97 763 197 997 97 894 b 269 507 97 614 207 546 b 81 250 165 450 81 393 b 346 -17 81 106 185 -17 b 617 254 501 -17 617 104 z m 525 228 b 333 14 525 100 428 14 b 139 253 226 14 139 111 b 301 489 139 397 233 450 b 525 228 417 435 525 374 z m 517 775 b 365 564 517 658 438 604 b 183 790 292 600 183 653 b 350 967 183 901 263 967 b 517 775 450 967 517 881 z "},"":{"ha":694,"x_min":0,"x_max":0,"o":"m 47 304 b 332 13 47 138 172 13 b 511 56 413 13 479 42 b 258 -344 489 -18 446 -168 b 232 -374 253 -349 232 -369 b 243 -383 232 -379 238 -383 b 418 -260 251 -383 343 -329 b 642 254 625 -67 642 182 b 343 608 642 481 507 608 b 47 304 183 608 47 478 z m 147 319 b 333 578 147 485 229 578 b 542 257 443 578 542 476 b 522 97 542 179 532 138 b 379 54 483 72 422 54 b 147 319 296 54 147 101 z "},"":{"ha":694,"x_min":0,"x_max":0,"o":"m 358 -192 l 358 0 b 628 265 540 10 628 136 b 358 546 628 429 499 496 l 358 950 b 547 847 444 944 503 906 l 590 886 b 358 981 540 932 485 971 l 358 1088 l 326 1088 l 326 981 b 78 740 135 969 78 836 b 326 457 78 557 233 494 l 326 31 b 101 153 254 33 192 50 l 64 108 b 326 0 154 22 236 6 l 326 -192 z m 358 444 b 544 235 419 424 544 376 b 358 31 544 114 478 58 z m 326 557 b 156 765 278 576 156 625 b 326 950 156 875 225 938 z "},"":{"ha":694,"x_min":0,"x_max":0,"o":"m 257 119 b 175 331 208 165 175 235 b 388 600 175 507 286 600 b 461 564 429 600 450 589 z m 479 517 b 488 482 482 507 485 496 b 554 425 499 435 510 425 b 590 449 585 425 590 429 b 510 583 590 493 563 546 l 590 757 l 551 757 l 479 601 b 354 631 444 619 403 631 b 75 303 146 631 75 425 b 218 35 75 186 129 85 l 126 -161 l 165 -161 l 249 19 b 344 0 276 7 310 0 b 586 156 454 0 542 57 l 567 168 b 394 61 540 131 492 61 b 285 96 357 61 318 72 z "},"":{"ha":1132,"x_min":0,"x_max":0,"o":"m 639 -3 l 665 -3 b 688 18 669 10 674 18 b 863 -25 697 18 793 -25 b 1081 169 961 -25 1081 39 b 711 550 1081 413 711 389 b 844 664 711 604 754 664 b 1028 493 913 664 990 626 l 1056 493 l 1053 681 l 1025 681 b 1003 657 1022 671 1018 657 b 840 694 990 657 910 694 b 633 511 732 694 633 632 b 997 135 633 282 997 311 b 860 6 997 67 946 6 b 664 194 738 6 690 90 l 633 194 z m 72 -3 l 99 -3 b 121 18 103 10 107 18 b 296 -25 131 18 226 -25 b 514 169 394 -25 514 39 b 144 550 514 413 144 389 b 278 664 144 604 188 664 b 461 493 346 664 424 626 l 489 493 l 486 681 l 458 681 b 436 657 456 671 451 657 b 274 694 424 657 343 694 b 67 511 165 694 67 632 b 431 135 67 282 431 311 b 293 6 431 67 379 6 b 97 194 171 6 124 90 l 67 194 z "},"∕":{"ha":232,"x_min":0,"x_max":0,"o":"m -232 -17 l -168 -17 l 464 997 l 400 997 z "},"":{"ha":643,"x_min":0,"x_max":0,"o":"m 642 32 b 594 53 617 38 604 40 b 494 288 585 65 508 253 l 328 694 l 304 694 l 188 379 b 75 88 151 282 115 183 b -3 32 57 46 51 38 l -3 -3 b 78 0 19 -1 44 0 b 183 -3 97 0 106 0 l 183 32 l 142 35 b 104 47 108 38 104 38 b 118 90 104 51 106 56 l 165 222 b 183 239 169 233 175 239 l 388 239 b 417 221 408 239 410 238 l 457 118 b 479 53 463 104 479 63 b 440 36 479 39 471 39 l 381 32 l 381 -3 b 525 0 422 -1 458 0 b 642 -3 581 0 613 -1 z m 204 272 b 188 278 193 272 188 275 b 190 289 188 281 189 283 l 279 529 b 286 539 282 535 283 539 b 294 526 289 539 292 533 l 388 292 b 393 278 390 283 393 279 b 379 272 393 275 390 272 z "},"":{"ha":694,"x_min":0,"x_max":0,"o":"m 58 -3 b 182 0 101 -1 149 0 b 340 -3 206 0 315 -3 b 617 183 511 -3 617 78 b 475 365 617 275 576 342 b 569 513 504 381 569 417 b 365 678 569 633 475 678 b 64 669 265 678 164 669 l 64 636 l 144 633 b 147 228 147 568 147 535 b 144 36 147 101 146 86 l 58 32 z m 247 331 b 517 182 447 331 517 283 b 317 25 517 99 458 25 b 247 147 267 25 247 32 z m 247 361 l 249 608 b 293 647 249 636 258 647 b 478 500 397 647 478 606 b 328 361 478 424 433 361 z "},"":{"ha":746,"x_min":0,"x_max":0,"o":"m 649 221 b 419 17 614 103 544 17 b 164 339 304 17 164 113 b 408 661 164 544 276 661 b 635 461 499 661 610 599 l 665 461 l 665 651 l 631 653 b 604 635 625 646 617 635 b 399 694 586 635 517 694 b 56 333 228 694 56 565 b 401 -25 56 106 228 -25 b 664 53 494 -25 585 6 l 675 221 z "},"":{"ha":797,"x_min":0,"x_max":0,"o":"m 58 32 l 58 -3 b 194 0 99 -1 135 0 b 371 -3 219 0 343 -3 b 742 343 608 -3 742 140 b 374 678 742 535 618 678 b 58 669 268 678 164 669 l 58 636 l 144 633 b 147 228 147 568 147 535 b 144 36 147 101 146 86 z m 642 329 b 357 28 642 183 567 28 b 253 43 338 28 263 29 b 247 196 247 51 247 172 b 250 625 247 369 247 599 b 264 643 250 635 253 640 b 325 647 275 646 311 647 b 642 329 515 647 642 528 z "},"":{"ha":721,"x_min":0,"x_max":0,"o":"m 642 185 l 604 185 l 558 31 l 311 31 b 247 96 256 31 247 42 l 247 336 b 404 333 275 336 383 336 b 431 219 424 329 428 319 l 472 219 b 469 338 471 264 469 292 b 475 488 469 407 472 451 l 433 488 b 410 376 432 418 425 386 b 247 367 392 367 276 367 l 247 642 l 465 642 b 565 515 543 642 557 633 l 607 515 l 607 672 b 239 669 450 669 272 669 b 54 672 150 669 104 671 l 54 638 l 144 633 b 147 228 147 568 147 535 b 144 36 147 101 146 86 l 58 32 l 58 -3 b 315 0 111 -1 143 -1 l 631 0 z "},"":{"ha":668,"x_min":0,"x_max":0,"o":"m 147 633 b 150 290 153 519 150 404 l 150 36 l 63 32 l 63 -3 b 199 0 104 -1 129 0 b 347 -3 267 0 307 -1 l 347 32 l 251 36 b 250 331 250 96 250 119 b 411 324 276 331 397 331 b 431 211 432 315 431 217 l 472 211 b 469 325 471 240 469 267 b 474 481 469 408 472 454 l 433 481 l 426 411 b 250 361 422 363 408 361 l 250 642 l 464 642 b 575 503 560 642 561 631 l 618 503 l 614 672 b 292 669 526 671 328 669 b 61 672 132 669 96 671 l 61 638 z "},"":{"ha":797,"x_min":0,"x_max":0,"o":"m 760 242 b 625 239 707 239 667 239 b 485 242 585 239 542 239 l 485 204 l 583 201 b 585 128 585 176 585 153 b 583 49 585 103 585 78 b 446 14 542 25 494 14 b 164 344 246 14 164 181 b 406 661 164 553 283 661 b 632 460 467 661 599 624 l 663 460 l 661 651 l 626 651 b 600 633 622 646 615 633 b 393 694 583 633 507 694 b 56 332 206 694 56 540 b 415 -25 56 128 207 -25 b 688 57 511 -25 606 7 l 688 157 b 697 200 688 194 692 197 b 760 206 701 201 707 201 z "},"":{"ha":824,"x_min":0,"x_max":0,"o":"m 574 633 b 576 361 576 571 576 550 l 247 361 b 249 633 247 429 247 571 l 339 638 l 339 672 b 200 669 299 671 271 669 b 61 672 129 669 93 671 l 61 638 l 144 633 b 147 228 147 568 147 535 b 144 36 147 101 146 86 l 61 32 l 61 -3 b 200 0 101 -1 129 0 b 339 -3 271 0 307 -1 l 339 32 l 249 36 b 247 328 247 99 247 121 l 576 328 b 574 36 576 256 576 99 l 483 32 l 483 -3 b 622 0 524 -1 551 0 b 763 -3 693 0 731 -1 l 763 32 l 678 36 b 676 442 676 101 676 135 b 678 633 676 568 676 583 l 763 638 l 763 672 b 622 669 722 671 693 669 b 483 672 551 669 515 671 l 483 638 z "},"":{"ha":411,"x_min":0,"x_max":0,"o":"m 258 36 b 256 442 256 101 256 135 b 258 633 256 568 257 583 l 346 638 l 346 672 b 206 669 306 671 278 669 b 67 672 133 669 96 671 l 67 638 l 153 633 b 156 228 156 568 156 535 b 153 36 156 101 156 86 l 67 32 l 67 -3 b 206 0 106 -1 133 0 b 346 -3 278 0 315 -1 l 346 32 z "},"":{"ha":386,"x_min":0,"x_max":0,"o":"m 35 -303 b 243 -51 169 -276 229 -175 b 246 633 250 4 244 525 l 333 638 l 333 672 b 193 669 299 672 224 669 l 172 669 b 53 672 146 671 92 672 l 53 638 l 142 633 b 146 138 142 563 146 215 b 35 -276 146 -133 150 -214 z "},"":{"ha":694,"x_min":0,"x_max":0,"o":"m 269 325 l 392 182 l 550 0 l 700 0 l 700 33 b 625 78 681 39 661 44 b 483 229 582 119 496 217 l 343 390 l 404 444 b 683 635 611 629 632 631 l 683 672 b 461 669 606 669 589 669 l 461 636 l 501 633 b 544 624 540 632 544 632 b 525 599 544 618 539 613 l 247 342 b 250 633 247 413 247 574 l 338 638 l 338 672 b 200 669 299 671 269 669 b 58 672 126 669 92 671 l 58 638 l 144 633 b 147 228 147 568 147 535 b 144 36 147 101 146 86 l 58 32 l 58 -3 b 200 0 82 -1 124 0 b 346 -3 278 0 314 -1 l 346 32 l 250 36 b 247 306 247 96 247 215 z "},"":{"ha":668,"x_min":0,"x_max":0,"o":"m 626 190 l 588 190 l 533 35 b 358 33 496 33 450 33 b 247 100 256 33 247 42 l 247 444 b 250 633 247 571 247 583 l 346 638 l 346 672 b 200 669 321 672 279 669 b 54 672 122 669 85 671 l 54 638 l 144 633 b 147 214 147 572 147 536 b 144 36 147 97 146 86 l 49 32 l 49 -3 b 206 0 74 -1 114 0 b 607 -3 489 0 524 0 z "},"":{"ha":951,"x_min":0,"x_max":0,"o":"m 54 -3 b 160 0 71 -3 144 0 b 264 -3 176 0 249 -3 l 264 32 l 176 36 l 175 594 l 178 597 l 442 -17 l 458 -17 l 704 608 l 707 608 b 710 325 710 526 710 426 b 707 36 708 224 708 122 l 622 32 l 622 -3 b 769 0 646 -3 749 0 b 896 -3 811 0 854 -1 l 896 32 l 810 36 l 810 633 l 892 638 l 892 672 b 697 669 853 671 779 669 l 485 132 l 257 672 b 172 669 204 669 182 669 b 54 672 165 669 72 672 l 54 638 l 139 633 b 142 494 140 579 142 563 b 138 36 142 378 142 144 l 54 32 z "},"":{"ha":797,"x_min":0,"x_max":0,"o":"m 668 -11 l 668 333 b 671 633 668 376 669 586 l 756 638 l 756 672 b 646 669 718 671 689 669 b 540 672 600 669 565 671 l 540 638 l 629 633 b 635 353 631 542 633 424 l 635 171 l 632 171 b 596 218 629 178 610 203 b 224 669 492 343 328 544 b 50 672 135 669 106 669 l 50 636 b 131 604 71 633 106 631 b 139 561 138 596 138 593 l 139 325 b 133 36 138 283 136 82 l 50 32 l 50 -3 b 156 0 75 -1 110 0 b 264 -3 199 0 235 -1 l 264 32 l 178 36 b 172 347 178 81 172 299 l 172 564 b 399 296 208 522 226 500 b 649 -11 488 190 590 63 z "},"":{"ha":797,"x_min":0,"x_max":0,"o":"m 56 329 b 399 -22 56 160 171 -22 b 744 349 621 -22 744 163 b 406 694 744 535 629 694 b 56 329 175 694 56 515 z m 164 331 b 406 664 164 586 311 664 b 636 343 524 664 636 547 b 407 8 636 172 551 8 b 164 331 279 8 164 136 z "},"":{"ha":643,"x_min":0,"x_max":0,"o":"m 249 36 b 247 304 247 99 247 215 l 342 304 b 593 497 494 304 593 364 b 390 678 593 600 528 678 b 279 674 375 678 328 676 b 167 669 232 672 185 669 b 54 672 125 669 81 672 l 54 638 l 144 633 b 147 228 147 568 147 535 b 144 36 147 101 146 86 l 54 32 l 54 -3 b 200 0 89 -1 119 0 b 344 -3 276 0 315 -1 l 344 32 z m 249 603 b 294 643 249 639 251 643 b 499 492 396 643 499 613 b 363 339 499 414 444 351 b 247 335 336 335 297 332 z "},"":{"ha":797,"x_min":0,"x_max":0,"o":"m 753 -169 b 642 -197 719 -185 682 -197 b 264 -111 560 -197 443 -162 b 490 -17 294 -96 454 -32 b 744 349 560 14 744 93 b 410 694 744 547 615 694 b 56 343 207 694 56 553 b 360 -17 56 139 190 -6 b 382 -25 378 -18 382 -19 b 221 -99 382 -39 243 -89 b 99 -69 139 -74 108 -69 b 75 -90 85 -69 75 -76 b 101 -197 75 -107 89 -197 b 158 -175 114 -197 140 -183 b 561 -281 276 -203 440 -281 b 761 -186 642 -281 732 -210 z m 164 331 b 406 664 164 586 311 664 b 636 343 524 664 636 547 b 407 8 636 172 551 8 b 164 331 279 8 164 136 z "},"":{"ha":694,"x_min":0,"x_max":0,"o":"m 249 36 b 247 319 247 93 247 115 l 301 319 b 342 317 318 319 339 318 b 374 267 347 315 358 292 b 593 -3 538 -3 553 -3 b 685 0 607 -3 669 0 l 685 31 b 611 89 665 33 651 36 b 446 335 525 207 446 332 b 569 508 446 340 569 383 b 372 678 569 624 483 678 b 271 674 358 678 315 676 b 167 669 228 672 183 669 b 57 672 129 669 82 672 l 57 638 l 144 633 b 147 221 147 571 147 536 b 144 36 147 99 146 86 l 57 32 l 57 -3 b 197 0 99 -1 125 0 b 335 -3 265 0 306 -1 l 335 32 z m 247 351 b 250 624 247 392 247 603 b 292 644 253 639 258 644 b 469 497 408 644 469 600 b 313 353 469 403 422 353 z "},"":{"ha":565,"x_min":0,"x_max":0,"o":"m 72 -3 l 99 -3 b 121 18 103 10 107 18 b 296 -25 131 18 226 -25 b 514 169 394 -25 514 39 b 144 550 514 413 144 389 b 278 664 144 604 188 664 b 461 493 346 664 424 626 l 489 493 l 486 681 l 458 681 b 436 657 456 671 451 657 b 274 694 424 657 343 694 b 67 511 165 694 67 632 b 431 135 67 282 431 311 b 293 6 431 67 379 6 b 97 194 171 6 124 90 l 67 194 z "},"":{"ha":668,"x_min":0,"x_max":0,"o":"m 56 494 b 85 611 67 547 78 596 b 186 642 99 639 122 642 l 279 642 b 282 221 282 575 282 540 b 279 36 282 99 281 86 l 185 32 l 185 -3 b 332 0 210 -1 250 0 b 479 -3 413 0 453 -1 l 479 32 l 383 36 b 382 449 382 99 382 133 b 383 642 382 576 382 589 l 507 642 b 594 626 568 642 589 636 b 606 499 600 617 606 517 l 643 499 l 653 672 b 332 669 550 671 435 669 b 28 672 229 669 117 671 l 15 494 z "},"":{"ha":772,"x_min":0,"x_max":0,"o":"m 733 638 l 733 672 b 611 669 681 671 647 669 b 492 672 571 669 525 671 l 492 638 l 586 633 l 589 253 b 408 11 590 144 558 11 b 231 286 278 11 229 125 l 232 633 l 326 638 l 326 672 b 178 669 265 671 226 669 b 36 672 138 669 83 671 l 36 638 l 126 633 l 129 283 b 389 -25 132 110 194 -25 b 642 340 614 -25 640 160 l 644 633 z "},"":{"ha":668,"x_min":0,"x_max":0,"o":"m 664 672 b 475 669 600 669 536 669 l 475 636 b 556 624 546 635 556 635 b 486 425 556 619 492 440 l 379 126 l 269 399 b 182 621 261 418 182 614 b 283 636 182 631 188 635 l 283 669 b 19 672 149 669 113 669 l 19 638 l 60 635 b 335 -25 157 417 242 200 l 357 -25 l 467 274 b 603 618 482 315 592 596 b 664 635 610 632 615 632 z "},"":{"ha":978,"x_min":0,"x_max":0,"o":"m 967 672 b 797 669 886 669 876 669 l 797 636 b 865 629 863 636 865 632 b 781 374 865 617 790 401 l 699 144 l 696 144 l 554 590 b 544 625 549 608 544 619 b 631 636 544 633 549 636 l 631 672 b 503 669 600 672 528 669 b 372 672 479 669 444 671 l 372 639 l 428 636 l 474 503 l 351 144 l 349 144 l 192 600 b 185 625 188 614 185 621 b 264 638 185 633 192 638 l 264 672 b 131 669 236 672 153 669 b 14 672 94 669 50 671 l 14 638 l 67 633 b 300 -25 126 490 289 14 l 322 -25 l 492 451 l 494 451 l 644 -25 l 667 -25 l 810 349 b 913 619 822 383 911 617 b 967 635 917 626 925 633 z "},"":{"ha":668,"x_min":0,"x_max":0,"o":"m 11 -3 b 208 0 82 0 90 0 l 208 33 b 124 47 139 35 124 36 b 196 153 124 56 183 136 l 300 293 l 442 88 b 463 50 447 79 463 57 b 381 33 463 35 399 33 l 381 -3 b 519 0 426 -1 482 0 b 656 -3 553 0 592 -1 l 656 33 b 517 163 608 38 582 71 l 363 378 l 500 550 b 649 635 556 619 565 628 l 649 672 b 429 669 546 669 535 669 l 429 636 b 510 628 504 636 510 633 b 450 540 510 619 503 611 l 346 403 l 246 546 b 194 629 236 560 194 613 b 272 636 194 638 240 638 l 272 669 b 11 672 126 669 110 669 l 11 635 b 117 543 63 625 94 575 l 281 318 l 165 169 b 11 36 71 47 56 44 z "},"":{"ha":592,"x_min":0,"x_max":0,"o":"m 140 32 l 140 -3 b 294 0 188 -1 232 0 b 449 -3 357 0 406 -1 l 449 32 l 347 36 b 344 115 346 63 344 85 l 344 347 l 421 454 b 546 615 436 475 522 592 b 615 633 563 632 574 632 l 615 672 b 413 669 567 669 456 669 l 413 636 b 497 625 489 636 497 632 b 490 608 497 621 492 611 l 329 376 l 263 482 b 175 628 258 488 175 617 b 263 638 175 635 196 636 l 263 672 b 106 669 231 672 131 669 b -22 672 72 669 25 671 l -22 638 b 46 625 29 636 35 636 b 140 489 61 613 121 518 l 244 328 b 242 36 244 258 244 93 z "},"":{"ha":643,"x_min":0,"x_max":0,"o":"m 600 192 l 560 192 b 499 40 544 106 535 50 b 290 29 472 33 438 33 l 165 28 b 597 658 182 53 528 561 l 597 672 b 322 669 400 669 379 669 b 50 672 236 669 136 669 l 44 494 l 89 494 b 272 640 99 632 108 639 l 465 642 b 53 43 425 582 67 63 b 31 0 33 18 31 14 l 269 0 b 596 -3 372 0 494 0 z "},"":{"ha":668,"x_min":0,"x_max":0,"o":"m 432 485 l 247 375 l 247 444 b 250 633 247 571 247 583 l 346 638 l 346 672 b 200 669 321 672 279 669 b 54 672 122 669 85 671 l 54 638 l 144 633 b 147 315 147 588 147 556 l 39 250 l 39 207 l 147 272 l 147 214 b 144 36 147 97 146 86 l 49 32 l 49 -3 b 206 0 74 -1 114 0 b 607 -3 489 0 524 0 l 626 190 l 588 190 l 533 35 b 358 33 496 33 450 33 b 247 100 256 33 247 42 l 247 332 l 432 442 z "},"":{"ha":565,"x_min":0,"x_max":0,"o":"m 72 -3 l 99 -3 b 121 18 103 10 107 18 b 296 -25 131 18 226 -25 b 514 169 394 -25 514 39 b 144 550 514 413 144 389 b 278 664 144 604 188 664 b 461 493 346 664 424 626 l 489 493 l 486 681 l 458 681 b 436 657 456 671 451 657 b 274 694 424 657 343 694 b 67 511 165 694 67 632 b 431 135 67 282 431 311 b 293 6 431 67 379 6 b 97 194 171 6 124 90 l 67 194 z m 285 850 l 107 997 l 76 997 l 249 764 l 319 764 l 493 997 l 463 997 z "},"":{"ha":643,"x_min":0,"x_max":0,"o":"m 600 192 l 560 192 b 499 40 544 106 535 50 b 290 29 472 33 438 33 l 165 28 b 597 658 182 53 528 561 l 597 672 b 322 669 400 669 379 669 b 50 672 236 669 136 669 l 44 494 l 89 494 b 272 640 99 632 108 639 l 465 642 b 53 43 425 582 67 63 b 31 0 33 18 31 14 l 269 0 b 596 -3 372 0 494 0 z m 324 850 l 146 997 l 115 997 l 288 764 l 358 764 l 532 997 l 501 997 z "},"":{"ha":643,"x_min":0,"x_max":0,"o":"m 642 32 b 594 53 617 38 604 40 b 494 288 585 65 508 253 l 328 694 l 304 694 l 188 379 b 75 88 151 282 115 183 b -3 32 57 46 51 38 l -3 -3 b 78 0 19 -1 44 0 b 183 -3 97 0 106 0 l 183 32 l 142 35 b 104 47 108 38 104 38 b 118 90 104 51 106 56 l 165 222 b 183 239 169 233 175 239 l 388 239 b 417 221 408 239 410 238 l 457 118 b 479 53 463 104 479 63 b 440 36 479 39 471 39 l 381 32 l 381 -3 b 525 0 422 -1 458 0 b 642 -3 581 0 613 -1 z m 204 272 b 188 278 193 272 188 275 b 190 289 188 281 189 283 l 279 529 b 286 539 282 535 283 539 b 294 526 289 539 292 533 l 388 292 b 393 278 390 283 393 279 b 379 272 393 275 390 272 z m 390 764 l 424 764 l 221 967 b 164 1000 201 988 188 1000 b 119 957 143 1000 119 985 b 153 910 119 933 133 921 z "},"":{"ha":643,"x_min":0,"x_max":0,"o":"m 642 32 b 594 53 617 38 604 40 b 494 288 585 65 508 253 l 328 694 l 304 694 l 188 379 b 75 88 151 282 115 183 b -3 32 57 46 51 38 l -3 -3 b 78 0 19 -1 44 0 b 183 -3 97 0 106 0 l 183 32 l 142 35 b 104 47 108 38 104 38 b 118 90 104 51 106 56 l 165 222 b 183 239 169 233 175 239 l 388 239 b 417 221 408 239 410 238 l 457 118 b 479 53 463 104 479 63 b 440 36 479 39 471 39 l 381 32 l 381 -3 b 525 0 422 -1 458 0 b 642 -3 581 0 613 -1 z m 204 272 b 188 278 193 272 188 275 b 190 289 188 281 189 283 l 279 529 b 286 539 282 535 283 539 b 294 526 289 539 292 533 l 388 292 b 393 278 390 283 393 279 b 379 272 393 275 390 272 z m 257 764 l 494 910 b 526 957 514 921 526 933 b 483 1000 526 981 508 1000 b 426 967 458 1000 440 982 l 224 764 z "},"":{"ha":643,"x_min":0,"x_max":0,"o":"m 642 32 b 594 53 617 38 604 40 b 494 288 585 65 508 253 l 328 694 l 304 694 l 188 379 b 75 88 151 282 115 183 b -3 32 57 46 51 38 l -3 -3 b 78 0 19 -1 44 0 b 183 -3 97 0 106 0 l 183 32 l 142 35 b 104 47 108 38 104 38 b 118 90 104 51 106 56 l 165 222 b 183 239 169 233 175 239 l 388 239 b 417 221 408 239 410 238 l 457 118 b 479 53 463 104 479 63 b 440 36 479 39 471 39 l 381 32 l 381 -3 b 525 0 422 -1 458 0 b 642 -3 581 0 613 -1 z m 204 272 b 188 278 193 272 188 275 b 190 289 188 281 189 283 l 279 529 b 286 539 282 535 283 539 b 294 526 289 539 292 533 l 388 292 b 393 278 390 283 393 279 b 379 272 393 275 390 272 z m 324 911 l 501 764 l 532 764 l 358 997 l 288 997 l 115 764 l 146 764 z "},"":{"ha":643,"x_min":0,"x_max":0,"o":"m 642 32 b 594 53 617 38 604 40 b 494 288 585 65 508 253 l 328 694 l 304 694 l 188 379 b 75 88 151 282 115 183 b -3 32 57 46 51 38 l -3 -3 b 78 0 19 -1 44 0 b 183 -3 97 0 106 0 l 183 32 l 142 35 b 104 47 108 38 104 38 b 118 90 104 51 106 56 l 165 222 b 183 239 169 233 175 239 l 388 239 b 417 221 408 239 410 238 l 457 118 b 479 53 463 104 479 63 b 440 36 479 39 471 39 l 381 32 l 381 -3 b 525 0 422 -1 458 0 b 642 -3 581 0 613 -1 z m 204 272 b 188 278 193 272 188 275 b 190 289 188 281 189 283 l 279 529 b 286 539 282 535 283 539 b 294 526 289 539 292 533 l 388 292 b 393 278 390 283 393 279 b 379 272 393 275 390 272 z m 518 942 b 433 869 507 917 486 869 b 346 903 407 869 378 886 b 238 936 314 919 278 936 b 100 800 183 936 122 894 l 129 800 b 210 864 139 824 156 864 b 301 832 242 864 271 847 b 401 800 332 815 364 800 b 547 942 510 800 539 911 z "},"":{"ha":643,"x_min":0,"x_max":0,"o":"m 642 32 b 594 53 617 38 604 40 b 494 288 585 65 508 253 l 328 694 l 304 694 l 188 379 b 75 88 151 282 115 183 b -3 32 57 46 51 38 l -3 -3 b 78 0 19 -1 44 0 b 183 -3 97 0 106 0 l 183 32 l 142 35 b 104 47 108 38 104 38 b 118 90 104 51 106 56 l 165 222 b 183 239 169 233 175 239 l 388 239 b 417 221 408 239 410 238 l 457 118 b 479 53 463 104 479 63 b 440 36 479 39 471 39 l 381 32 l 381 -3 b 525 0 422 -1 458 0 b 642 -3 581 0 613 -1 z m 204 272 b 188 278 193 272 188 275 b 190 289 188 281 189 283 l 279 529 b 286 539 282 535 283 539 b 294 526 289 539 292 533 l 388 292 b 393 278 390 283 393 279 b 379 272 393 275 390 272 z m 249 861 b 194 918 249 899 222 918 b 131 850 161 918 131 896 b 185 792 131 826 153 792 b 249 861 219 792 249 824 z m 517 861 b 463 918 517 899 490 918 b 399 850 429 918 399 896 b 453 792 399 826 421 792 b 517 861 488 792 517 824 z "},"":{"ha":643,"x_min":0,"x_max":0,"o":"m 642 32 b 594 53 617 38 604 40 b 494 288 585 65 508 253 l 328 694 l 304 694 l 188 379 b 75 88 151 282 115 183 b -3 32 57 46 51 38 l -3 -3 b 78 0 19 -1 44 0 b 183 -3 97 0 106 0 l 183 32 l 142 35 b 104 47 108 38 104 38 b 118 90 104 51 106 56 l 165 222 b 183 239 169 233 175 239 l 388 239 b 417 221 408 239 410 238 l 457 118 b 479 53 463 104 479 63 b 440 36 479 39 471 39 l 381 32 l 381 -3 b 525 0 422 -1 458 0 b 642 -3 581 0 613 -1 z m 204 272 b 188 278 193 272 188 275 b 190 289 188 281 189 283 l 279 529 b 286 539 282 535 283 539 b 294 526 289 539 292 533 l 388 292 b 393 278 390 283 393 279 b 379 272 393 275 390 272 z m 458 879 b 324 1014 458 954 399 1014 b 189 879 249 1014 189 954 b 324 744 189 806 249 744 b 458 879 399 744 458 806 z m 417 879 b 324 786 417 828 375 786 b 231 879 272 786 231 828 b 324 972 231 931 272 972 b 417 879 375 972 417 931 z "},"":{"ha":951,"x_min":0,"x_max":0,"o":"m 875 185 l 836 185 l 792 31 l 590 31 b 507 96 514 31 510 31 b 506 336 506 117 506 139 b 654 332 532 336 624 336 b 672 219 661 331 667 314 l 714 219 b 711 338 711 264 711 292 b 715 488 711 407 714 451 l 675 488 b 653 376 671 415 668 385 b 506 367 636 368 535 367 l 506 642 l 631 642 b 776 624 733 642 761 640 b 797 515 793 606 796 546 l 839 515 l 839 672 b 547 669 742 671 644 669 l 450 669 b 278 672 393 669 335 671 l 278 639 b 369 629 340 639 369 635 b 69 132 369 618 132 232 b -42 36 15 46 8 38 l -42 -3 b 147 0 47 0 49 0 l 147 33 b 65 47 78 36 65 38 b 85 86 65 53 67 56 l 197 278 l 406 278 b 403 36 406 211 406 99 l 318 32 l 318 -3 b 574 0 369 -1 401 -1 l 863 0 z m 215 308 l 393 608 l 404 608 b 406 308 406 564 406 368 z "},"":{"ha":746,"x_min":0,"x_max":0,"o":"m 675 221 l 649 221 b 419 17 614 103 544 17 b 164 339 304 17 164 113 b 408 661 164 544 276 661 b 635 461 499 661 610 599 l 665 461 l 665 651 l 631 653 b 604 635 625 646 617 635 b 399 694 586 635 517 694 b 56 333 228 694 56 565 b 339 -19 56 133 189 7 l 288 -137 l 303 -146 b 347 -133 315 -140 328 -133 b 417 -196 385 -133 417 -157 b 328 -264 417 -215 406 -264 b 240 -247 290 -264 261 -254 l 231 -276 b 346 -300 269 -293 306 -300 b 508 -185 446 -300 508 -256 b 396 -86 508 -125 463 -86 b 338 -97 368 -86 350 -92 l 369 -22 b 401 -25 381 -25 392 -25 b 664 53 494 -25 585 6 z "},"":{"ha":721,"x_min":0,"x_max":0,"o":"m 642 185 l 604 185 l 558 31 l 311 31 b 247 96 256 31 247 42 l 247 336 b 404 333 275 336 383 336 b 431 219 424 329 428 319 l 472 219 b 469 338 471 264 469 292 b 475 488 469 407 472 451 l 433 488 b 410 376 432 418 425 386 b 247 367 392 367 276 367 l 247 642 l 465 642 b 565 515 543 642 557 633 l 607 515 l 607 672 b 239 669 450 669 272 669 b 54 672 150 669 104 671 l 54 638 l 144 633 b 147 228 147 568 147 535 b 144 36 147 101 146 86 l 58 32 l 58 -3 b 315 0 111 -1 143 -1 l 631 0 z m 429 764 l 463 764 l 260 967 b 203 1000 240 988 226 1000 b 158 957 182 1000 158 985 b 192 910 158 933 172 921 z "},"":{"ha":721,"x_min":0,"x_max":0,"o":"m 642 185 l 604 185 l 558 31 l 311 31 b 247 96 256 31 247 42 l 247 336 b 404 333 275 336 383 336 b 431 219 424 329 428 319 l 472 219 b 469 338 471 264 469 292 b 475 488 469 407 472 451 l 433 488 b 410 376 432 418 425 386 b 247 367 392 367 276 367 l 247 642 l 465 642 b 565 515 543 642 557 633 l 607 515 l 607 672 b 239 669 450 669 272 669 b 54 672 150 669 104 671 l 54 638 l 144 633 b 147 228 147 568 147 535 b 144 36 147 101 146 86 l 58 32 l 58 -3 b 315 0 111 -1 143 -1 l 631 0 z m 296 764 l 533 910 b 565 957 553 921 565 933 b 522 1000 565 981 547 1000 b 465 967 497 1000 479 982 l 263 764 z "},"":{"ha":721,"x_min":0,"x_max":0,"o":"m 642 185 l 604 185 l 558 31 l 311 31 b 247 96 256 31 247 42 l 247 336 b 404 333 275 336 383 336 b 431 219 424 329 428 319 l 472 219 b 469 338 471 264 469 292 b 475 488 469 407 472 451 l 433 488 b 410 376 432 418 425 386 b 247 367 392 367 276 367 l 247 642 l 465 642 b 565 515 543 642 557 633 l 607 515 l 607 672 b 239 669 450 669 272 669 b 54 672 150 669 104 671 l 54 638 l 144 633 b 147 228 147 568 147 535 b 144 36 147 101 146 86 l 58 32 l 58 -3 b 315 0 111 -1 143 -1 l 631 0 z m 363 911 l 540 764 l 571 764 l 397 997 l 326 997 l 154 764 l 185 764 z "},"":{"ha":721,"x_min":0,"x_max":0,"o":"m 642 185 l 604 185 l 558 31 l 311 31 b 247 96 256 31 247 42 l 247 336 b 404 333 275 336 383 336 b 431 219 424 329 428 319 l 472 219 b 469 338 471 264 469 292 b 475 488 469 407 472 451 l 433 488 b 410 376 432 418 425 386 b 247 367 392 367 276 367 l 247 642 l 465 642 b 565 515 543 642 557 633 l 607 515 l 607 672 b 239 669 450 669 272 669 b 54 672 150 669 104 671 l 54 638 l 144 633 b 147 228 147 568 147 535 b 144 36 147 101 146 86 l 58 32 l 58 -3 b 315 0 111 -1 143 -1 l 631 0 z m 288 861 b 233 918 288 899 261 918 b 169 850 200 918 169 896 b 224 792 169 826 192 792 b 288 861 258 792 288 824 z m 556 861 b 501 918 556 899 529 918 b 438 850 468 918 438 896 b 492 792 438 826 460 792 b 556 861 526 792 556 824 z "},"":{"ha":411,"x_min":0,"x_max":0,"o":"m 258 36 b 256 442 256 101 256 135 b 258 633 256 568 257 583 l 346 638 l 346 672 b 206 669 306 671 278 669 b 67 672 133 669 96 671 l 67 638 l 153 633 b 156 228 156 568 156 535 b 153 36 156 101 156 86 l 67 32 l 67 -3 b 206 0 106 -1 133 0 b 346 -3 278 0 315 -1 l 346 32 z m 274 764 l 307 764 l 104 967 b 47 1000 85 988 71 1000 b 3 957 26 1000 3 985 b 36 910 3 933 17 921 z "},"":{"ha":411,"x_min":0,"x_max":0,"o":"m 258 36 b 256 442 256 101 256 135 b 258 633 256 568 257 583 l 346 638 l 346 672 b 206 669 306 671 278 669 b 67 672 133 669 96 671 l 67 638 l 153 633 b 156 228 156 568 156 535 b 153 36 156 101 156 86 l 67 32 l 67 -3 b 206 0 106 -1 133 0 b 346 -3 278 0 315 -1 l 346 32 z m 140 764 l 378 910 b 410 957 397 921 410 933 b 367 1000 410 981 392 1000 b 310 967 342 1000 324 982 l 107 764 z "},"":{"ha":411,"x_min":0,"x_max":0,"o":"m 258 36 b 256 442 256 101 256 135 b 258 633 256 568 257 583 l 346 638 l 346 672 b 206 669 306 671 278 669 b 67 672 133 669 96 671 l 67 638 l 153 633 b 156 228 156 568 156 535 b 153 36 156 101 156 86 l 67 32 l 67 -3 b 206 0 106 -1 133 0 b 346 -3 278 0 315 -1 l 346 32 z m 207 911 l 385 764 l 415 764 l 242 997 l 171 997 l -1 764 l 29 764 z "},"":{"ha":411,"x_min":0,"x_max":0,"o":"m 258 36 b 256 442 256 101 256 135 b 258 633 256 568 257 583 l 346 638 l 346 672 b 206 669 306 671 278 669 b 67 672 133 669 96 671 l 67 638 l 153 633 b 156 228 156 568 156 535 b 153 36 156 101 156 86 l 67 32 l 67 -3 b 206 0 106 -1 133 0 b 346 -3 278 0 315 -1 l 346 32 z m 132 861 b 78 918 132 899 106 918 b 14 850 44 918 14 896 b 68 792 14 826 36 792 b 132 861 103 792 132 824 z m 400 861 b 346 918 400 899 374 918 b 282 850 313 918 282 896 b 336 792 282 826 304 792 b 400 861 371 792 400 824 z "},"":{"ha":797,"x_min":0,"x_max":0,"o":"m 147 325 l 147 228 b 144 36 147 101 146 86 l 58 32 l 58 -3 b 194 0 99 -1 135 0 b 371 -3 219 0 343 -3 b 742 343 608 -3 742 140 b 374 678 742 535 618 678 b 58 669 268 678 164 669 l 58 636 l 144 633 b 146 361 146 590 147 561 l 36 361 l 36 325 z m 456 325 l 456 361 l 249 361 b 250 625 247 518 249 610 b 264 643 250 635 253 640 b 325 647 275 646 311 647 b 642 329 515 647 642 528 b 357 28 642 183 567 28 b 253 43 338 28 263 29 b 247 196 247 51 247 172 b 249 325 247 247 247 304 z "},"":{"ha":797,"x_min":0,"x_max":0,"o":"m 668 -11 l 668 333 b 671 633 668 376 669 586 l 756 638 l 756 672 b 646 669 718 671 689 669 b 540 672 600 669 565 671 l 540 638 l 629 633 b 635 353 631 542 633 424 l 635 171 l 632 171 b 596 218 629 178 610 203 b 224 669 492 343 328 544 b 50 672 135 669 106 669 l 50 636 b 131 604 71 633 106 631 b 139 561 138 596 138 593 l 139 325 b 133 36 138 283 136 82 l 50 32 l 50 -3 b 156 0 75 -1 110 0 b 264 -3 199 0 235 -1 l 264 32 l 178 36 b 172 347 178 81 172 299 l 172 564 b 399 296 208 522 226 500 b 649 -11 488 190 590 63 z m 594 942 b 510 869 583 917 563 869 b 422 903 483 869 454 886 b 314 936 390 919 354 936 b 176 800 260 936 199 894 l 206 800 b 286 864 215 824 232 864 b 378 832 318 864 347 847 b 478 800 408 815 440 800 b 624 942 586 800 615 911 z "},"":{"ha":797,"x_min":0,"x_max":0,"o":"m 56 329 b 399 -22 56 160 171 -22 b 744 349 621 -22 744 163 b 406 694 744 535 629 694 b 56 329 175 694 56 515 z m 164 331 b 406 664 164 586 311 664 b 636 343 524 664 636 547 b 407 8 636 172 551 8 b 164 331 279 8 164 136 z m 467 764 l 500 764 l 297 967 b 240 1000 278 988 264 1000 b 196 957 219 1000 196 985 b 229 910 196 933 210 921 z "},"":{"ha":797,"x_min":0,"x_max":0,"o":"m 56 329 b 399 -22 56 160 171 -22 b 744 349 621 -22 744 163 b 406 694 744 535 629 694 b 56 329 175 694 56 515 z m 164 331 b 406 664 164 586 311 664 b 636 343 524 664 636 547 b 407 8 636 172 551 8 b 164 331 279 8 164 136 z m 333 764 l 571 910 b 603 957 590 921 603 933 b 560 1000 603 981 585 1000 b 503 967 535 1000 517 982 l 300 764 z "},"":{"ha":797,"x_min":0,"x_max":0,"o":"m 56 329 b 399 -22 56 160 171 -22 b 744 349 621 -22 744 163 b 406 694 744 535 629 694 b 56 329 175 694 56 515 z m 164 331 b 406 664 164 586 311 664 b 636 343 524 664 636 547 b 407 8 636 172 551 8 b 164 331 279 8 164 136 z m 400 911 l 578 764 l 608 764 l 435 997 l 364 997 l 192 764 l 222 764 z "},"":{"ha":797,"x_min":0,"x_max":0,"o":"m 56 329 b 399 -22 56 160 171 -22 b 744 349 621 -22 744 163 b 406 694 744 535 629 694 b 56 329 175 694 56 515 z m 164 331 b 406 664 164 586 311 664 b 636 343 524 664 636 547 b 407 8 636 172 551 8 b 164 331 279 8 164 136 z m 594 942 b 510 869 583 917 563 869 b 422 903 483 869 454 886 b 314 936 390 919 354 936 b 176 800 260 936 199 894 l 206 800 b 286 864 215 824 232 864 b 378 832 318 864 347 847 b 478 800 408 815 440 800 b 624 942 586 800 615 911 z "},"":{"ha":797,"x_min":0,"x_max":0,"o":"m 56 329 b 399 -22 56 160 171 -22 b 744 349 621 -22 744 163 b 406 694 744 535 629 694 b 56 329 175 694 56 515 z m 164 331 b 406 664 164 586 311 664 b 636 343 524 664 636 547 b 407 8 636 172 551 8 b 164 331 279 8 164 136 z m 325 861 b 271 918 325 899 299 918 b 207 850 238 918 207 896 b 261 792 207 826 229 792 b 325 861 296 792 325 824 z m 593 861 b 539 918 593 899 567 918 b 475 850 506 918 475 896 b 529 792 475 826 497 792 b 593 861 564 792 593 824 z "},"":{"ha":1054,"x_min":0,"x_max":0,"o":"m 525 86 b 413 14 525 33 506 14 b 163 347 213 14 163 228 b 407 656 163 468 211 656 b 522 617 450 656 517 647 b 525 290 525 603 525 329 z m 982 0 l 994 185 l 956 185 l 911 31 l 710 31 b 626 96 633 31 629 29 b 625 336 625 117 625 139 b 776 329 733 336 767 335 b 792 219 785 326 786 293 l 833 219 b 831 338 831 264 831 292 b 835 488 831 407 833 451 l 794 488 b 772 376 792 424 788 383 b 625 367 756 368 654 367 l 625 642 l 750 642 b 896 624 853 642 881 640 b 917 515 913 606 915 546 l 958 515 l 958 672 b 686 669 894 672 724 669 b 564 674 653 669 603 669 b 397 686 508 678 428 686 b 54 336 121 686 54 463 b 388 -17 54 149 169 -17 b 542 -4 415 -17 461 -12 b 693 0 571 -1 610 0 z "},"":{"ha":797,"x_min":0,"x_max":0,"o":"m 236 99 b 164 331 192 156 164 235 b 406 664 164 586 311 664 b 521 622 446 664 486 650 z m 557 589 b 636 343 604 535 636 451 b 407 8 636 172 551 8 b 272 61 358 8 311 28 z m 636 835 l 546 669 b 406 694 504 686 457 694 b 56 329 175 694 56 515 b 203 36 56 218 106 101 l 92 -169 l 146 -169 l 244 11 b 399 -22 289 -11 340 -22 b 744 349 621 -22 744 163 b 589 649 744 474 692 588 l 690 835 z "},"":{"ha":772,"x_min":0,"x_max":0,"o":"m 733 638 l 733 672 b 611 669 681 671 647 669 b 492 672 571 669 525 671 l 492 638 l 586 633 l 589 253 b 408 11 590 144 558 11 b 231 286 278 11 229 125 l 232 633 l 326 638 l 326 672 b 178 669 265 671 226 669 b 36 672 138 669 83 671 l 36 638 l 126 633 l 129 283 b 389 -25 132 110 194 -25 b 642 340 614 -25 640 160 l 644 633 z m 454 764 l 488 764 l 285 967 b 228 1000 265 988 251 1000 b 183 957 207 1000 183 985 b 217 910 183 933 197 921 z "},"":{"ha":772,"x_min":0,"x_max":0,"o":"m 733 638 l 733 672 b 611 669 681 671 647 669 b 492 672 571 669 525 671 l 492 638 l 586 633 l 589 253 b 408 11 590 144 558 11 b 231 286 278 11 229 125 l 232 633 l 326 638 l 326 672 b 178 669 265 671 226 669 b 36 672 138 669 83 671 l 36 638 l 126 633 l 129 283 b 389 -25 132 110 194 -25 b 642 340 614 -25 640 160 l 644 633 z m 321 764 l 558 910 b 590 957 578 921 590 933 b 547 1000 590 981 572 1000 b 490 967 522 1000 504 982 l 288 764 z "},"":{"ha":772,"x_min":0,"x_max":0,"o":"m 733 638 l 733 672 b 611 669 681 671 647 669 b 492 672 571 669 525 671 l 492 638 l 586 633 l 589 253 b 408 11 590 144 558 11 b 231 286 278 11 229 125 l 232 633 l 326 638 l 326 672 b 178 669 265 671 226 669 b 36 672 138 669 83 671 l 36 638 l 126 633 l 129 283 b 389 -25 132 110 194 -25 b 642 340 614 -25 640 160 l 644 633 z m 388 911 l 565 764 l 596 764 l 422 997 l 351 997 l 179 764 l 210 764 z "},"":{"ha":772,"x_min":0,"x_max":0,"o":"m 733 638 l 733 672 b 611 669 681 671 647 669 b 492 672 571 669 525 671 l 492 638 l 586 633 l 589 253 b 408 11 590 144 558 11 b 231 286 278 11 229 125 l 232 633 l 326 638 l 326 672 b 178 669 265 671 226 669 b 36 672 138 669 83 671 l 36 638 l 126 633 l 129 283 b 389 -25 132 110 194 -25 b 642 340 614 -25 640 160 l 644 633 z m 313 861 b 258 918 313 899 286 918 b 194 850 225 918 194 896 b 249 792 194 826 217 792 b 313 861 283 792 313 824 z m 581 861 b 526 918 581 899 554 918 b 463 850 493 918 463 896 b 517 792 463 826 485 792 b 581 861 551 792 581 824 z "},"":{"ha":592,"x_min":0,"x_max":0,"o":"m 140 32 l 140 -3 b 294 0 188 -1 232 0 b 449 -3 357 0 406 -1 l 449 32 l 347 36 b 344 115 346 63 344 85 l 344 347 l 421 454 b 546 615 436 475 522 592 b 615 633 563 632 574 632 l 615 672 b 413 669 567 669 456 669 l 413 636 b 497 625 489 636 497 632 b 490 608 497 621 492 611 l 329 376 l 263 482 b 175 628 258 488 175 617 b 263 638 175 635 196 636 l 263 672 b 106 669 231 672 131 669 b -22 672 72 669 25 671 l -22 638 b 46 625 29 636 35 636 b 140 489 61 613 121 518 l 244 328 b 242 36 244 258 244 93 z m 231 764 l 468 910 b 500 957 488 921 500 933 b 457 1000 500 981 482 1000 b 400 967 432 1000 414 982 l 197 764 z "},"":{"ha":643,"x_min":0,"x_max":0,"o":"m 249 36 b 247 156 247 75 247 94 l 363 156 b 593 347 513 156 593 232 b 392 528 593 447 531 528 b 247 522 369 528 328 525 b 249 633 247 567 247 583 l 344 638 l 344 672 b 200 669 319 672 279 669 b 54 672 119 669 89 671 l 54 638 l 144 633 b 147 214 147 572 147 536 b 144 36 147 97 146 86 l 54 32 l 54 -3 b 200 0 89 -1 119 0 b 344 -3 279 0 319 -1 l 344 32 z m 247 492 b 293 494 264 493 275 494 b 499 342 394 494 499 463 b 363 190 499 269 450 204 b 247 186 336 186 297 183 z "},"":{"ha":592,"x_min":0,"x_max":0,"o":"m 140 32 l 140 -3 b 294 0 188 -1 232 0 b 449 -3 357 0 406 -1 l 449 32 l 347 36 b 344 115 346 63 344 85 l 344 347 l 421 454 b 546 615 436 475 522 592 b 615 633 563 632 574 632 l 615 672 b 413 669 567 669 456 669 l 413 636 b 497 625 489 636 497 632 b 490 608 497 621 492 611 l 329 376 l 263 482 b 175 628 258 488 175 617 b 263 638 175 635 196 636 l 263 672 b 106 669 231 672 131 669 b -22 672 72 669 25 671 l -22 638 b 46 625 29 636 35 636 b 140 489 61 613 121 518 l 244 328 b 242 36 244 258 244 93 z m 222 861 b 168 918 222 899 196 918 b 104 850 135 918 104 896 b 158 792 104 826 126 792 b 222 861 193 792 222 824 z m 490 861 b 436 918 490 899 464 918 b 372 850 403 918 372 896 b 426 792 372 826 394 792 b 490 861 461 792 490 824 z "},"Ω":{"ha":907,"x_min":0,"x_max":0,"o":"m 864 179 l 833 181 b 738 74 806 83 792 74 l 600 74 b 814 554 685 174 814 344 b 456 992 814 829 661 992 b 92 543 253 992 92 819 b 304 74 92 311 231 151 l 168 74 b 71 181 121 74 97 88 l 43 179 l 71 0 l 356 0 l 365 22 b 194 535 296 153 194 329 b 453 954 194 838 313 954 b 714 542 582 954 713 839 b 540 22 715 329 597 139 l 547 0 l 835 0 z "},"ﬁ":{"ha":772,"x_min":0,"x_max":0,"o":"m 710 0 l 710 33 l 636 35 l 636 578 b 628 597 636 592 633 597 b 540 586 626 597 589 592 b 386 575 492 581 433 575 l 247 575 b 256 921 246 618 244 814 b 294 958 260 954 271 958 b 633 929 335 958 521 938 l 649 1007 b 365 1031 551 1015 419 1031 b 233 961 326 1031 285 1013 b 147 575 153 879 151 790 l 53 575 l 53 531 l 147 528 l 147 35 l 74 33 l 74 0 l 333 0 l 333 33 l 247 35 l 247 463 b 258 521 247 510 246 515 b 504 531 275 528 472 531 b 536 494 532 531 536 528 l 536 35 l 454 33 l 454 0 z "},"ﬂ":{"ha":772,"x_min":0,"x_max":0,"o":"m 74 33 l 74 0 l 333 0 l 333 33 l 247 35 l 247 463 b 258 521 247 510 247 515 b 539 531 274 528 442 532 l 539 35 l 454 33 l 454 0 l 710 0 l 710 33 l 639 35 l 639 504 b 640 1031 639 660 639 881 b 488 1017 617 1028 517 1017 b 361 1031 469 1017 381 1031 b 222 957 340 1031 282 1031 b 147 575 151 869 150 782 l 53 575 l 53 531 l 147 528 l 147 35 z m 247 575 b 250 899 247 632 244 842 b 297 972 256 951 267 972 b 533 932 318 972 525 939 b 539 754 539 928 539 789 l 539 581 b 364 575 514 581 415 575 z "},"¹":{"ha":489,"x_min":0,"x_max":0,"o":"m 100 417 b 247 419 142 418 194 419 b 400 417 301 419 356 418 l 400 447 l 297 454 l 300 993 l 106 978 l 106 938 l 207 936 l 207 649 b 204 454 207 615 206 599 l 100 447 z "},"³":{"ha":489,"x_min":0,"x_max":0,"o":"m 86 885 b 238 925 126 901 182 925 b 331 857 310 925 331 885 b 146 722 331 783 179 733 b 118 704 124 715 118 714 b 147 692 118 693 132 692 b 339 586 269 692 339 661 b 122 433 339 528 278 465 b 96 417 101 428 96 425 b 110 403 96 408 101 403 b 428 614 211 403 426 489 b 275 749 429 683 375 731 l 275 751 b 406 886 307 764 406 804 b 244 997 406 935 365 997 b 99 972 182 997 128 981 z "},"²":{"ha":489,"x_min":0,"x_max":0,"o":"m 417 417 l 428 565 l 400 565 l 388 506 l 143 506 b 406 849 218 582 406 726 b 222 997 406 929 338 997 b 74 969 164 997 115 982 l 57 882 b 58 869 56 875 54 869 b 89 881 60 869 86 879 b 213 908 108 888 161 908 b 325 813 278 908 325 869 b 38 433 325 710 96 496 l 38 415 b 265 417 89 417 107 417 z "},"‐":{"ha":360,"x_min":0,"x_max":0,"o":"m 346 251 l 346 335 l 14 335 l 14 251 z "}}}
